<svg width="1094" height="1231" viewBox="0 0 1094 1231" fill="none" xmlns="http://www.w3.org/2000/svg">
<path d="M632.395 516.201C626.92 513.366 623.791 511.899 620.76 510.335C593.483 496.354 568.552 479.244 548.705 455.486C523.481 425.373 509.989 390.861 511.847 351.167C513.118 324.867 521.428 300.718 537.168 279.502C567.086 239.221 616.556 225.142 665.734 242.545C731.434 265.814 772.008 330.048 763.795 399.269C760.275 428.697 746.588 454.02 728.696 477.093C720.582 487.457 711.391 497.038 701.614 508.086C705.427 508.966 708.458 510.139 711.685 510.433C795.863 518.059 869.189 492.932 932.152 437.008C948.87 422.147 963.046 405.135 975.756 386.852C1014.57 330.928 1043.41 270.605 1057.39 203.633C1069.22 146.927 1064.24 91.2962 1047.03 36.4478C1044.98 29.7995 1041.75 23.4446 1039.11 16.9918C1037.94 14.1565 1036.18 11.3212 1035.69 8.38808C1035.3 6.04162 1035.49 1.93511 1036.96 1.15296C1039.11 -0.118037 1043.31 -0.509102 1045.37 0.859666C1049.47 3.49943 1053.38 7.01911 1056.32 10.9299C1066 23.8354 1072.35 38.403 1077.34 53.7528C1100.22 124.342 1098.16 195.029 1076.56 265.227C1059.64 320.271 1034.61 371.6 999.416 417.649C945.644 487.75 874.566 527.64 787.161 538.199C752.845 542.305 718.724 540.35 685.092 532.235C678.248 530.573 672.968 531.062 666.809 535.657C629.168 563.521 588.203 586.203 547.727 609.472C499.528 637.337 451.133 665.005 407.235 699.518C364.999 732.76 327.456 770.303 297.734 815.374C291.966 824.076 286.98 833.168 280.527 843.825C294.899 841.185 306.827 838.252 319.048 836.786C357.568 832.288 395.503 834.439 430.895 851.744C443.409 857.806 455.532 865.432 466.091 874.329C501.288 904.051 511.064 945.603 493.857 988.328C480.267 1022.06 454.848 1044.06 421.9 1057.74C357.568 1084.34 282.385 1064.69 242.007 1011.01C222.648 985.297 214.534 956.357 216.489 924.485C216.587 922.138 216.782 919.792 216.782 917.445C216.782 916.272 216.587 915.099 216.391 912.557C213.36 914.317 210.818 915.49 208.57 917.152C182.368 937.195 160.468 961.441 141.501 988.23C117.743 1021.77 98.7763 1057.84 84.1111 1096.26C76.4851 1116.31 69.2503 1136.35 61.8199 1156.49C60.3534 1160.4 59.1802 1164.41 59.1802 1168.91C65.7306 1162.45 72.3789 1156 78.9294 1149.55C93.008 1135.57 106.891 1121.39 121.361 1107.8C125.467 1103.89 131.04 1101.15 136.319 1099.2C139.643 1098.03 144.043 1098.42 147.465 1099.59C152.842 1101.35 154.406 1105.75 151.864 1110.83C149.811 1114.94 147.172 1118.95 144.043 1122.37C116.375 1152.48 88.4129 1182.3 60.7445 1212.41C51.5543 1222.39 39.8222 1226.98 27.2101 1229.92C21.4418 1231.28 16.7488 1229.92 13.6202 1223.85C9.90499 1216.52 6.97208 1209.19 6.58101 1200.68C4.62565 1163.73 1.98587 1126.87 0.128277 1089.91C-0.360564 1080.62 0.617046 1071.24 1.88803 1062.05C3.25679 1052.86 7.65637 1049.53 15.9667 1049.82C24.0814 1050.02 28.5787 1053.83 29.8497 1062.73C31.1207 1072.02 31.6096 1081.31 32.3918 1090.69C33.2717 1101.94 34.0538 1113.18 36.5957 1124.81C37.6712 1121.39 38.8444 1118.07 39.8221 1114.65C56.5405 1055.5 82.5468 1001.14 121.556 953.229C149.225 919.303 182.27 891.83 220.498 870.516C224.897 868.072 228.906 865.628 230.959 860.25C250.317 809.411 282.58 767.174 319.634 728.262C360.501 685.341 408.212 650.927 458.759 620.618C499.821 595.98 541.47 572.32 582.631 547.878C598.958 538.199 614.699 527.444 632.688 515.908L632.395 516.201ZM371.061 1046.31C395.209 1045.72 422.095 1034.08 442.333 1009.64C469.317 976.987 473.619 927.418 438.814 894.567C423.757 880.293 405.964 871.005 386.019 866.116C345.25 856.046 306.534 864.063 269.088 880.782C266.057 882.151 263.124 886.062 262.342 889.288C259.605 900.14 257.258 911.286 255.694 922.334C246.211 988.132 297.148 1046.7 371.158 1046.4L371.061 1046.31ZM655.957 497.136C678.639 477.289 697.802 456.171 710.902 429.968C721.461 408.948 726.545 386.852 724.395 363.388C720.777 323.596 702.495 292.407 667.591 272.169C639.239 255.744 607.659 259.752 583.413 281.653C573.734 290.354 566.01 300.522 560.633 312.352C542.253 353.122 545.283 392.719 568.65 430.36C588.986 463.112 619.88 482.764 655.859 497.038L655.957 497.136Z" fill="black"/>
</svg>
