<svg width="119" height="839" viewBox="0 0 119 839" fill="none" xmlns="http://www.w3.org/2000/svg">
<path d="M85.2538 741.584C88.7735 733.372 92.0975 725.061 96.0083 717.044C98.3547 712.253 101.19 707.463 104.807 703.552C106.567 701.694 111.065 700.521 113.313 701.401C115.66 702.281 117.615 705.996 118.202 708.734C118.886 711.765 118.202 715.187 117.517 718.315C109.403 756.543 94.0529 792.131 77.7256 827.426C71.1752 841.602 49.6662 842.188 42.2358 829.087C37.4452 820.582 31.6769 812.564 28.1572 803.667C19.0648 780.594 10.6567 757.227 2.7375 733.763C0.488838 727.114 0.0977681 719.684 0 712.547C0 706.681 1.95536 700.814 8.79913 699.25C15.0563 697.784 19.2603 701.792 22.0956 706.583C26.2018 713.72 29.526 721.346 33.2411 728.679C34.6099 731.416 35.9787 734.154 39.1072 736.5C39.3028 733.078 39.5961 729.558 39.6939 726.137C41.5515 579.776 42.9202 433.416 45.3644 287.153C46.0488 241.886 49.1774 196.619 51.426 151.352C53.4792 110.387 55.7278 69.5191 58.0743 28.5539C58.4653 22.4922 59.3452 16.4307 60.6162 10.369C61.4961 5.96936 62.1805 0.20101 68.2421 0.0054722C73.6194 -0.190066 75.0859 4.89376 75.9658 9.00006C78.2145 18.777 80.8542 28.5541 81.7341 38.5265C83.2984 56.0272 84.2761 73.7234 84.1783 91.3218C83.885 152.819 82.5163 214.315 82.3207 275.714C82.1252 325.674 82.9074 375.635 83.2007 425.692C83.3962 451.21 83.5917 476.728 83.494 502.245C83.2984 579.19 83.1029 656.134 82.8096 733.078C82.8096 735.816 83.1029 738.553 83.2984 741.291C83.9828 741.291 84.5694 741.291 85.2538 741.291" fill="black"/>
</svg>
