<svg width="899" height="953" viewBox="0 0 899 953" fill="none" xmlns="http://www.w3.org/2000/svg">
<path d="M697.405 521.64C692.321 562.117 696.428 600.638 711.484 637.888C717.448 652.749 723.412 667.707 729.962 682.373C745.898 718.156 744.139 754.233 731.918 790.31C727.029 804.878 721.358 819.445 714.612 833.328C703.174 857.282 694.179 881.529 696.428 908.708C696.623 910.957 695.45 913.206 694.961 915.259C687.922 918.29 686.064 913.792 684.5 909.002C679.514 893.456 683.424 878.204 687.726 863.441C691.05 852.1 696.721 841.443 700.827 830.297C708.551 809.766 717.057 789.43 723.216 768.312C730.646 743.185 729.669 717.765 719.599 693.03C715.59 683.155 711.875 673.085 707.476 663.308C687.14 617.552 679.905 570.036 687.726 519.392C673.941 513.428 668.173 501.793 665.728 487.715C663.773 476.373 656.733 468.356 646.468 463.566C635.713 458.482 624.568 454.277 614.009 448.9C600.811 442.154 587.709 435.115 575.195 427.195C553.979 413.605 539.118 394.638 531.102 370.587C530.417 368.436 528.951 366.579 527.289 363.548C496.688 386.23 464.228 405.784 447.51 441.372C443.11 450.66 436.755 455.157 425.61 453.886C411.531 495.536 408.598 536.795 423.361 578.151C430.205 597.118 439.297 615.303 447.021 633.977C455.429 654.313 464.033 674.551 471.267 695.376C480.947 723.045 482.022 751.3 472.929 779.458C467.063 797.545 461.197 815.632 455.429 833.817C446.239 862.366 446.337 891.208 453.669 920.049C455.918 929.044 456.016 929.044 452.203 938.528C443.697 937.061 441.448 929.924 439.2 923.471C431.476 901.082 429.13 877.911 434.214 854.935C438.809 834.11 444.577 813.286 452.398 793.438C467.552 755.211 466.575 718.059 449.954 680.808C437.831 653.629 425.805 626.449 413.878 599.269C393.444 552.438 391.782 504.922 409.478 456.917C409.869 455.842 409.674 454.571 409.674 454.766C405.763 448.607 400.875 443.816 399.31 438.048C394.129 418.494 379.659 411.161 361.278 406.175C357.27 435.506 349.839 462.979 333.121 486.737C324.322 499.251 314.545 511.766 302.715 521.151C282.086 537.479 268.203 556.642 264.683 583.137C263.217 594.478 262.337 594.381 243.859 600.931C240.73 632.999 244.935 663.894 262.533 692.345C266.932 699.385 271.723 706.228 275.731 713.561C298.805 755.113 301.347 797.643 277.882 839.488C260.871 869.894 250.703 901.376 252.56 936.475C252.854 941.754 250.898 947.229 250.018 952.509C248.356 952.607 246.792 952.802 245.13 952.9C243.077 946.545 240.046 940.288 239.166 933.737C235.744 907.046 240.437 881.528 251.778 857.282C255.591 849.167 259.795 841.345 263.999 833.524C282.086 800.087 281.695 766.259 266.052 732.333C262.63 724.805 258.328 717.57 253.636 710.726C230.953 677.778 222.839 641.505 229.585 600.931C218.83 597.607 213.551 590.274 210.324 580.106C206.707 568.765 196.735 562.019 186.469 557.228C172.488 550.58 158.019 545.203 143.842 539.043C93.3938 516.947 51.6467 484.684 25.7381 435.017C18.6988 421.427 12.8332 406.762 9.118 391.901C-5.05838 334.999 -3.88545 278.88 21.0454 224.52C40.8923 181.208 74.2313 154.029 118.814 139.168C156.259 126.751 194.095 122.254 233.985 131.639C263.12 57.5304 311.515 5.41947 395.302 0.531012C474.299 -4.06414 540.78 20.6715 582.918 93.9983C589.664 87.7411 595.14 82.3638 601.006 77.3775C651.552 33.9681 709.137 23.8978 771.122 45.7003C807.687 58.5081 833.401 86.2745 853.834 118.832C884.045 167.032 899.394 219.24 898.026 276.24C896.755 328.253 874.854 371.467 841.124 409.499C821.962 431.106 799.28 448.314 773.371 461.121C762.714 466.401 752.156 471.876 741.597 477.351C731.624 482.435 723.705 489.963 720.381 500.424C716.666 512.45 710.017 520.076 697.307 521.543L697.405 521.64ZM432.845 442.154C445.946 413.41 465.988 392.585 489.355 374.693C498.741 367.458 507.931 359.832 517.219 352.5C611.858 278 610.978 138.874 544.301 67.6984C534.426 57.1393 525.236 46.8736 512.33 40.0297C470.485 17.6406 426.392 8.93916 379.561 18.0317C335.956 26.5376 299.391 46.8736 273.776 84.6124C253.929 113.845 242.588 146.109 239.948 181.111C234.278 256.295 257.84 319.552 320.118 364.916C337.717 377.724 357.954 387.012 377.605 396.691C394.422 405.002 407.816 415.463 412.216 434.724C412.705 436.875 414.269 438.83 415.637 441.176C421.21 441.567 426.392 441.861 432.845 442.252V442.154ZM539.314 352.793C551.046 392.683 579.497 415.659 614.302 432.67C627.11 438.928 640.113 444.794 652.823 451.247C667.293 458.677 676.581 470.214 680.882 486.346C685.575 503.749 686.064 503.553 706.302 504.433C709.92 482.533 724.976 470.018 743.845 460.535C758.217 453.3 772.882 446.456 786.081 437.559C858.234 388.381 892.648 320.529 882.089 233.026C876.028 182.87 853.737 138.581 821.767 99.8644C802.995 77.182 779.531 59.6813 749.711 53.1308C721.652 46.9713 693.886 49.4156 666.902 57.7259C640.993 65.6452 617.92 78.9418 599.539 99.6689C593.282 106.708 591.424 113.161 594.749 122.254C598.171 131.639 600.615 141.71 601.983 151.584C604.33 169.183 605.503 186.977 607.165 204.673C638.842 219.827 650.476 236.155 643.535 256.784C630.238 247.789 625.546 227.551 605.894 227.746C581.452 308.015 580.768 309.286 539.314 352.793ZM247.868 303.713C221.372 252.58 220.395 198.122 231.54 142.003C174.542 133.497 124.288 144.643 78.2395 175.342C57.806 188.932 43.3368 206.824 33.56 229.506C11.4644 280.835 9.80228 333.239 23.6854 386.621C30.0403 410.966 38.839 434.43 55.6551 453.691C85.3766 487.714 119.694 515.676 163.005 531.124C172.488 534.546 181.776 538.554 190.966 542.856C205.925 549.896 218.342 559.966 224.208 576C226.75 582.942 231.052 585.093 237.602 585.093C242.197 585.093 246.792 585.093 252.169 585.093C255.396 554.198 269.279 531.124 292.939 513.526C321.389 492.212 336.641 462.295 345.929 429.053C348.471 420.058 349.155 410.575 350.817 400.993C312.688 381.635 281.206 356.215 257.253 322.778C245.814 329.72 248.845 346.438 235.06 349.958C229.292 334.315 230.66 329.426 248.063 303.811L247.868 303.713Z" fill="black"/>
<path d="M432.845 442.154C426.392 441.763 421.113 441.372 415.638 441.079C414.367 438.634 412.705 436.777 412.216 434.626C407.816 415.365 394.52 404.904 377.606 396.594C357.954 386.915 337.717 377.627 320.119 364.819C257.84 319.552 234.278 256.295 239.949 181.013C242.588 146.011 253.929 113.845 273.776 84.5147C299.391 46.678 335.957 26.4398 379.561 17.9339C426.294 8.74361 470.486 17.5428 512.33 39.932C525.236 46.8736 534.426 57.1393 544.301 67.6006C610.979 138.777 611.858 277.902 517.219 352.402C507.833 359.735 498.741 367.361 489.355 374.596C465.989 392.585 446.044 413.41 432.845 442.056V442.154ZM367.634 200.176C365.19 190.203 363.527 177.689 358.932 166.347C353.848 153.931 344.169 153.54 335.663 164.001C333.121 167.13 330.482 170.845 329.602 174.756C324.713 195.776 326.766 216.21 338.01 234.786C340.356 238.599 346.711 242.314 350.719 241.923C354.728 241.532 360.203 236.448 361.474 232.244C364.505 222.76 365.385 212.592 367.634 200.078V200.176ZM463.544 192.256C465.304 204.477 466.282 214.45 468.237 224.227C469.606 230.777 473.126 236.937 480.752 237.23C488.377 237.426 491.799 231.462 494.341 225.107C495.025 223.445 495.612 221.783 496.003 220.12C500.794 200.078 497.079 180.133 494.048 160.384C493.461 156.473 487.497 151.095 483.587 150.704C479.774 150.313 473.027 154.615 471.756 158.233C467.846 169.769 465.891 181.99 463.544 192.158V192.256ZM380.539 279.955C374.673 296.283 379.561 309.286 393.053 318.183C410.26 329.622 433.921 327.275 448.879 312.708C459.438 302.442 461.394 294.327 454.55 282.204C451.323 286.212 448.195 289.341 445.946 292.958C431.867 315.934 406.741 316.912 391 294.914C387.774 290.416 384.645 285.821 380.539 280.053V279.955Z" fill="white"/>
<path d="M539.314 352.793C580.768 309.286 581.452 308.015 605.894 227.746C625.546 227.551 630.238 247.789 643.535 256.784C650.476 236.057 638.842 219.827 607.165 204.673C605.503 186.977 604.33 169.183 601.983 151.584C600.615 141.612 598.171 131.639 594.749 122.254C591.425 113.161 593.282 106.708 599.539 99.6689C617.92 78.9419 640.993 65.6452 666.902 57.7259C693.886 49.4156 721.75 46.9714 749.712 53.1308C779.531 59.6814 802.995 77.182 821.767 99.8644C853.835 138.581 876.125 182.87 882.089 233.026C892.551 320.529 858.234 388.381 786.081 437.559C772.882 446.554 758.119 453.398 743.845 460.535C724.976 470.018 709.92 482.533 706.302 504.433C686.064 503.553 685.575 503.749 680.882 486.346C676.581 470.312 667.293 458.677 652.823 451.247C640.113 444.696 627.11 438.928 614.302 432.67C579.497 415.659 551.144 392.683 539.314 352.793ZM703.663 322.387C703.663 322.387 703.663 321.8 703.663 321.507C687.629 322.387 671.692 323.365 655.658 324.147C646.957 324.538 642.068 328.546 642.948 337.443C644.708 355.042 646.37 372.738 649.206 390.239C650.086 395.714 653.703 401.287 657.223 405.784C670.715 422.796 688.997 429.346 709.528 424.165C731.331 418.592 745.214 402.851 749.712 380.951C752.84 365.992 753.035 350.349 754.404 334.999C755.48 322.485 753.818 320.627 741.01 320.823C728.593 321.116 716.079 321.898 703.663 322.485V322.387ZM753.72 255.122C760.27 246.029 765.843 237.132 772.687 229.213C783.735 216.503 799.084 217.383 808.959 230.777C810.719 233.124 812.087 235.861 813.554 238.403C816.291 243.292 820.006 249.158 825.579 245.54C829.685 242.901 833.498 235.666 833.01 230.973C831.347 215.916 822.646 204.673 808.47 198.611C795.369 192.941 783.148 194.114 772.002 203.891C761.052 213.57 753.72 225.596 748.733 239.185C746.876 244.172 745.116 249.549 753.72 255.122Z" fill="white"/>
<path d="M247.868 303.713C230.465 329.426 229.194 334.315 234.864 349.86C248.65 346.34 245.619 329.524 257.058 322.68C281.011 356.117 312.493 381.537 350.622 400.896C349.058 410.477 348.276 419.961 345.734 428.955C336.446 462.295 321.291 492.212 292.743 513.428C269.181 531.026 255.2 554.198 251.974 584.995C246.694 584.995 242.099 584.995 237.407 584.995C230.856 584.995 226.554 582.844 224.012 575.902C218.146 559.868 205.729 549.798 190.771 542.759C181.679 538.457 172.293 534.448 162.809 531.026C119.498 515.579 85.2795 487.617 55.4602 453.593C38.6441 434.333 29.747 410.868 23.4899 386.524C9.60678 333.142 11.2689 280.737 33.3645 229.409C43.1413 206.726 57.6111 188.932 78.0446 175.244C124.093 144.447 174.346 133.301 231.345 141.905C220.297 198.025 221.177 252.482 247.672 303.615L247.868 303.713ZM165.058 436.972C163.591 437.559 162.027 438.243 160.561 438.83C158.801 451.051 163.103 461.023 172.88 469.334C184.319 479.111 198.202 481.359 212.476 483.706C242.491 488.79 271.039 473.049 277.687 435.799C278.86 429.249 281.696 419.472 272.31 417.81C263.217 416.245 264.684 426.022 263.608 432.084C260.871 447.434 255.005 460.535 239.264 466.792C219.026 474.809 186.274 465.032 173.564 447.336C170.924 443.718 167.991 440.297 165.254 436.777L165.058 436.972ZM160.756 367.947C162.223 367.165 163.689 366.383 165.254 365.601C164.08 359.637 164.08 352.989 161.343 347.807C152.544 330.991 139.541 319.845 119.009 320.627C98.1849 321.507 84.8879 332.848 76.9687 351.131C74.2312 357.584 70.0274 366.09 77.751 370.294C86.7457 375.28 89.19 365.503 92.5141 359.539C92.8074 359.05 93.003 358.464 93.1986 357.877C105.517 334.804 125.658 332.359 143.256 351.815C146.384 355.335 148.926 359.539 152.348 362.766C154.597 365.014 157.921 366.09 160.756 367.752V367.947Z" fill="white"/>
<path d="M367.633 200.176C365.385 212.592 364.505 222.76 361.474 232.342C360.105 236.448 354.728 241.63 350.719 242.021C346.613 242.412 340.258 238.697 338.009 234.884C326.668 216.307 324.713 195.874 329.601 174.853C330.481 171.04 333.121 167.325 335.663 164.099C344.169 153.638 353.848 154.029 358.932 166.445C363.625 177.689 365.189 190.301 367.633 200.273V200.176Z" fill="black"/>
<path d="M463.544 192.256C465.891 182.088 467.846 169.867 471.756 158.33C473.027 154.615 479.773 150.411 483.586 150.802C487.497 151.193 493.461 156.571 494.048 160.481C497.078 180.231 500.794 200.078 496.003 220.218C495.612 221.978 494.927 223.64 494.341 225.204C491.799 231.462 488.475 237.523 480.751 237.328C473.028 237.132 469.508 230.973 468.237 224.325C466.281 214.548 465.304 204.575 463.544 192.354V192.256Z" fill="black"/>
<path d="M380.539 279.955C384.645 285.821 387.774 290.319 391 294.816C406.741 316.814 431.867 315.836 445.946 292.861C448.195 289.243 451.323 286.115 454.55 282.106C461.393 294.229 459.438 302.442 448.879 312.61C433.92 327.178 410.26 329.426 393.053 318.085C379.561 309.188 374.673 296.185 380.539 279.857V279.955Z" fill="black"/>
<path d="M703.663 322.387C716.079 321.8 728.594 321.018 741.01 320.725C753.818 320.432 755.578 322.387 754.404 334.901C753.036 350.251 752.743 365.894 749.712 380.853C745.214 402.753 731.331 418.592 709.529 424.067C688.997 429.249 670.715 422.698 657.223 405.686C653.605 401.189 650.086 395.616 649.206 390.141C646.371 372.64 644.708 355.042 642.948 337.346C642.069 328.449 646.957 324.44 655.658 324.049C671.692 323.365 687.629 322.289 703.663 321.409C703.663 321.703 703.663 321.996 703.663 322.289V322.387ZM655.561 339.497C658.592 355.14 660.351 369.805 664.458 383.884C672.572 411.357 704.054 418.396 723.901 397.767C740.326 380.755 736.219 359.93 736.317 339.594H655.658L655.561 339.497Z" fill="black"/>
<path d="M753.72 255.122C745.018 249.451 746.876 244.172 748.734 239.185C753.72 225.596 760.955 213.57 772.002 203.891C783.05 194.114 795.271 192.941 808.47 198.611C822.744 204.771 831.348 215.916 833.01 230.973C833.498 235.666 829.685 242.803 825.579 245.54C820.006 249.158 816.291 243.292 813.554 238.403C812.087 235.763 810.719 233.124 808.959 230.777C799.084 217.383 783.735 216.405 772.687 229.213C765.843 237.034 760.27 246.029 753.72 255.122Z" fill="black"/>
<path d="M165.058 436.972C167.893 440.492 170.826 443.816 173.368 447.531C186.078 465.228 218.928 475.005 239.068 466.987C254.809 460.73 260.675 447.629 263.412 432.279C264.488 426.218 263.022 416.441 272.114 418.005C281.5 419.569 278.664 429.346 277.491 435.995C270.941 473.245 242.393 488.986 212.28 483.902C198.104 481.555 184.123 479.209 172.684 469.529C162.907 461.219 158.605 451.149 160.365 439.025C161.832 438.439 163.396 437.755 164.863 437.168L165.058 436.972Z" fill="black"/>
<path d="M160.756 367.947C157.92 366.285 154.596 365.21 152.348 362.961C148.926 359.637 146.482 355.531 143.255 352.011C125.657 332.555 105.517 334.999 93.1982 358.073C92.9049 358.562 92.807 359.148 92.5137 359.735C89.1896 365.699 86.7453 375.378 77.7507 370.489C70.027 366.285 74.2308 357.682 76.9684 351.327C84.8876 332.946 98.1845 321.605 119.009 320.823C139.443 319.943 152.445 331.186 161.342 348.002C164.08 353.184 163.982 359.833 165.253 365.796C163.787 366.579 162.32 367.361 160.756 368.143V367.947Z" fill="black"/>
<path d="M655.561 339.497H736.219C736.219 359.93 740.228 380.657 723.803 397.669C703.956 418.298 672.474 411.259 664.36 383.786C660.253 369.805 658.494 355.042 655.463 339.399L655.561 339.497Z" fill="white"/>
</svg>
