<svg width="417" height="1001" viewBox="0 0 417 1001" fill="none" xmlns="http://www.w3.org/2000/svg">
<path d="M250.625 220.95C250.625 287.628 250.625 354.405 250.527 421.083C250.527 428.905 252.189 435.455 256.589 442.201C262.455 451.098 266.464 461.169 271.547 470.554C276.338 479.354 280.249 488.642 289.341 494.41C293.936 497.343 294.816 502.623 294.914 507.804C295.305 519.146 296.772 530.585 295.501 541.73C294.328 551.8 297.358 560.013 301.074 568.812C316.423 605.378 331.577 641.944 346.242 678.705C353.966 698.063 358.463 718.203 361.005 739.028C365.013 772.759 357.876 804.24 342.136 833.767C323.755 868.181 283.475 887.833 245.052 881.576C187.369 872.19 148.066 839.339 125.775 785.86C108.665 744.797 110.328 703.636 126.949 662.768C135.259 642.237 146.404 623.27 159.212 605.28C169.087 591.495 179.255 577.807 189.813 564.51C195.582 557.178 198.612 549.943 197.439 540.264C196.461 532.833 197.341 525.207 198.026 517.679C198.514 512.009 199.981 506.142 204.967 502.72C210.54 498.81 212.984 493.139 215.429 487.371C219.633 477.496 223.641 467.621 227.552 457.747C231.56 447.676 233.223 437.215 233.223 426.363C233.223 412.48 233.613 398.694 233.613 384.811C233.711 283.522 233.907 182.135 233.809 80.8466C233.809 61.3905 232.635 41.8369 232.147 22.3808C232.049 17.3946 232.049 12.3106 232.733 7.42216C233.418 2.72924 238.209 -0.594912 242.217 0.0894722C246.421 0.871625 248.963 3.80469 249.354 7.71545C250.038 13.9727 250.234 20.2298 250.234 26.5848C250.527 84.4641 250.625 142.344 250.821 200.223C250.821 207.164 250.821 214.106 250.821 220.95H250.625ZM215.624 558.351C198.123 582.696 179.841 606.747 163.22 631.873C154.617 644.877 147.48 659.249 142.005 673.816C124.7 719.084 129.49 762.786 155.203 803.849C175.343 836.015 204.674 855.08 241.533 862.804C270.667 868.963 313.49 858.6 331.186 816.364C342.331 789.673 347.709 762.102 342.234 733.455C339.301 718.106 336.074 702.463 330.501 687.895C315.836 649.765 299.802 612.124 284.159 574.385C282.302 569.79 279.662 565.586 277.315 561.186C268.81 559.231 260.891 558.155 251.896 560.208C248.67 581.424 244.368 602.054 263.042 619.457C269.299 625.323 274.089 633.242 278.196 640.966C283.866 651.427 289.439 662.182 293.057 673.425C295.696 681.54 296.967 690.926 295.892 699.334C293.154 721.039 271.449 730.229 253.558 717.813C248.963 714.684 245.346 710.186 241.63 705.982C239.284 703.342 237.524 700.116 234.982 696.401C228.627 702.463 223.739 708.231 217.775 712.533C200.275 725.438 180.232 716.542 177.397 694.935C175.832 682.713 178.374 671.177 183.947 660.226C190.302 647.81 198.71 636.86 208.585 627.083C213.473 622.194 218.459 617.404 223.543 612.711C227.943 608.702 230.485 604.009 230.485 597.948C230.583 586.606 231.267 575.363 231.462 564.022C231.462 562.36 230.29 560.6 229.605 558.449H215.527L215.624 558.351ZM241.337 621.412C226.085 634.22 212.887 646.539 203.208 662.279C198.124 670.492 194.897 679.194 194.799 688.873C194.799 694.054 195.875 699.041 202.327 700.41C212.104 697.183 216.504 688.677 221.392 680.66C225.01 674.794 227.943 668.537 231.756 662.768C233.907 659.542 237.72 657.196 241.435 658.858C244.466 660.324 247.692 663.453 248.767 666.484C250.527 671.763 250.332 677.629 251.407 683.104C253.069 691.317 256.491 698.552 263.921 703.343C269.396 706.862 275.947 705.298 277.511 698.943C278.587 694.348 278.489 688.971 277.511 684.375C272.134 660.422 258.446 641.161 241.435 621.412H241.337ZM275.654 508.782C254.731 505.262 236.156 512.497 216.7 516.604C216.211 521.981 215.624 526.185 215.527 530.487C215.527 532.833 216.309 535.18 216.7 537.233C231.854 540.068 265.975 541.633 277.218 539.873C279.662 529.705 278.098 519.537 275.654 508.684V508.782ZM246.225 461.657C241.826 471.63 238.893 478.18 236.058 484.829C234.787 487.664 233.711 490.597 237.426 493.237C244.27 491.868 251.407 490.401 259.033 488.837C257.273 479.451 252.189 472.51 246.323 461.657H246.225Z" fill="black"/>
<path d="M241.826 963.995C241.826 972.11 242.022 980.225 241.728 988.339C241.631 991.272 240.751 994.499 239.382 997.139C237.133 1001.64 229.312 1001.93 226.77 997.53C225.205 994.988 223.739 991.761 223.837 988.926C224.423 972.11 225.303 955.293 226.379 938.477C226.476 936.033 227.063 933.1 228.627 931.536C230.583 929.58 233.711 928.016 236.351 927.82C238.013 927.82 240.653 930.363 241.435 932.318C242.608 935.055 242.706 938.379 242.804 941.508C242.999 948.938 242.804 956.467 242.804 963.995C242.413 963.995 242.119 963.995 241.728 963.995H241.826Z" fill="black"/>
<path d="M25.0741 752.423C18.0348 751.64 11.68 751.445 5.61839 750.076C1.80543 749.196 -0.345541 745.677 0.0455312 741.375C0.436604 736.877 3.56518 734.335 7.37814 734.14C22.4344 733.162 37.4907 732.576 52.547 732.087C54.8934 732.087 57.3379 733.064 59.5866 734.14C63.1062 735.704 63.5947 741.375 60.4662 743.721C58.5108 745.188 56.3602 746.85 54.0137 747.339C44.2369 749.392 34.2643 750.956 25.0741 752.618V752.423Z" fill="black"/>
<path d="M104.169 928.603C101.627 925.278 98.987 922.736 97.8138 919.706C97.1294 917.848 98.2048 914.622 99.5735 912.764C107.884 901.814 116.488 891.157 125.091 880.5C126.558 878.642 128.904 876.98 131.153 876.296C133.304 875.709 136.53 875.612 137.996 876.883C139.561 878.056 139.756 881.185 140.148 883.433C140.343 884.509 139.854 885.975 139.17 886.953C130.469 899.174 121.865 911.395 112.87 923.323C111.208 925.572 107.786 926.452 104.169 928.603Z" fill="black"/>
<path d="M96.5425 812.453C94.7827 815.484 94.0983 818.417 92.2407 819.59C81.2907 826.727 70.1454 833.375 58.902 840.121C57.9243 840.708 56.1646 841.099 55.2847 840.708C52.6449 839.339 49.8096 837.873 47.952 835.722C45.6056 832.984 46.8766 829.562 49.2231 827.314C51.374 825.163 54.1111 823.501 56.7508 821.838C63.6924 817.634 70.5364 813.235 77.7712 809.617C81.4864 807.76 85.9838 806.587 90.0901 806.684C92.1432 806.684 94.196 810.204 96.4446 812.355L96.5425 812.453Z" fill="black"/>
<path d="M52.7427 671.176C61.444 672.741 70.0479 674.207 78.6515 675.967C80.9979 676.456 83.5397 677.629 85.2018 679.194C86.8638 680.758 89.0144 683.593 88.5256 685.255C87.7434 687.895 85.1038 689.948 83.1484 692.197C82.7574 692.588 81.9754 692.881 81.4865 692.881C68.8744 692.979 56.5554 691.61 45.1165 685.94C41.4013 684.082 40.1303 679.878 42.0857 676.261C43.3567 673.914 46.5833 672.643 49.1253 671.176C50.103 670.688 51.5695 671.176 52.7427 671.176Z" fill="black"/>
<path d="M416.342 673.62C414.778 677.042 414.289 679.78 412.627 681.246C407.934 685.451 402.948 689.166 397.962 692.979C393.953 696.01 390.14 699.432 385.643 701.583C383.296 702.756 379.288 702.462 376.941 701.191C373.226 699.138 373.129 695.032 374.4 691.121C374.791 689.948 375.182 688.579 376.062 687.797C384.763 679.291 394.54 672.545 406.37 669.514C409.009 668.83 412.529 671.958 416.44 673.62H416.342Z" fill="black"/>
<path d="M342.625 960.28C342.136 963.506 336.759 966.439 333.728 964.777C323.462 959.204 316.325 950.698 311.926 940.139C311.144 938.184 313.295 934.273 315.152 932.22C316.423 930.851 320.333 930.069 321.898 930.949C332.359 937.304 338.91 946.983 342.918 958.422C343.114 958.911 342.82 959.595 342.722 960.28H342.625Z" fill="black"/>
<path d="M402.753 850.387C393.562 847.161 384.666 844.619 376.16 840.904C372.738 839.437 370.88 835.037 373.226 831.322C374.693 829.074 377.822 827.803 380.364 826.434C381.342 825.945 382.906 826.14 383.981 826.434C391.607 829.074 399.331 831.518 406.761 834.646C410.379 836.113 413.214 839.828 411.454 843.543C410.085 846.281 406.174 847.747 402.655 850.289L402.753 850.387Z" fill="black"/>
<path d="M414.582 767.968C415.267 772.172 410.671 776.963 405.196 777.647C400.503 778.234 396.104 775.3 395.419 771.096C394.637 766.892 397.961 762.688 402.556 761.906C408.325 760.928 413.898 763.764 414.582 768.065V767.968Z" fill="black"/>
<path d="M215.624 558.351H229.703C230.485 560.502 231.658 562.164 231.56 563.924C231.365 575.265 230.779 586.508 230.583 597.85C230.583 604.009 228.041 608.604 223.641 612.613C218.557 617.306 213.571 622.096 208.683 626.985C198.808 636.762 190.4 647.712 184.045 660.128C178.472 671.079 175.833 682.615 177.495 694.837C180.33 716.444 200.373 725.34 217.873 712.435C223.739 708.133 228.628 702.365 235.081 696.303C237.623 700.018 239.382 703.245 241.729 705.885C245.444 710.089 249.159 714.586 253.656 717.715C271.548 730.131 293.252 720.941 295.99 699.236C297.065 690.828 295.795 681.442 293.155 673.327C289.44 662.084 283.964 651.329 278.294 640.868C274.09 633.144 269.397 625.225 263.14 619.359C244.466 601.956 248.768 581.229 251.994 560.111C260.989 558.058 268.908 559.231 277.414 561.089C279.76 565.488 282.4 569.692 284.258 574.287C299.9 612.026 315.934 649.667 330.6 687.797C336.172 702.365 339.399 717.91 342.332 733.358C347.807 762.102 342.43 789.575 331.284 816.266C313.588 858.502 270.766 868.865 241.631 862.706C204.87 854.884 175.442 835.917 155.301 803.751C129.588 762.59 124.896 718.986 142.103 673.718C147.676 659.151 154.715 644.779 163.318 631.775C179.939 606.649 198.222 582.598 215.722 558.253L215.624 558.351Z" fill="white"/>
<path d="M241.337 621.412C258.349 641.161 272.036 660.422 277.414 684.375C278.489 689.068 278.489 694.348 277.414 698.943C275.947 705.2 269.397 706.862 263.824 703.342C256.394 698.552 252.972 691.317 251.31 683.104C250.234 677.629 250.43 671.665 248.67 666.484C247.692 663.355 244.368 660.324 241.337 658.858C237.622 657.098 233.809 659.444 231.658 662.768C227.943 668.537 224.912 674.794 221.295 680.66C216.406 688.579 211.909 697.183 202.23 700.409C195.777 699.041 194.702 694.054 194.702 688.872C194.702 679.291 198.026 670.492 203.11 662.279C212.789 646.538 225.987 634.22 241.239 621.412H241.337Z" fill="white"/>
<path d="M275.654 508.782C278.098 519.634 279.662 529.802 277.218 539.97C265.975 541.632 231.854 540.068 216.7 537.33C216.309 535.277 215.429 532.931 215.527 530.584C215.527 526.282 216.211 521.981 216.7 516.701C236.156 512.595 254.731 505.36 275.654 508.879V508.782Z" fill="white"/>
<path d="M246.226 461.657C252.189 472.412 257.176 479.451 258.936 488.837C251.31 490.401 244.173 491.868 237.329 493.237C233.614 490.597 234.787 487.762 235.96 484.828C238.795 478.18 241.728 471.63 246.128 461.657H246.226Z" fill="white"/>
</svg>
