<svg width="630" height="910" viewBox="0 0 630 910" fill="none" xmlns="http://www.w3.org/2000/svg">
<path d="M140.097 839.814C125.334 853.306 110.278 866.896 94.7326 881.072C89.1598 865.625 89.2579 865.331 130.516 827.69C124.845 820.358 119.077 813.025 113.211 805.497C91.6041 811.363 78.6986 830.135 59.9271 841.378C56.7008 821.433 57.3855 820.651 103.63 789.169C99.6213 781.25 95.4174 773.037 90.3335 763.065C72.2464 769.42 54.8434 775.579 36.9519 781.934C35.192 765.02 37.7338 763.065 82.5116 745.858C82.1205 742.338 82.3161 738.232 81.3384 734.516C69.0196 690.911 65.207 646.915 74.3972 602.235C75.766 595.782 73.9082 591.285 69.8997 586.103C47.8041 557.848 30.6948 526.561 16.2251 493.809C7.42595 474.157 1.26632 453.626 0.0930991 432.019C-1.66673 398.484 21.6999 375.802 55.1366 376.29C89.6487 376.877 122.01 386.165 154.078 397.604C159.553 399.559 165.126 401.417 172.263 403.763C173.436 398.386 175 394.084 175.293 389.587C179.009 340.8 189.959 293.284 201.691 245.964C216.747 185.445 231.804 124.828 247.251 64.407C251.162 48.8617 255.464 33.3163 261.33 18.4554C270.227 -4.03155 288.509 -6.18255 303.37 13.1757C308.747 20.2151 312.854 28.2322 316.862 36.1515C341.988 86.9915 357.436 141.449 375.621 194.928C396.348 255.741 416.879 316.553 437.605 377.268C438.388 379.419 439.854 381.277 441.028 383.33C457.844 373.748 473.878 363.483 490.889 355.172C515.722 343.049 541.827 335.032 569.984 337.28C593.937 339.236 602.345 347.937 604.496 371.891C608.406 417.158 596.479 459.101 578.294 499.773C573.21 511.114 563.629 521.771 562.651 533.308C561.674 544.844 568.81 556.968 572.33 568.895C584.942 612.305 583.475 655.812 573.796 699.515C572.623 704.697 571.548 709.879 570.277 715.94C584.942 721.904 599.216 727.379 613.197 733.441C618.086 735.494 622.779 738.329 626.787 741.654C628.547 743.12 629.72 748.009 628.645 749.377C626.885 751.724 622.876 753.972 620.236 753.581C615.641 752.995 611.437 750.257 607.038 748.497C593.937 743.316 580.738 738.134 566.269 732.463C562.553 741.947 559.62 749.573 556.296 758.177C567.344 764.727 577.903 770.887 588.266 777.437C592.764 780.272 597.456 783.401 600.683 787.409C602.833 790.049 602.638 794.644 603.42 798.359C599.705 798.555 595.11 800.12 592.275 798.555C585.04 794.547 578.783 788.876 571.646 784.574C564.606 780.272 557.078 776.948 548.573 772.549C542.706 782.032 537.525 790.538 531.463 800.315C539.285 806.377 546.813 811.852 554.048 817.718C559.132 821.824 564.606 825.833 568.321 831.014C570.57 834.143 569.984 839.423 570.57 843.725C566.366 843.333 561.869 843.529 557.86 842.258C555.318 841.476 553.656 838.249 551.31 836.392C542.12 828.961 532.929 821.629 523.837 814.394C515.136 822.606 507.216 829.646 499.786 837.076C462.927 873.642 419.421 898.573 367.995 906.981C347.757 910.305 326.248 910.305 305.814 907.959C246.86 901.311 191.816 883.81 146.745 842.845C145.865 842.062 144.692 841.769 140.097 839.521V839.814ZM185.07 429.574C94.7325 495.569 59.0473 659.039 100.305 743.805C112.429 747.911 128.658 740.676 138.924 757.492C127.192 759.545 117.611 761.208 105.976 763.163C111.158 771.278 115.166 777.633 118.49 782.912C131.298 784.379 143.03 775.482 156.327 787.116C146.746 791.222 139.022 794.547 129.343 798.751C135.893 806.377 141.368 812.927 146.061 818.305C156.424 819.184 164.93 809.016 174.414 818.891C169.232 823.388 165.028 827.006 159.358 831.895C217.53 878.824 282.741 901.408 354.6 893.098C415.217 886.156 465.959 855.359 505.848 806.768C499.004 802.368 493.92 798.946 487.467 794.742C497.831 785.258 508.292 794.742 518.558 790.929C522.566 784.183 527.161 776.655 531.365 769.615C525.206 761.305 512.789 764.629 505.945 753.386H540.946C543.391 746.053 545.737 738.525 548.573 730.019C536.254 727.966 526.379 726.304 514.549 724.349C521.393 718.156 534.103 714.017 552.679 711.932C592.861 612.305 531.268 454.799 433.011 407.381C427.633 411.194 421.963 415.3 415.901 419.602C416.39 424.099 417.27 428.206 417.367 432.214C417.563 450.008 418.834 467.9 417.269 485.596C415.901 500.653 403.875 511.31 392.241 511.994C380.215 512.678 368.874 503.781 364.866 488.334C361.64 475.721 360.271 462.62 357.925 449.813C357.631 448.151 356.653 446.684 355.578 444.142C350.494 445.218 345.508 446.293 339.935 447.466C339.935 459.785 340.717 471.126 339.739 482.174C338.86 491.462 337.589 501.337 333.678 509.647C324.39 529.397 301.121 531.059 289.78 512.385C284.11 503.097 281.861 491.462 279.71 480.61C277.853 471.517 278.243 462.034 277.559 452.355H257.517C256.93 460.078 256.832 466.629 255.855 473.082C254.779 480.121 253.606 487.161 251.455 493.907C248.229 503.879 241.091 509.843 230.435 510.332C219.68 510.821 212.055 504.857 208.242 495.471C205.602 489.018 204.233 481.783 203.842 474.744C203.158 462.425 203.646 450.008 203.646 437.787C197.096 434.756 191.719 432.214 185.657 429.379L185.07 429.574ZM223.494 226.313C217.921 249.386 213.032 270.504 207.752 291.622C205.406 300.813 208.242 307.168 215.281 313.425C263.676 356.737 317.938 389.587 379.923 410.021C394.294 414.713 405.049 410.901 416.781 404.252C425.384 399.364 428.513 393.204 425.189 383.721C419.323 366.904 413.554 350.088 408.177 333.076C406.124 326.526 401.725 323.984 395.663 321.931C383.344 317.727 371.026 313.132 359 308.243C310.703 288.689 268.76 258.479 223.591 226.313H223.494ZM385.398 276.957C385.104 272.557 385.3 270.7 384.811 269.135C375.23 240.391 365.257 211.843 355.969 183.001C353.525 175.375 348.245 173.419 341.793 171.464C315.982 163.545 292.615 150.639 270.617 135.29C264.067 130.694 257.712 125.806 249.598 119.842C244.22 143.6 239.332 165.402 234.346 187.498C278.244 227.681 330.06 253.492 385.495 277.055L385.398 276.957ZM80.2631 569.482C83.4894 558.63 84.8582 551.688 87.5957 545.235C91.5064 536.241 90.7242 529.103 85.0536 520.597C72.246 501.044 64.7177 479.143 61.6869 455.874C59.6338 440.133 63.1538 435.538 78.6012 432.214C96.395 428.401 114.091 429.77 131.2 435.832C140.782 439.254 148.31 439.156 154.176 429.672C156.522 425.859 159.65 422.535 163.072 418.233C156.62 415.691 151.829 413.442 146.745 411.878C131.396 407.185 116.242 401.71 100.599 398.68C85.5427 395.844 69.9976 394.084 54.7457 394.671C24.6332 395.844 12.7052 410.803 18.4736 439.938C27.6638 486.769 51.0303 527.05 80.1652 569.482H80.2631ZM553.363 517.469C576.534 475.526 590.026 425.566 589.048 385.285C588.168 349.893 584.16 349.208 550.43 353.608C515.038 358.203 483.459 373.846 455.204 395.648C454.421 396.235 454.226 397.604 453.151 399.95C457.062 402.59 461.168 405.425 465.078 408.163C488.836 391.053 514.06 381.179 542.12 379.81C557.176 379.028 560.793 383.036 561.771 398.191C563.922 431.628 558.153 463.305 538.991 492.147C543.488 500.262 547.79 507.887 553.265 517.567L553.363 517.469ZM196.607 343.147C194.359 363.287 192.11 381.57 190.252 399.853C188.883 413.052 190.252 414.909 202.082 420.189C234.346 434.658 268.369 438.178 303.174 436.907C309.725 436.712 316.178 434.854 324.781 433.388C300.73 419.113 278.439 407.772 258.201 393.498C237.474 378.93 218.801 361.527 196.607 343.244V343.147ZM334.754 132.65C333.092 99.9947 297.797 24.6149 279.905 14.2513C270.324 30.6766 261.134 64.4068 259.667 89.338C281.567 108.501 307.672 120.624 334.656 132.552L334.754 132.65ZM532.441 477.677C543.488 451.377 549.55 425.664 545.835 397.213C520.415 397.799 500.275 407.674 479.646 417.451C497.048 437.396 513.865 456.461 532.441 477.677ZM75.3747 450.595C76.5479 474.451 83.8807 495.373 96.9816 516.589C109.887 494.689 121.619 474.548 134.036 453.43C114.677 445.706 96.0037 444.338 75.3747 450.595ZM369.656 440.036C373.176 455.385 376.109 469.269 379.531 483.152C380.998 489.018 383.442 495.178 390.775 495.178C398.792 495.178 402.018 488.529 403.191 482.077C406.32 463.989 406.124 446 398.694 427.912C388.917 432.019 380.215 435.734 369.656 440.134V440.036ZM320.968 449.031C310.018 450.497 300.73 451.67 289.487 453.137C292.322 467.9 294.473 481.783 297.895 495.275C299.655 502.119 303.468 509.256 311.876 509.256C321.164 509.256 322.923 500.75 323.803 494.2C325.661 479.73 325.856 465.065 320.87 449.128L320.968 449.031ZM214.206 442.089C216.161 458.123 217.236 472.104 219.876 485.694C220.561 489.214 225.742 494.102 229.066 494.2C232.097 494.298 237.474 489.214 237.963 485.792C239.918 473.962 240.114 461.838 241.092 449.324C231.413 446.782 224.276 444.826 214.206 442.187V442.089Z" fill="black"/>
<path d="M185.07 429.574C191.132 432.41 196.412 434.854 203.06 437.983C203.06 450.204 202.571 462.62 203.256 474.939C203.647 481.979 205.016 489.213 207.655 495.666C211.566 505.052 219.094 511.016 229.848 510.527C240.505 510.038 247.642 503.977 250.869 494.102C253.02 487.356 254.291 480.316 255.268 473.277C256.246 466.824 256.344 460.274 256.93 452.55H276.973C277.559 462.131 277.266 471.713 279.124 480.805C281.372 491.658 283.621 503.39 289.194 512.58C300.535 531.254 323.803 529.592 333.091 509.843C337.002 501.533 338.371 491.658 339.153 482.37C340.131 471.224 339.349 459.883 339.349 447.662C344.921 446.488 349.907 445.413 354.991 444.337C356.067 446.879 357.045 448.346 357.338 450.008C359.685 462.816 360.955 475.917 364.279 488.529C368.288 503.977 379.629 512.874 391.654 512.189C403.289 511.505 415.314 500.848 416.683 485.791C418.345 468.193 417.074 450.204 416.781 432.41C416.781 428.303 415.901 424.295 415.315 419.797C421.376 415.495 427.047 411.389 432.424 407.576C530.779 454.994 592.373 612.5 552.092 712.127C533.516 714.278 520.806 718.417 513.962 724.544C525.89 726.499 535.765 728.161 547.986 730.214C545.249 738.72 542.804 746.249 540.36 753.581H505.359C512.202 764.727 524.619 761.403 530.779 769.811C526.477 776.948 521.98 784.476 517.971 791.124C507.706 795.035 497.244 785.454 486.881 794.938C493.334 799.142 498.515 802.563 505.261 806.963C465.371 855.554 414.63 886.352 354.014 893.293C282.154 901.604 216.943 879.019 158.771 832.09C164.442 827.201 168.646 823.584 173.827 819.087C164.344 809.212 155.838 819.38 145.474 818.5C140.879 813.122 135.307 806.572 128.756 798.946C138.435 794.742 146.061 791.516 155.74 787.312C142.541 775.677 130.711 784.574 117.904 783.107C114.579 777.828 110.571 771.473 105.39 763.358C117.024 761.305 126.605 759.643 138.337 757.687C128.072 740.871 111.94 748.106 99.8167 744C58.5586 659.234 94.2438 495.764 184.582 429.77L185.07 429.574ZM317.351 773.819C317.644 787.214 315.982 800.901 310.116 806.67C304.641 811.949 296.721 814.687 289.584 818.695C287.825 825.05 292.224 828.081 297.504 829.841C310.996 834.534 317.547 822.997 324.879 816.838C331.234 821.14 336.122 825.735 341.989 827.983C348.735 830.623 355.969 830.721 358.218 819.087C337.784 818.402 337.295 803.248 335.438 789.071C334.851 784.476 334.362 779.783 333.776 774.699C337.002 773.233 339.544 771.864 342.184 770.789C363.888 762.283 374.937 746.249 376.305 723.371C376.892 713.496 373.274 708.216 364.084 704.697C336.318 694.235 309.236 696.777 282.448 707.63C272.573 711.638 271.4 715.06 274.43 725.815C280.981 748.888 294.669 765.802 317.449 773.819H317.351ZM248.913 667.544C251.944 656.203 248.033 650.337 243.047 644.96C223.689 624.232 199.443 614.26 171.383 614.945C154.762 615.336 140 621.886 129.832 635.77C123.672 644.08 123.281 654.052 127.778 658.843C133.84 665.296 143.422 667.74 152.025 663.145C176.565 650.044 201.202 652.684 226.133 661.385C233.172 663.829 240.505 665.296 248.815 667.642L248.913 667.544ZM475.442 627.361C478.961 624.624 486.001 621.789 488.054 616.802C489.618 612.989 486.196 604.972 482.481 601.746C476.909 596.955 469.478 593.142 462.243 591.676C436.432 586.592 395.37 606.341 382.171 629.121C380.705 631.663 379.043 634.401 378.652 637.236C378.065 642.124 376.403 648.968 378.847 651.804C383.54 657.083 388.233 651.119 392.339 648.088C395.174 645.937 398.01 643.689 400.747 641.44C419.812 625.895 441.223 619.344 465.665 625.406C468.011 625.992 470.358 626.286 475.442 627.263V627.361Z" fill="white"/>
<path d="M223.494 226.312C268.76 258.479 310.605 288.787 358.902 308.243C371.026 313.132 383.247 317.727 395.565 321.931C401.529 323.984 405.929 326.526 408.08 333.076C413.457 350.088 419.225 366.904 425.092 383.721C428.416 393.204 425.287 399.364 416.683 404.252C404.951 410.9 394.197 414.713 379.825 410.02C317.84 389.684 263.578 356.737 215.183 313.425C208.242 307.168 205.407 300.812 207.655 291.622C212.935 270.504 217.921 249.288 223.396 226.312H223.494Z" fill="white"/>
<path d="M385.398 276.957C329.963 253.394 278.146 227.583 234.248 187.4C239.234 165.304 244.122 143.502 249.5 119.744C257.614 125.708 263.97 130.694 270.52 135.192C292.518 150.541 315.884 163.447 341.695 171.366C348.148 173.322 353.427 175.277 355.871 182.903C365.159 211.745 375.132 240.293 384.713 269.038C385.202 270.602 385.006 272.459 385.3 276.859L385.398 276.957Z" fill="white"/>
<path d="M80.263 569.482C51.1281 527.05 27.8593 486.769 18.5713 439.938C12.803 410.9 24.8287 395.844 54.8435 394.671C70.0953 394.084 85.7382 395.844 100.697 398.68C116.34 401.71 131.493 407.185 146.843 411.878C151.927 413.442 156.717 415.691 163.17 418.233C159.748 422.633 156.62 425.957 154.273 429.672C148.407 439.058 140.879 439.156 131.298 435.832C114.188 429.77 96.4927 428.401 78.6989 432.214C63.2516 435.538 59.7315 440.133 61.7846 455.874C64.7177 479.143 72.246 501.044 85.1514 520.597C90.7241 529.103 91.5064 536.338 87.6934 545.235C84.9559 551.59 83.5872 558.63 80.3608 569.482H80.263Z" fill="white"/>
<path d="M553.363 517.469C547.888 507.79 543.586 500.164 539.089 492.049C558.251 463.207 564.02 431.53 561.869 398.093C560.891 382.938 557.274 379.028 542.217 379.712C514.158 381.081 488.934 390.956 465.176 408.065C461.265 405.328 457.159 402.59 453.249 399.853C454.324 397.506 454.519 396.137 455.301 395.551C483.654 373.748 515.233 358.105 550.527 353.51C584.257 349.11 588.364 349.893 589.146 385.187C590.124 425.566 576.632 475.428 553.461 517.371L553.363 517.469Z" fill="white"/>
<path d="M196.607 343.146C218.8 361.429 237.474 378.832 258.201 393.4C278.439 407.674 300.73 419.015 324.781 433.29C316.177 434.756 309.724 436.516 303.174 436.809C268.369 438.08 234.346 434.56 202.082 420.091C190.252 414.811 188.883 412.954 190.252 399.755C192.11 381.472 194.358 363.287 196.607 343.049V343.146Z" fill="white"/>
<path d="M334.754 132.65C307.77 120.624 281.567 108.501 259.765 89.4358C261.232 64.4069 270.422 30.6763 280.003 14.3489C297.895 24.6146 333.189 100.093 334.851 132.747L334.754 132.65Z" fill="white"/>
<path d="M532.441 477.677C513.767 456.363 497.048 437.298 479.646 417.451C500.275 407.772 520.415 397.799 545.835 397.213C549.55 425.663 543.488 451.377 532.441 477.677Z" fill="white"/>
<path d="M75.3745 450.595C96.0036 444.338 114.677 445.706 134.035 453.43C121.619 474.548 109.887 494.591 96.9815 516.589C83.8806 495.471 76.5477 474.548 75.3745 450.595Z" fill="white"/>
<path d="M369.656 440.036C380.118 435.636 388.819 431.921 398.694 427.814C406.124 445.902 406.32 463.891 403.191 481.979C402.116 488.431 398.792 494.982 390.775 495.08C383.442 495.08 380.998 488.92 379.531 483.054C376.109 469.269 373.176 455.287 369.656 439.938V440.036Z" fill="white"/>
<path d="M320.968 449.03C325.954 464.967 325.759 479.632 323.901 494.102C323.021 500.652 321.261 509.256 311.974 509.158C303.565 509.158 299.655 502.021 297.993 495.178C294.571 481.685 292.517 467.9 289.584 453.039C300.828 451.573 310.018 450.399 321.066 448.933L320.968 449.03Z" fill="white"/>
<path d="M214.206 442.089C224.276 444.729 231.413 446.684 241.092 449.226C240.212 461.74 239.919 473.864 237.963 485.694C237.377 489.116 231.999 494.298 229.066 494.102C225.742 494.004 220.561 489.116 219.876 485.596C217.237 472.006 216.161 458.123 214.206 441.991V442.089Z" fill="white"/>
<path d="M317.351 773.819C294.473 765.802 280.785 748.986 274.333 725.815C271.302 715.06 272.475 711.54 282.35 707.63C309.138 696.777 336.22 694.235 363.986 704.697C373.176 708.118 376.794 713.398 376.207 723.371C374.936 746.248 363.791 762.283 342.086 770.789C339.447 771.864 336.806 773.233 333.678 774.699C334.264 779.783 334.754 784.476 335.34 789.071C337.198 803.248 337.686 818.304 358.12 819.087C355.871 830.721 348.637 830.623 341.891 827.983C336.122 825.735 331.234 821.14 324.781 816.838C317.351 822.997 310.898 834.534 297.406 829.841C292.127 827.983 287.727 825.05 289.487 818.695C296.722 814.589 304.641 811.949 310.018 806.67C315.884 800.999 317.644 787.312 317.253 773.819H317.351ZM361.64 718.482C335.731 712.225 311.191 708.998 287.238 722.002C299.752 751.137 313.147 761.794 332.31 758.567C351.277 755.341 359.587 744.489 361.64 718.482Z" fill="black"/>
<path d="M248.913 667.545C240.505 665.296 233.27 663.732 226.231 661.287C201.202 652.586 176.662 649.946 152.122 663.047C143.421 667.642 133.937 665.198 127.876 658.745C123.379 653.955 123.77 644.08 129.929 635.672C140.097 621.789 154.86 615.238 171.481 614.847C199.54 614.163 223.786 624.135 243.144 644.862C248.13 650.142 252.042 656.008 249.011 667.447L248.913 667.545Z" fill="black"/>
<path d="M475.442 627.361C470.358 626.383 468.011 626.09 465.665 625.504C441.223 619.54 419.91 625.993 400.747 641.538C398.01 643.787 395.272 646.035 392.339 648.186C388.232 651.217 383.539 657.181 378.847 651.901C376.402 649.164 378.065 642.222 378.651 637.334C378.945 634.498 380.704 631.761 382.171 629.219C395.272 606.341 436.432 586.689 462.243 591.773C469.478 593.24 476.908 597.053 482.481 601.844C486.196 605.07 489.618 613.087 488.054 616.9C486.099 621.788 478.961 624.722 475.442 627.459V627.361Z" fill="black"/>
<path d="M361.64 718.482C359.587 744.489 351.277 755.341 332.31 758.568C313.147 761.794 299.752 751.235 287.238 722.002C311.289 708.998 335.731 712.225 361.64 718.482Z" fill="white"/>
</svg>
