<svg width="515" height="334" viewBox="0 0 515 334" fill="none" xmlns="http://www.w3.org/2000/svg">
<path d="M495.085 213.357C495.378 219.614 495.867 224.991 495.769 230.271C494.987 276.516 476.9 301.838 429.58 315.33C401.227 323.445 371.408 327.844 341.98 330.484C273.445 336.644 205.105 334.884 138.525 314.841C102.937 304.184 69.6955 288.541 41.5383 263.512C27.9485 251.389 19.247 237.114 20.0292 218.538C20.4202 209.739 16.9989 204.753 9.56851 200.158C-0.697143 193.9 -1.87046 187.252 2.13804 175.618C2.52911 174.542 2.91982 173.271 3.6042 172.391C18.2694 152.055 22.0827 127.711 29.0243 104.442C40.4631 66.6053 68.8155 44.7051 102.545 28.6709C143.901 8.92156 187.115 -1.24656 233.653 0.122207C278.626 1.49097 322.524 6.57499 365.053 21.5337C416.577 39.621 456.271 71.5915 483.352 119.303C488.339 128.004 494.693 136.021 500.462 144.234C501.146 145.211 502.026 145.994 502.711 146.971C520.7 170.925 518.353 192.63 494.987 213.357H495.085ZM93.7467 204.46C99.8083 201.135 103.817 198.789 107.923 196.736C112.127 194.585 116.233 191.945 120.731 190.674C142.142 184.906 154.852 196.638 150.648 218.245C149.67 223.427 147.226 228.413 145.955 233.595C142.63 246.891 148.105 253.931 161.891 254.811C174.698 255.593 185.355 250.9 193.177 240.928C200.118 232.031 205.984 222.351 212.828 213.357C223.974 198.691 243.234 197.225 256.433 210.032C259.855 213.259 262.299 217.561 265.427 221.08C274.911 231.737 285.47 233.302 296.909 224.796C302.09 220.983 305.805 215.41 310.303 210.717C314.409 206.415 317.929 201.331 322.719 198.203C336.505 189.306 353.125 192.825 358.894 209.641C363.196 222.156 362.218 234.084 360.067 246.5C358.991 252.953 357.427 259.308 356.938 265.761C356.352 274.756 360.947 281.111 369.844 282.186C398.881 285.804 408.756 279.84 412.862 255.788C414.817 244.643 416.088 233.399 419.314 222.547C425.278 202.113 438.086 193.803 459.497 195.172C465.461 195.563 471.327 196.54 477.291 196.931C498.311 198.007 506.817 186.275 498.702 166.721C496.258 160.757 492.054 155.575 488.437 150.1C484.428 144.234 479.54 138.856 476.215 132.599C450.209 85.0834 411.591 52.9175 360.556 34.928C331.127 24.5645 300.721 19.6759 269.924 17.1339C214.392 12.5388 161.011 19.5783 109.976 43.2384C69.9888 61.8145 43.2004 90.0699 36.7477 134.946C34.6946 149.416 29.2198 162.321 19.834 173.662C17.6831 176.204 16.51 179.529 14.4569 183.146C24.3315 192.043 33.9127 192.727 44.2761 186.372C48.2846 183.83 51.9021 180.604 56.0084 178.258C68.816 171.023 80.841 174.64 87.2937 187.643C89.6401 192.238 91.0093 197.323 93.8446 204.655L93.7467 204.46ZM36.8456 209.544C34.4014 228.804 39.7787 244.545 57.0837 255.202C61.6788 257.939 65.7848 261.459 70.2821 264.294C112.713 291.474 159.838 304.966 209.211 311.224C262.006 317.872 314.898 315.819 367.595 310.539C397.219 307.508 426.745 302.033 451.578 283.848C458.519 278.764 466.145 272.018 468.687 264.392C474.064 248.358 476.313 231.248 480.126 213.357C472.402 212.183 467.221 211.206 462.039 210.717C441.605 208.762 436.522 212.281 432.122 231.933C429.776 242.394 428.309 252.953 425.963 263.414C418.337 297.829 380.794 303.793 357.721 292.55C347.846 287.759 342.273 279.253 342.567 268.205C342.762 259.406 344.815 250.607 345.402 241.71C345.891 234.084 347.064 226.067 345.402 218.832C343.153 209.348 334.647 207.882 327.901 215.019C323.893 219.321 320.862 224.6 317.049 229.098C298.962 250.02 274.227 250.607 254.966 230.759C252.913 228.609 251.154 226.164 249.1 224.111C238.639 213.65 231.502 214.432 223.485 226.555C217.227 235.941 211.753 245.914 204.42 254.42C191.319 269.672 174.014 274.853 154.46 270.454C134.418 265.956 125.033 249.922 129.921 230.075C131.094 225.48 133.44 221.178 134.418 216.583C135.2 212.966 134.614 209.055 134.614 205.242C130.996 204.753 128.943 203.873 127.574 204.46C121.708 207.099 116.038 210.228 110.27 213.161C94.6266 221.178 83.0901 217.072 75.562 201.135C73.7044 197.127 71.1623 193.51 68.7181 189.305C57.1815 196.736 47.3066 202.993 37.2365 209.446L36.8456 209.544Z" fill="black"/>
<path d="M93.7468 204.46C90.9115 197.127 89.5429 192.043 87.1965 187.448C80.646 174.445 68.6204 170.827 55.9106 178.062C51.8043 180.409 48.1868 183.635 44.1783 186.177C33.9126 192.532 24.2337 191.848 14.3591 182.951C16.3145 179.333 17.5854 176.107 19.7363 173.467C29.122 162.126 34.4991 149.22 36.65 134.75C43.1026 89.8743 69.7932 61.6193 109.878 43.0431C160.913 19.383 214.393 12.3435 269.827 16.9387C300.722 19.4806 331.03 24.3692 360.458 34.7327C411.493 52.7222 450.111 84.8882 476.118 132.404C479.54 138.563 484.428 143.941 488.339 149.905C491.956 155.282 496.16 160.561 498.604 166.525C506.719 186.079 498.213 197.909 477.193 196.736C471.229 196.443 465.363 195.367 459.399 194.976C437.988 193.705 425.278 202.016 419.217 222.352C416.088 233.106 414.72 244.447 412.764 255.593C408.658 279.742 398.685 285.608 369.746 281.991C360.849 280.915 356.254 274.56 356.841 265.565C357.329 259.113 358.894 252.66 359.969 246.305C362.12 233.986 363.098 221.961 358.796 209.446C353.028 192.63 336.407 189.208 322.622 198.007C317.831 201.136 314.214 206.22 310.206 210.521C305.708 215.214 301.895 220.787 296.811 224.6C285.372 233.106 274.911 231.542 265.33 220.885C262.201 217.366 259.757 213.064 256.335 209.837C243.039 197.029 223.778 198.496 212.73 213.161C205.887 222.156 200.02 231.835 193.079 240.732C185.257 250.705 174.601 255.398 161.793 254.615C148.008 253.833 142.533 246.794 145.857 233.4C147.128 228.218 149.475 223.329 150.55 218.05C154.754 196.443 142.142 184.613 120.633 190.479C116.136 191.652 112.029 194.39 107.825 196.54C103.719 198.691 99.7106 200.94 93.6489 204.264L93.7468 204.46ZM116.82 116.663C116.233 118.228 115.647 119.89 115.06 121.454C124.348 133.577 138.427 138.27 152.31 142.279C187.604 152.642 223.387 161.148 260.441 162.81C299.744 164.57 338.754 163.886 377.176 154.304C382.26 153.033 387.344 150.98 391.842 148.34C393.797 147.167 395.557 143.061 395.068 140.91C394.579 138.759 391.06 135.728 388.909 135.728C381.869 135.728 374.634 136.315 367.888 137.977C355.374 140.91 343.544 143.354 334.354 130.937C333.376 129.666 331.323 129.178 329.759 128.395C298.864 112.166 266.014 106.593 231.502 110.015C214.881 111.677 198.065 113.632 183.987 123.214C174.014 130.155 164.531 130.546 153.874 126.733C147.128 124.387 140.48 122.04 133.636 120.085C128.161 118.618 122.588 117.739 117.016 116.565L116.82 116.663Z" fill="white"/>
<path d="M36.8459 209.544C46.9161 203.091 56.7904 196.736 68.327 189.404C70.7712 193.51 73.3133 197.225 75.1709 201.234C82.699 217.17 94.2355 221.276 109.878 213.259C115.647 210.326 121.318 207.197 127.184 204.558C128.552 203.971 130.606 204.851 134.223 205.34C134.223 209.153 134.81 213.063 134.027 216.681C133.05 221.276 130.703 225.578 129.53 230.173C124.544 250.02 134.027 266.054 154.07 270.552C173.623 274.951 190.928 269.77 204.029 254.518C211.362 246.012 216.935 236.039 223.094 226.654C231.111 214.53 238.248 213.748 248.709 224.209C250.762 226.262 252.523 228.804 254.576 230.858C273.738 250.705 298.571 250.118 316.658 229.195C320.569 224.698 323.502 219.418 327.51 215.117C334.256 207.882 342.763 209.446 345.011 218.93C346.673 226.165 345.598 234.182 345.011 241.808C344.425 250.705 342.371 259.406 342.176 268.303C341.882 279.351 347.455 287.759 357.33 292.648C380.501 303.989 417.946 297.927 425.572 263.512C427.919 253.051 429.385 242.492 431.732 232.031C436.131 212.379 441.313 208.762 461.649 210.815C466.83 211.304 472.012 212.281 479.735 213.455C475.922 231.249 473.674 248.358 468.297 264.49C465.755 272.116 458.129 278.862 451.187 283.946C426.354 302.131 396.828 307.606 367.204 310.637C314.507 315.917 261.615 318.068 208.82 311.322C159.349 305.064 112.225 291.572 69.8916 264.392C65.3943 261.557 61.2877 258.037 56.6926 255.3C39.3876 244.741 34.0109 229 36.4551 209.642L36.8459 209.544Z" fill="white"/>
<path d="M116.82 116.663C122.393 117.836 127.966 118.618 133.441 120.183C140.284 122.138 147.031 124.387 153.679 126.831C164.335 130.644 173.819 130.253 183.791 123.311C197.772 113.632 214.686 111.677 231.307 110.113C265.819 106.788 298.669 112.263 329.564 128.493C331.128 129.275 333.181 129.764 334.158 131.035C343.349 143.354 355.276 141.008 367.693 138.075C374.536 136.413 381.674 135.924 388.713 135.826C390.864 135.826 394.384 138.759 394.873 141.008C395.361 143.159 393.699 147.265 391.646 148.438C387.149 151.176 382.065 153.131 376.981 154.402C338.558 163.983 299.548 164.668 260.246 162.908C223.192 161.246 187.408 152.642 152.114 142.376C138.329 138.368 124.152 133.675 114.865 121.552C115.451 119.987 116.038 118.325 116.624 116.761L116.82 116.663ZM197.283 133.773C221.725 145.407 283.906 149.318 317.245 141.594C276.573 118.912 237.27 122.823 197.283 133.773Z" fill="black"/>
</svg>
