<svg width="436" height="317" viewBox="0 0 436 317" fill="none" xmlns="http://www.w3.org/2000/svg">
<path d="M231.136 282.052C230.745 289.58 232.896 296.033 233.678 302.583C233.874 304.05 234.46 305.516 234.558 307.08C234.851 311.187 232.407 314.804 228.399 316.271C224.684 317.639 220.382 316.075 218.231 312.262C217.253 310.405 216.667 308.254 216.276 306.201C214.809 298.77 213.636 291.242 212.267 283.714C211.192 283.225 210.41 282.638 209.627 282.54C193.202 281.758 176.777 281.074 159.668 280.292C158.983 281.563 157.81 283.323 156.833 285.082C153.606 291.242 150.38 297.499 147.154 303.756C146.567 304.832 145.98 305.907 145.198 306.787C142.656 309.525 138.452 310.405 135.128 308.938C131.413 307.276 129.066 303.268 130.044 299.259C130.729 296.619 131.999 294.175 133.368 291.828C136.204 286.744 139.136 281.856 141.092 275.892C133.173 272.959 125.449 270.417 117.921 267.191C110.393 263.964 103.158 260.054 95.3364 256.241C92.2079 258.294 89.7636 261.422 87.3194 264.453C83.3109 269.439 79.2046 274.328 75.0984 279.314C74.1207 280.487 73.1431 281.66 71.9699 282.638C68.7435 285.18 64.0505 284.985 61.0197 282.345C57.6956 279.51 56.718 275.403 58.7711 271.688C59.9443 269.537 61.6063 267.777 63.1706 265.92C68.5479 259.369 74.0229 252.721 79.1069 246.464C79.1069 243.726 77.347 242.846 75.9782 241.869C64.4416 232.776 54.176 222.315 43.9103 211.853C36.5777 204.423 31.2005 195.624 25.921 186.727C23.4768 182.523 23.5746 178.612 25.3344 174.506C27.7786 168.933 30.4184 163.457 32.9603 157.885C34.2313 155.147 35.6001 152.41 37.0666 149.281C35.5023 147.717 34.1336 146.152 32.5693 144.881C22.988 136.864 14.3844 127.674 3.92319 120.732C-0.378611 117.897 -1.06299 112.422 1.47898 108.609C4.02095 104.698 9.20272 103.33 13.6023 106.165C18.6862 109.489 23.5746 113.204 28.2675 117.115C32.9604 121.026 37.3599 125.328 41.955 129.336C43.5193 130.705 45.3769 131.78 47.039 132.954C54.8604 124.252 61.8997 115.355 70.1122 107.729C78.1292 100.299 87.3194 94.237 96.5096 87.0999C96.0208 85.9267 95.6298 84.167 94.7498 82.7005C90.057 74.4879 85.2662 66.3729 80.5734 58.1603C79.4979 56.3027 78.2271 54.5428 77.3471 52.5874C75.0985 47.5034 76.8582 42.6149 81.6488 40.2684C86.0484 38.1175 90.8391 39.4863 93.4788 43.9837C98.2695 52.0985 102.864 60.4091 107.46 68.6217C109.219 71.7503 111.077 74.8788 113.13 78.3007C122.223 74.6833 130.924 70.8702 139.821 67.8394C148.522 64.9063 157.321 62.6577 166.218 60.6046C175.409 58.5514 184.696 57.0847 194.082 55.2271C194.082 48.6765 194.18 42.6151 194.082 36.5534C193.887 28.6341 193.593 20.7146 193.3 12.7953C193.3 10.9377 193.202 9.08011 193.496 7.32027C194.18 3.4095 197.113 0.671955 200.828 0.280878C204.739 -0.207968 208.259 1.4542 209.725 5.2672C210.703 7.71143 211.192 10.5468 211.192 13.2843C211.485 23.0612 211.485 32.8382 211.778 42.6151C211.778 46.2325 211.387 49.9477 213.636 53.8585C228.301 53.3696 243.162 53.2717 258.12 54.6405C272.688 56.0093 286.864 59.1379 301.334 63.2442C302.018 61.0933 302.605 59.7245 302.898 58.3558C306.027 43.7882 309.155 29.123 312.284 14.5554C312.871 11.9156 313.359 9.17781 314.337 6.63581C316.292 1.25851 320.887 -1.0877 325.874 0.476607C330.664 1.94314 333.011 6.73365 331.74 12.2087C328.318 26.7763 324.994 41.2464 321.67 55.814C320.692 60.2136 320.105 64.7107 319.225 69.5991C332.131 75.3675 344.645 81.0382 355.302 89.8374C365.567 98.3433 375.54 107.24 386.001 116.333C387.761 114.182 389.619 112.227 391.183 110.076C399.298 99.0278 407.314 87.8822 415.429 76.8343C417.091 74.5856 418.655 72.3369 420.611 70.4793C423.642 67.4485 428.237 67.155 431.561 69.4037C434.885 71.6524 436.254 75.9541 434.494 79.9626C433.614 82.2113 432.147 84.1669 430.681 86.22C421.393 99.0278 412.007 111.835 402.622 124.643C400.862 127.087 399.004 129.532 397.049 132.269C398.124 134.225 399.004 136.18 400.079 137.94C404.381 144.588 408.781 151.236 412.985 157.983C418.069 166.293 417.678 172.452 411.812 179.883C410.932 181.056 409.563 182.229 408.292 182.62C404.284 183.5 402.231 186.531 399.982 189.464C391.476 200.219 381.993 210.191 371.531 219.773C372.607 221.435 373.487 222.999 374.66 224.27C377.886 227.887 381.308 231.407 384.632 235.025C385.903 236.393 387.077 237.762 388.054 239.326C390.01 242.651 389.325 246.757 386.685 249.397C383.85 252.232 379.255 252.916 375.833 250.57C373.585 249.006 371.629 247.05 369.772 245.095C365.568 240.695 361.461 236.198 356.866 231.407C349.24 236.296 341.907 241.184 334.379 245.681C327.144 250.081 319.714 254.09 311.893 258.587C314.435 264.453 317.563 269.244 320.692 274.034C321.67 275.599 323.038 276.87 323.82 278.434C325.58 281.758 324.7 285.767 321.865 288.504C319.128 291.242 315.021 292.122 311.795 290.166C309.742 288.993 307.884 287.233 306.516 285.278C304.071 281.758 302.018 278.043 299.77 274.328C298.205 271.786 296.543 269.244 294.979 266.702C284.126 270.026 273.763 273.643 263.204 276.283C252.939 278.825 242.38 280.39 231.234 282.443L231.136 282.052ZM114.499 125.426C86.635 142.437 66.7881 164.24 49.5809 189.171C50.4608 190.833 51.1452 192.104 51.9274 193.375C52.905 194.841 53.9805 196.406 55.2514 197.775C68.3524 211.462 81.8444 224.759 97.3895 235.611C115.379 248.223 135.324 256.338 156.833 260.542C178.244 264.746 199.851 265.138 221.555 264.062C244.335 262.987 266.333 258.196 287.255 249.201C311.208 238.936 333.5 225.736 354.129 209.898C365.079 201.49 374.464 191.517 383.263 180.86C384.241 179.687 384.926 178.318 385.61 177.243C385.219 176.363 385.121 175.679 384.73 175.19C374.073 161.013 362.83 147.423 350.022 135.105C339.072 124.643 326.558 116.724 312.773 110.467C311.502 109.88 310.035 108.805 308.373 110.662C309.253 112.715 310.231 114.964 311.111 117.213C314.239 124.937 315.803 132.954 316.097 141.264C316.683 155.832 311.991 168.933 305.538 181.545C294.099 203.836 276.403 218.893 252.059 225.639C228.008 232.287 203.859 232.58 179.71 226.225C169.347 223.488 159.277 219.773 150.282 213.906C131.315 201.685 117.921 185.26 113.326 162.676C111.468 153.583 111.859 144.49 113.032 135.398C113.424 132.758 113.815 130.02 114.499 125.523V125.426ZM191.051 96.7789C190.367 96.3879 190.074 96.0948 189.878 96.0948C174.333 98.0502 159.57 102.743 145.198 108.707C141.972 110.076 139.723 112.324 138.061 115.453C134.835 121.417 132.782 127.772 131.413 134.42C127.404 154.561 131.511 172.55 146.078 187.704C155.171 197.188 166.218 203.445 178.635 207.356C199.753 214.004 221.164 214.591 242.771 209.605C266.235 204.325 282.367 190.344 291.948 168.444C293.121 165.609 294.294 162.871 295.272 159.938C300.747 143.513 298.596 128.065 288.722 113.791C286.278 110.271 283.247 107.24 280.705 103.818C277.967 100.103 274.252 98.4411 269.852 97.7567C255.676 95.6058 241.402 93.846 227.03 93.846C225.661 93.846 224.293 94.0415 222.924 94.1393C224.293 95.9969 225.759 96.779 227.323 97.4634C231.039 98.9299 234.851 99.9076 238.371 101.667C253.036 109 262.031 120.732 264.084 137.158C267.017 161.404 254.21 183.989 231.625 193.179C209.921 202.076 189.096 199.241 170.129 185.358C162.21 179.59 157.126 171.67 154.584 162.187C147.838 137.158 158.495 113.302 181.568 101.472C184.501 100.005 187.532 98.5389 190.758 96.8768L191.051 96.7789ZM211.583 155.343C220.284 155.538 227.323 148.597 226.835 141.362C226.737 139.407 225.759 136.962 224.39 135.691C217.449 129.727 208.943 126.892 201.708 136.864C197.504 142.633 198.482 148.792 204.446 152.507C206.988 154.072 210.018 154.756 211.485 155.44L211.583 155.343Z" fill="black"/>
<path d="M114.499 125.426C113.815 129.923 113.424 132.563 113.032 135.3C111.762 144.393 111.37 153.583 113.326 162.578C118.019 185.163 131.413 201.588 150.282 213.809C159.277 219.675 169.347 223.39 179.71 226.128C203.859 232.483 228.008 232.189 252.059 225.541C276.403 218.795 294.001 203.739 305.538 181.447C311.991 168.835 316.683 155.734 316.097 141.166C315.803 132.856 314.337 124.839 311.111 117.115C310.231 114.867 309.253 112.716 308.373 110.565C310.035 108.805 311.502 109.88 312.773 110.369C326.46 116.529 339.072 124.546 350.022 135.007C362.83 147.326 374.073 160.916 384.73 175.092C385.121 175.581 385.219 176.168 385.61 177.145C384.926 178.221 384.241 179.59 383.263 180.763C374.562 191.42 365.079 201.392 354.129 209.801C333.5 225.737 311.209 238.838 287.255 249.104C266.333 258.098 244.335 262.889 221.555 263.964C199.851 265.04 178.244 264.649 156.833 260.445C135.324 256.241 115.379 248.126 97.3895 235.514C81.7466 224.563 68.3524 211.267 55.2515 197.677C53.9805 196.406 53.0029 194.842 51.9274 193.278C51.1453 192.007 50.4608 190.735 49.5809 189.073C66.7881 164.142 86.635 142.34 114.499 125.328V125.426Z" fill="white"/>
<path d="M191.051 96.779C187.825 98.4411 184.794 99.9076 181.861 101.374C158.788 113.204 148.131 137.06 154.877 162.089C157.419 171.573 162.503 179.492 170.422 185.26C189.389 199.143 210.214 201.979 231.919 193.082C254.503 183.891 267.311 161.209 264.377 137.06C262.422 120.635 253.33 108.903 238.665 101.57C235.145 99.8101 231.234 98.7347 227.617 97.3659C226.052 96.7793 224.488 95.9969 223.217 94.0415C224.586 93.9437 225.955 93.6504 227.323 93.7482C241.695 93.7482 255.969 95.5083 270.146 97.6592C274.545 98.3436 278.261 100.103 280.998 103.721C283.54 107.143 286.571 110.173 289.015 113.693C298.89 127.967 301.041 143.415 295.566 159.84C294.588 162.773 293.415 165.511 292.241 168.346C282.66 190.246 266.528 204.227 243.064 209.507C221.457 214.395 200.046 213.907 178.928 207.258C166.512 203.348 155.562 197.09 146.371 187.607C131.804 172.452 127.6 154.561 131.706 134.323C133.075 127.772 135.128 121.319 138.354 115.355C140.016 112.227 142.265 109.978 145.491 108.609C159.863 102.645 174.724 97.9524 190.172 95.997C190.367 95.997 190.563 96.1926 191.345 96.6814L191.051 96.779Z" fill="white"/>
<path d="M211.583 155.343C210.019 154.756 207.085 153.974 204.544 152.41C198.482 148.695 197.602 142.535 201.806 136.767C209.041 126.794 217.547 129.63 224.488 135.593C225.955 136.864 226.835 139.309 226.932 141.264C227.421 148.499 220.382 155.538 211.681 155.245L211.583 155.343Z" fill="white"/>
</svg>
