<svg width="623" height="503" viewBox="0 0 623 503" fill="none" xmlns="http://www.w3.org/2000/svg">
<path d="M37.2119 408.731C27.4351 406.58 19.5162 403.451 17.3653 392.696C16.7787 389.861 13.259 387.417 10.6193 385.168C-0.721798 375.587 -3.36149 364.734 4.55773 352.318C8.56622 345.963 14.2367 340.097 20.3961 335.795C57.3525 309.788 94.5042 284.075 132.047 258.851C161.671 239.003 191.881 219.938 223.363 199.505C219.55 195.692 216.519 192.367 213.292 189.434C186.504 164.992 159.422 140.745 132.927 116.01C125.986 109.557 119.729 102.127 114.645 94.2074C103.89 77.5866 107.996 66.7342 126.67 60.3792C128.332 59.7926 129.896 59.206 132.243 58.4238C131.754 44.2473 136.838 33.9816 153.752 33.6883C153.263 27.8221 152.09 22.6403 152.579 17.6541C153.948 3.67314 164.995 -3.75732 177.9 1.91329C189.144 6.89951 199.996 13.6455 209.577 21.3692C225.22 34.0792 239.592 48.4514 254.746 61.9435C279.09 83.6483 303.532 105.255 328.268 127.155C358.674 106.135 387.808 85.5059 417.334 65.6588C432.586 55.4908 448.327 45.7138 464.752 37.599C492.127 24.009 518.329 29.5819 541.696 47.3759C550.397 54.0242 558.316 57.1528 569.169 56.2729C582.172 55.2952 595.37 55.2952 608.374 56.2729C622.843 57.3484 626.851 64.8766 618.346 76.12C609.449 87.8523 598.695 98.2158 588.136 108.677C583.345 113.468 580.021 117.574 579.63 125.102C576.501 191.683 536.416 231.182 468.663 235.093C467.685 235.093 466.707 236.07 464.459 237.243C468.174 241.252 471.498 245.065 475.116 248.585C503.371 275.862 531.723 303.042 559.88 330.417C564.573 334.915 569.168 339.803 572.59 345.278C582.465 361.215 576.696 373.24 558.414 375.782C556.067 376.076 553.721 375.782 552.254 375.782C548.832 382.724 547.268 391.621 541.989 395.141C536.612 398.758 527.715 396.998 518.231 397.78C518.036 398.269 517.156 400.909 515.983 403.451C510.605 414.988 503.273 419.094 491.834 414.401C482.643 410.686 473.453 405.504 466.121 398.856C448.131 382.528 431.218 365.028 412.837 346.94C404.723 353.98 396.021 362.681 385.951 369.623C375.783 376.662 364.344 381.746 352.808 388.101C352.808 404.722 353.003 422.418 352.808 440.114C352.514 456.833 357.598 473.649 353.394 490.368C343.52 490.563 342.835 484.502 342.444 479.515C341.076 462.895 340.098 446.274 339.511 429.653C339.023 417.334 339.511 405.015 339.511 392.501H292.387C287.108 429.36 297.764 465.828 292.876 502.491C278.993 500.34 280.557 492.323 280.166 485.577C278.308 454.193 276.646 422.809 274.691 388.786C250.542 382.626 228.935 368.841 213.977 344.887C209.284 347.723 205.276 349.971 201.463 352.513C169.199 373.827 137.131 395.434 104.672 416.552C95.7753 422.321 86.1943 427.6 76.2219 431.217C53.2464 439.626 43.0781 433.662 37.3098 408.731H37.2119ZM429.165 209.868C444.612 213.29 456.149 217.983 467.685 217.983C505.815 217.885 535.83 201.46 553.819 167.339C571.71 133.413 566.431 101.247 544.042 70.3517C528.595 49.1358 494.082 39.5544 472.28 51.971C456.833 60.7702 440.897 68.9829 426.232 79.0531C385.169 107.504 345.279 137.715 303.728 165.481C213.683 225.707 122.955 284.661 32.6171 344.496C26.4577 348.603 21.6668 355.153 17.0717 361.117C15.8007 362.779 16.0945 367.374 17.5611 369.036C19.1253 370.796 23.2311 371.969 25.5775 371.187C29.9771 369.623 33.6924 366.397 37.8964 364.246C44.9357 360.726 51.2906 354.371 63.5116 358.771C56.179 364.832 50.3131 369.33 44.7403 374.316C38.7764 379.595 30.466 383.408 31.1504 393.479C42.1004 398.758 49.4334 392.696 57.2549 386.928C63.3165 382.431 69.0846 375.196 80.9146 380.084C74.0708 387.319 68.4001 393.087 63.0229 399.149C57.6456 405.113 51.2905 411.077 57.9387 421.049C77.7857 415.379 94.3087 405.015 110.734 394.554C137.327 377.542 163.626 360.237 190.317 343.421C199.214 337.848 208.697 333.253 217.692 328.364C221.798 332.177 224.634 334.328 226.882 336.968C251.031 366.006 282.61 375.685 319.175 373.925C390.644 370.503 444.612 301.282 430.436 230.986C429.262 225.022 429.653 218.667 429.165 209.966V209.868ZM123.15 78.5642C126.181 83.6482 127.941 88.6345 131.363 92.0564C165.973 126.178 201.071 159.713 240.179 189.337C265.305 169.392 292.876 156.682 316.438 136.444C311.647 131.848 308.323 128.524 304.803 125.396C279.481 102.811 254.257 80.2263 228.74 57.9349C216.226 46.9848 203.32 36.4257 190.024 26.4533C184.255 22.1514 177.119 19.7073 169.102 15.6988C165.777 37.5013 187.384 47.2782 188.948 65.9521C171.643 64.29 163.235 46.7893 146.712 49.4291C143.486 68.2985 165.777 71.6226 168.124 87.3634C151.112 94.4028 141.433 71.2316 123.248 78.7598L123.15 78.5642ZM452.14 241.839C450.673 278.013 440.212 307.735 422.321 334.426C447.349 367.863 482.741 397.389 501.61 401.007C511.485 392.599 493.496 380.671 506.304 371.187C510.508 373.632 514.907 376.369 519.6 378.618C524.586 381.062 529.768 383.017 534.852 385.266C535.83 384.093 536.807 382.919 537.785 381.746C534.07 376.076 529.866 370.601 526.835 364.637C525.466 361.997 525.075 357.011 526.737 355.349C528.301 353.686 533.092 353.98 536.025 354.86C539.936 355.935 543.357 358.868 547.366 360.041C552.645 361.606 558.218 362.29 566.04 363.757C564.182 358.086 564.084 354.664 562.325 352.904C526.542 316.632 490.563 280.555 452.238 241.936L452.14 241.839ZM606.027 72.5026C605.049 70.8405 604.169 69.1784 603.192 67.5163C590.677 68.2007 578.163 68.7873 563.694 69.5695C568.582 80.9107 572.493 89.9054 577.283 100.856C587.94 90.2965 596.935 81.3995 605.929 72.4047L606.027 72.5026Z" fill="black"/>
<path d="M429.165 209.868C429.654 218.57 429.165 224.925 430.436 230.889C444.612 301.185 390.644 370.405 319.176 373.827C282.513 375.587 250.934 365.908 226.883 336.87C224.634 334.23 221.799 332.08 217.692 328.267C208.698 333.253 199.117 337.75 190.317 343.323C163.627 360.139 137.327 377.444 110.734 394.456C94.309 405.015 77.786 415.379 57.9391 420.952C51.1931 410.979 57.6459 405.015 63.0232 399.051C68.4004 392.99 74.1689 387.221 80.9149 379.986C68.9872 375.098 63.3168 382.333 57.2552 386.83C49.4338 392.599 42.1007 398.66 31.1507 393.381C30.4663 383.311 38.8745 379.498 44.7406 374.218C50.3134 369.232 56.1793 364.734 63.5119 358.673C51.2909 354.273 44.936 360.628 37.8967 364.148C33.6927 366.299 29.9774 369.623 25.5778 371.089C23.3292 371.872 19.1257 370.796 17.5614 368.938C16.0948 367.276 15.8011 362.681 17.0721 361.019C21.7649 355.055 26.4581 348.505 32.6174 344.399C122.857 284.564 213.684 225.609 303.728 165.383C345.28 137.617 385.169 107.406 426.232 78.9553C440.799 68.8851 456.833 60.7704 472.28 51.8734C493.985 39.4567 528.595 48.9402 544.042 70.2539C566.529 101.149 571.711 133.315 553.819 167.241C535.83 201.362 505.815 217.69 467.686 217.885C456.149 217.885 444.71 213.192 429.165 209.77V209.868ZM487.239 110.339C498.58 110.535 508.357 101.931 508.846 91.0787C509.335 79.0531 499.167 67.5164 487.532 66.832C476.093 66.2454 466.903 74.5557 466.415 86.1903C465.828 98.8025 475.605 110.046 487.337 110.339H487.239Z" fill="white"/>
<path d="M123.151 78.5643C141.335 71.0361 151.112 94.3052 168.026 87.168C165.679 71.4272 143.29 68.103 146.615 49.2335C163.137 46.5938 171.546 64.0945 188.85 65.7565C187.286 46.9849 165.68 37.3057 169.004 15.5032C177.021 19.5118 184.157 21.9559 189.926 26.2577C203.222 36.2302 216.128 46.7893 228.642 57.7394C254.16 80.0308 279.384 102.713 304.706 125.2C308.226 128.329 311.55 131.653 316.34 136.248C292.778 156.486 265.11 169.196 240.081 189.141C200.974 159.517 165.875 125.982 131.265 91.8609C127.843 88.439 126.084 83.4527 123.053 78.3687L123.151 78.5643Z" fill="white"/>
<path d="M452.14 241.839C490.563 280.457 526.542 316.534 562.227 352.807C563.987 354.567 564.085 357.988 565.942 363.659C558.121 362.193 552.548 361.508 547.269 359.944C543.358 358.771 539.936 355.838 535.927 354.762C532.897 353.98 528.106 353.589 526.639 355.251C525.075 357.011 525.466 361.997 526.737 364.539C529.768 370.503 533.972 375.978 537.687 381.649C536.709 382.822 535.732 383.995 534.754 385.168C529.67 383.017 524.489 380.964 519.502 378.52C514.907 376.271 510.508 373.534 506.206 371.089C493.398 380.475 511.388 392.501 501.513 400.909C482.644 397.292 447.252 367.765 422.223 334.328C440.212 307.735 450.576 277.916 452.042 241.741L452.14 241.839Z" fill="white"/>
<path d="M606.027 72.5026C597.032 81.3996 588.038 90.3943 577.381 100.953C572.59 90.0032 568.778 81.0085 563.792 69.6672C578.163 68.8851 590.775 68.2986 603.29 67.6142C604.267 69.2763 605.147 70.9383 606.125 72.6004L606.027 72.5026Z" fill="white"/>
<path d="M487.239 110.339C475.507 110.144 465.632 98.8024 466.317 86.1902C466.903 74.5557 476.094 66.2454 487.435 66.832C499.069 67.5164 509.335 79.0531 508.748 91.0787C508.259 101.833 498.58 110.535 487.141 110.339H487.239Z" fill="black"/>
</svg>
