<svg width="250" height="93" viewBox="0 0 250 93" fill="none" xmlns="http://www.w3.org/2000/svg">
<path d="M21.75 78.5C21.7083 79.125 21.625 79.8542 21.5 80.6875C21.375 81.5208 21.1458 82.2917 20.8125 83C20.4792 83.7083 20.0417 84.3125 19.5 84.8125C18.9583 85.3125 18.25 85.5208 17.375 85.4375C16.875 85.3958 16.4792 85.25 16.1875 85C15.8542 84.75 15.5833 84.4375 15.375 84.0625C15.1667 83.6875 15.0208 83.2917 14.9375 82.875C14.8125 82.4167 14.75 81.9792 14.75 81.5625V80.25C14.875 79.6667 15.2292 79.0208 15.8125 78.3125C16.3542 77.5625 16.9167 77.0208 17.5 76.6875C18.125 76.3542 18.6875 76.3542 19.1875 76.6875C19.6875 77.0208 19.9583 77.9375 20 79.4375C20.2917 79.1875 20.5625 78.9375 20.8125 78.6875C21.0625 78.3958 21.375 78.3333 21.75 78.5ZM79.25 68C79.125 69.25 78.6875 70.3333 77.9375 71.25C77.2292 72.125 76.375 72.8958 75.375 73.5625C74.375 74.1875 73.2917 74.7292 72.125 75.1875C70.9583 75.6458 69.875 76.0833 68.875 76.5C68.875 77.125 68.7292 77.5208 68.4375 77.6875C68.1875 77.8542 67.875 77.9583 67.5 78C67.125 78 66.7083 78 66.25 78C65.8333 78 65.4583 78.125 65.125 78.375L64.5 77.875C64.375 78.0417 64.2292 78.1875 64.0625 78.3125C63.9375 78.3958 63.8125 78.5208 63.6875 78.6875C63.5208 78.8958 63.3542 79.1042 63.1875 79.3125C63.0625 79.4792 62.8542 79.5625 62.5625 79.5625C62.0208 79.3542 61.4792 79.3125 60.9375 79.4375C60.3958 79.5625 59.8333 79.75 59.25 80C58.7083 80.25 58.1458 80.5 57.5625 80.75C56.9792 80.9583 56.3958 81.0625 55.8125 81.0625L55.75 81.125C55.2917 81.4583 54.9583 81.7708 54.75 82.0625C54.5417 82.3125 54.2917 82.6667 54 83.125C53.6667 83.5833 53.3333 83.9792 53 84.3125C52.7083 84.6875 52.2292 84.8333 51.5625 84.75C51.4375 84.625 51.2708 84.5 51.0625 84.375C50.8542 84.25 50.6667 84.1458 50.5 84.0625C50.0417 83.8542 49.7917 83.6875 49.75 83.5625C49.75 83.4792 49.6042 83.3333 49.3125 83.125C48.9792 83.3333 48.4167 83.5417 47.625 83.75C46.8333 84 45.9792 84.2083 45.0625 84.375C44.1875 84.5833 43.3125 84.7708 42.4375 84.9375C41.6042 85.1042 40.9792 85.2083 40.5625 85.25C40.3542 85.0417 40.1667 84.8542 40 84.6875C39.8333 84.5625 39.6458 84.3958 39.4375 84.1875H39.375C38.3333 84.3958 37.3125 84.5208 36.3125 84.5625C35.3542 84.6458 34.3958 84.6875 33.4375 84.6875C32.4792 84.6875 31.5208 84.6875 30.5625 84.6875C29.6042 84.6875 28.625 84.7083 27.625 84.75C27 83.7083 26.375 83.1667 25.75 83.125C25.125 83.125 24.5 83.2917 23.875 83.625C23.25 83.9583 22.6458 84.3125 22.0625 84.6875C21.4375 85.0625 20.8125 85.0833 20.1875 84.75L20.125 84.8125C19.0833 85.2708 18.1458 85.7917 17.3125 86.375C16.4792 87 15.6667 87.6042 14.875 88.1875C14.0417 88.8125 13.1875 89.375 12.3125 89.875C11.3958 90.4167 10.3542 90.7917 9.1875 91C8.52083 90.5 7.89583 90.3542 7.3125 90.5625C6.72917 90.7708 6.16667 91.0417 5.625 91.375C5.04167 91.7083 4.5 91.9583 4 92.125C3.5 92.2917 3.02083 92.1042 2.5625 91.5625H2.5V91.5C2.25 91.3333 2.02083 91.2708 1.8125 91.3125C1.60417 91.3542 1.41667 91.4167 1.25 91.5C1.04167 91.625 0.875 91.75 0.75 91.875C0.625 92 0.5 92.0417 0.375 92C0.208333 92 0.0833333 91.8958 0 91.6875C0.208333 91.2292 0.5625 90.875 1.0625 90.625C1.5625 90.375 2.10417 90.125 2.6875 89.875C3.27083 89.6667 3.85417 89.3958 4.4375 89.0625C5.02083 88.7708 5.5 88.3333 5.875 87.75C6.83333 87.25 7.8125 86.7917 8.8125 86.375C9.77083 85.9583 10.6458 85.3958 11.4375 84.6875C12.1458 84.8125 13 84.7083 14 84.375C14.9583 84.0833 15.7917 83.8333 16.5 83.625L16.6875 83.5C16.8125 83.2083 17 82.9792 17.25 82.8125C17.4583 82.6458 17.7083 82.5 18 82.375C18.25 82.2083 18.5208 82.0208 18.8125 81.8125C19.1042 81.5625 19.375 81.25 19.625 80.875L19.6875 80.8125L19.625 80.75C19.375 79.9583 19.0625 79.25 18.6875 78.625C18.2708 78 17.875 77.3958 17.5 76.8125C17.0833 76.1875 16.7292 75.5417 16.4375 74.875C16.1458 74.2083 16 73.4375 16 72.5625C16.2083 72.3125 16.4167 72.0208 16.625 71.6875C16.8333 71.3542 17.0625 71.0417 17.3125 70.75C17.5625 70.4167 17.8333 70.1458 18.125 69.9375C18.4167 69.6875 18.75 69.5625 19.125 69.5625L19.8125 70.1875C20.2292 69.7292 20.7708 69.5 21.4375 69.5C22.0625 69.5 22.75 69.5833 23.5 69.75C24.2083 69.875 24.9375 70.0208 25.6875 70.1875C26.3958 70.3125 27.0417 70.2917 27.625 70.125C28.2917 70.4583 28.8958 70.8542 29.4375 71.3125C29.9792 71.7708 30.5417 72.1667 31.125 72.5C31.6667 72.8333 32.2708 73.0625 32.9375 73.1875C33.5625 73.2708 34.2917 73.1042 35.125 72.6875L35.3125 72.625V72.5C35.3958 71.875 35.6458 71.3958 36.0625 71.0625C36.5208 70.6875 37 70.3542 37.5 70.0625C38 69.7708 38.4583 69.4792 38.875 69.1875C39.2917 68.8542 39.5417 68.4167 39.625 67.875C40.75 66.9167 41.7292 66.0417 42.5625 65.25C43.4375 64.4583 44.2292 63.6667 44.9375 62.875C45.6875 62.0417 46.3958 61.1667 47.0625 60.25C47.7708 59.3333 48.5417 58.25 49.375 57L49.4375 56.9375C49.3542 56.6458 49.4583 56.2917 49.75 55.875C50.0833 55.4167 50.3958 54.9167 50.6875 54.375C50.9792 53.8333 51.1667 53.25 51.25 52.625C51.3333 52 51.125 51.3333 50.625 50.625C50.9167 50.0417 51.1042 49.4583 51.1875 48.875C51.3125 48.2917 51.5625 47.7292 51.9375 47.1875L52.0625 46.9375C51.6875 46.7708 51.4792 46.5 51.4375 46.125C51.4375 45.7083 51.4583 45.25 51.5 44.75C51.5833 44.25 51.625 43.75 51.625 43.25C51.6667 42.7083 51.5208 42.25 51.1875 41.875C52.0208 41.25 52.5417 40.5208 52.75 39.6875C53 38.8542 53.1667 37.9792 53.25 37.0625C53.3333 36.2708 53.4375 35.6667 53.5625 35.25C53.7292 34.7917 53.9792 34.1875 54.3125 33.4375L54.25 33.375C53.75 32.2083 53.7083 31.2292 54.125 30.4375C54.5417 29.6458 55.125 28.9167 55.875 28.25C56.625 27.5417 57.3958 26.8542 58.1875 26.1875C59.0208 25.5208 59.5833 24.7083 59.875 23.75C60.5833 23.25 61.375 23.0833 62.25 23.25C63 23.4167 63.6875 23.7917 64.3125 24.375C64.9375 24.9167 65.4792 25.5 65.9375 26.125C66.0208 26.2083 66.125 26.3333 66.25 26.5C66.375 26.6667 66.4375 26.7708 66.4375 26.8125C66.6042 27.3542 66.6667 27.9167 66.625 28.5C66.5833 29.0417 66.5 29.5833 66.375 30.125C66.25 30.6667 66.1458 31.2083 66.0625 31.75C66.0208 32.2917 66.0833 32.8333 66.25 33.375C65.75 34.2083 65.375 35.0833 65.125 36C64.9167 36.9167 64.7083 37.8333 64.5 38.75C64.3333 39.6667 64.1042 40.5625 63.8125 41.4375C63.5208 42.2708 63.0208 43.0208 62.3125 43.6875V43.75C61.7292 44.75 61.1458 45.6875 60.5625 46.5625C60.0208 47.3958 59.4583 48.25 58.875 49.125C58.2917 49.9583 57.7292 50.8333 57.1875 51.75C56.6458 52.6667 56.125 53.6458 55.625 54.6875L55.5625 54.75C55.8958 55.375 55.9375 55.9583 55.6875 56.5C55.4375 57.0417 55.1667 57.6042 54.875 58.1875C54.5833 58.7708 54.4167 59.3958 54.375 60.0625C54.3333 60.6875 54.6875 61.375 55.4375 62.125C55.2292 62.375 55.125 62.7083 55.125 63.125C55.125 63.5417 55.125 63.9583 55.125 64.375C55.1667 64.75 55.1667 65.125 55.125 65.5C55.0833 65.8333 54.9167 66.0833 54.625 66.25C54.75 66.3333 54.8542 66.4375 54.9375 66.5625C55.0625 66.6875 55.1875 66.7917 55.3125 66.875C55.3125 67.1667 55.2917 67.4583 55.25 67.75C55.25 68.0417 55.2292 68.3542 55.1875 68.6875C55.1458 69.1458 55.125 69.6042 55.125 70.0625C55.125 70.5208 55.1042 70.9792 55.0625 71.4375C55.0625 71.5208 55.0417 71.625 55 71.75C54.9583 71.8333 54.9375 71.9375 54.9375 72.0625C54.9375 72.3958 55 72.7083 55.125 73C55.2917 73.2917 55.4375 73.5833 55.5625 73.875C55.6875 74.125 55.7292 74.3958 55.6875 74.6875C55.6875 74.9792 55.5417 75.2708 55.25 75.5625L55.3125 75.6875C55.7292 76.3125 56.125 76.6458 56.5 76.6875C56.9167 76.7292 57.3125 76.7083 57.6875 76.625C58.1042 76.5 58.5208 76.4167 58.9375 76.375C59.3542 76.2917 59.7917 76.4792 60.25 76.9375C61.375 76.3542 62.5208 75.8542 63.6875 75.4375C64.8542 75.0208 66.0208 74.6458 67.1875 74.3125C68.7292 73.8958 70.2083 73.4375 71.625 72.9375C73.0833 72.3958 74.4375 71.6042 75.6875 70.5625C76.1875 70.1458 76.75 69.6458 77.375 69.0625C78.0417 68.4792 78.6667 68.125 79.25 68ZM63.125 28C62.9167 27.9583 62.7292 28 62.5625 28.125C62.3958 28.2083 62.2292 28.3125 62.0625 28.4375C61.8958 28.5208 61.7292 28.5625 61.5625 28.5625C61.4375 28.5208 61.3125 28.375 61.1875 28.125L60.75 28.25C60.8333 29.25 60.7292 30.1875 60.4375 31.0625C60.1458 31.9375 59.7708 32.7917 59.3125 33.625C58.8958 34.4167 58.4375 35.2292 57.9375 36.0625C57.4375 36.8542 57.0208 37.6875 56.6875 38.5625C56.3542 39.4375 56.1458 40.375 56.0625 41.375C55.9792 42.3333 56.125 43.375 56.5 44.5L56.5625 44.625C57.2708 44.625 57.75 44.4583 58 44.125C58.25 43.75 58.3958 43.3542 58.4375 42.9375C58.5208 42.5208 58.6042 42.1667 58.6875 41.875C58.7708 41.5417 59.0208 41.3958 59.4375 41.4375C59.4375 40.8542 59.5833 40.3542 59.875 39.9375C60.2083 39.4792 60.5208 39.0417 60.8125 38.625C61.1042 38.2083 61.3125 37.7708 61.4375 37.3125C61.6042 36.8542 61.5 36.2708 61.125 35.5625C61.4167 35.0208 61.5625 34.4167 61.5625 33.75C61.6042 33.0833 61.625 32.4167 61.625 31.75C61.6667 31.0833 61.7708 30.4583 61.9375 29.875C62.1458 29.2917 62.5625 28.8333 63.1875 28.5L63.125 28ZM51.8125 77C51.8125 76.125 51.625 75.3125 51.25 74.5625C50.9167 73.7708 50.75 72.9375 50.75 72.0625C50.75 71.8125 50.7708 71.625 50.8125 71.5C51.0625 70.7083 51.1875 69.9583 51.1875 69.25C51.1875 68.5417 51.1458 67.8542 51.0625 67.1875C50.9792 66.4792 50.9375 65.7708 50.9375 65.0625C50.8125 64.9375 50.8542 64.7708 51.0625 64.5625C51.3125 64.3542 51.4792 64.2083 51.5625 64.125C51.4375 64.0417 51.2083 63.8542 50.875 63.5625C50.5833 63.2708 50.375 63.0625 50.25 62.9375L49.875 63.125C49.875 63.4167 49.75 63.6667 49.5 63.875C49.25 64.0417 48.9792 64.2292 48.6875 64.4375C48.3958 64.6042 48.1667 64.8125 48 65.0625C47.8333 65.3125 47.8125 65.6875 47.9375 66.1875C46.9792 66.8958 46.1042 67.6667 45.3125 68.5C44.5208 69.3333 43.7292 70.1875 42.9375 71.0625C42.1875 71.8958 41.4167 72.7083 40.625 73.5C39.8333 74.25 38.9792 74.9375 38.0625 75.5625L39.9375 77.4375L40.125 77.375C40.5833 77.2083 40.9792 77.2083 41.3125 77.375C41.6875 77.5417 42.0208 77.7292 42.3125 77.9375C42.6458 78.1042 42.9583 78.2292 43.25 78.3125C43.5417 78.3958 43.8542 78.2917 44.1875 78C44.4375 78.1667 44.6042 78.3125 44.6875 78.4375C45.3125 78.4792 45.9167 78.5625 46.5 78.6875C47.125 78.8125 47.7292 78.8958 48.3125 78.9375C48.9375 78.9792 49.5208 78.9375 50.0625 78.8125C50.6458 78.6458 51.1875 78.3125 51.6875 77.8125H51.75C51.75 77.6875 51.75 77.5625 51.75 77.4375C51.7917 77.2708 51.8125 77.125 51.8125 77ZM35.125 78.625H35.0625C34.8125 78.0833 34.4167 77.8958 33.875 78.0625C33.7917 78.1042 33.625 78.1458 33.375 78.1875C33.125 78.2292 32.875 78.2917 32.625 78.375C32.3333 78.4167 32.1042 78.5 31.9375 78.625C31.7292 78.7083 31.6458 78.8125 31.6875 78.9375L29.875 79.9375L37.75 80.4375L35.125 78.625ZM29.4375 75.5625C29.0208 75.4375 28.5833 75.1875 28.125 74.8125C27.625 74.3958 27.2292 74.0417 26.9375 73.75C26.4375 74 25.9792 74.0833 25.5625 74C25.1458 73.875 24.75 73.7292 24.375 73.5625C24 73.3542 23.6458 73.1875 23.3125 73.0625C22.9375 72.9375 22.5625 73 22.1875 73.25C22.0208 73.1667 21.8958 73.0833 21.8125 73C21.6875 72.875 21.5833 72.7708 21.5 72.6875C21 73.3958 20.8958 74.0208 21.1875 74.5625C21.4792 75.0625 21.8542 75.5417 22.3125 76C22.7292 76.4167 23.1042 76.8333 23.4375 77.25C23.7292 77.625 23.6667 78.0625 23.25 78.5625L23.4375 78.9375H25.25C25.3333 78.8542 25.5208 78.7083 25.8125 78.5C26.0625 78.25 26.2083 78.0625 26.25 77.9375C26.4167 77.8125 26.625 77.625 26.875 77.375C27.125 77.0833 27.3958 76.8125 27.6875 76.5625C27.9792 76.2708 28.2708 76.0208 28.5625 75.8125C28.8542 75.6042 29.1458 75.5208 29.4375 75.5625ZM116.875 76.4375C116.292 77.4375 115.833 78.25 115.5 78.875C115.208 79.4583 114.896 79.9583 114.562 80.375C114.271 80.75 113.917 81.1042 113.5 81.4375C113.125 81.7292 112.583 82.1042 111.875 82.5625C111.417 82.9792 110.958 83.3333 110.5 83.625C110.125 83.9167 109.75 84.1667 109.375 84.375C109.042 84.5833 108.771 84.6875 108.562 84.6875C108.479 84.6875 108.396 84.6667 108.312 84.625C108.229 84.625 108.146 84.625 108.062 84.625C107.812 84.625 107.562 84.625 107.312 84.625C107.104 84.6667 106.917 84.5208 106.75 84.1875C106.625 84.3125 106.521 84.4583 106.438 84.625C106.354 84.7917 106.271 84.9375 106.188 85.0625C106.104 85.2292 105.979 85.3542 105.812 85.4375C105.688 85.5208 105.5 85.5208 105.25 85.4375L104.938 85.0625L104 85.875C102.833 85.2917 101.708 84.7917 100.625 84.375C99.5833 84 98.6458 83.5417 97.8125 83C96.9792 82.4583 96.2708 81.7708 95.6875 80.9375C95.1042 80.0625 94.6875 78.875 94.4375 77.375C94.2292 77.125 94 76.9167 93.75 76.75C93.5 76.5417 93.2083 76.4792 92.875 76.5625C92.4583 77.2708 91.9583 77.875 91.375 78.375C90.7917 78.875 90.2083 79.4167 89.625 80C89.4167 80.2083 89.25 80.4375 89.125 80.6875C89 80.9375 88.8333 81.1667 88.625 81.375C88.2917 81.75 87.8958 82.0208 87.4375 82.1875C86.9792 82.3125 86.5208 82.4375 86.0625 82.5625C85.6042 82.6875 85.1667 82.8958 84.75 83.1875C84.375 83.4792 84.1042 83.9792 83.9375 84.6875C83.4375 84.3958 82.9375 84.3125 82.4375 84.4375C82.0625 84.5208 81.6667 84.6042 81.25 84.6875C80.8333 84.8125 80.4167 84.875 80 84.875C79.625 84.9167 79.25 84.875 78.875 84.75C78.5 84.625 78.1667 84.3542 77.875 83.9375C77.2917 84.1875 76.75 84.1667 76.25 83.875C75.75 83.625 75.2708 83.2708 74.8125 82.8125C74.3958 82.3125 73.9792 81.7917 73.5625 81.25C73.1458 80.7083 72.75 80.3125 72.375 80.0625C72.125 79.3958 72.1458 78.8333 72.4375 78.375C72.6875 77.875 72.9792 77.4167 73.3125 77C73.6042 76.5417 73.8125 76.1042 73.9375 75.6875C74.0625 75.2292 73.875 74.6875 73.375 74.0625C73.7917 73.4375 74.1667 72.7917 74.5 72.125C74.8333 71.4167 75.1667 70.7292 75.5 70.0625C75.875 69.3542 76.25 68.6875 76.625 68.0625C77.0417 67.3958 77.5417 66.8333 78.125 66.375C77.875 66.0833 77.75 65.8125 77.75 65.5625C77.75 65.2708 77.8125 65 77.9375 64.75C78.0625 64.4583 78.2083 64.1875 78.375 63.9375C78.5417 63.6458 78.6667 63.375 78.75 63.125L80.5625 62.25L80.125 60.75C80.5833 60.8333 80.9167 60.8125 81.125 60.6875C81.375 60.5625 81.5417 60.375 81.625 60.125C81.75 59.875 81.8333 59.6042 81.875 59.3125C81.9583 58.9792 82.0625 58.6875 82.1875 58.4375C82.3958 58.0625 82.7083 57.7917 83.125 57.625C84 56.9583 84.8542 56.25 85.6875 55.5C86.5625 54.75 87.4167 54.0208 88.25 53.3125C89.125 52.6042 90.0208 51.9375 90.9375 51.3125C91.8542 50.6458 92.8542 50.0833 93.9375 49.625C94.6875 49.75 95.2708 49.9792 95.6875 50.3125C96.1458 50.6458 96.4792 51.0417 96.6875 51.5C96.9375 51.9583 97.125 52.4792 97.25 53.0625C97.375 53.6042 97.5 54.1458 97.625 54.6875C97.8333 55.3958 98.0833 56 98.375 56.5C98.6667 57 99.1667 57.4167 99.875 57.75C99.2917 58.75 99.0625 59.75 99.1875 60.75C99.3125 61.7083 99.4375 62.7292 99.5625 63.8125C99.6875 64.8125 99.6667 65.7917 99.5 66.75C99.375 67.7083 98.7708 68.5625 97.6875 69.3125C97.6042 69.6042 97.5833 69.9167 97.625 70.25C97.6667 70.5833 97.6875 70.9167 97.6875 71.25C97.6875 71.5833 97.625 71.8958 97.5 72.1875C97.375 72.4792 97.1458 72.7083 96.8125 72.875C97.1875 73.3333 97.375 73.7917 97.375 74.25C97.4167 74.7083 97.4375 75.1458 97.4375 75.5625C97.4792 75.9792 97.5833 76.3542 97.75 76.6875C97.9583 77.0208 98.4167 77.2708 99.125 77.4375C99.25 77.9792 99.3542 78.3958 99.4375 78.6875C99.5625 78.9375 99.6875 79.1458 99.8125 79.3125C99.9792 79.4792 100.188 79.6458 100.438 79.8125C100.688 79.9375 101.021 80.1458 101.438 80.4375C101.771 80.5208 102.146 80.5208 102.562 80.4375C102.979 80.3542 103.312 80.4792 103.562 80.8125C103.771 80.6042 104.021 80.5 104.312 80.5C104.604 80.4583 104.875 80.4583 105.125 80.5L105.938 81.875C106.396 81.5417 106.917 81.25 107.5 81C108.083 80.75 108.646 80.5417 109.188 80.375C109.812 80.2083 110.438 80.0625 111.062 79.9375L116.875 76.4375ZM92.875 55.0625C92.5 55.3958 92.0417 55.7292 91.5 56.0625C90.9583 56.3958 90.4167 56.75 89.875 57.125C89.375 57.5 88.9375 57.9167 88.5625 58.375C88.1875 58.7917 87.9583 59.2917 87.875 59.875C86.9167 60.0417 86.25 60.4375 85.875 61.0625C85.5 61.6875 85.1875 62.375 84.9375 63.125C84.6875 63.875 84.4167 64.625 84.125 65.375C83.8333 66.0833 83.3125 66.6458 82.5625 67.0625C82.3125 67.2292 82.0833 67.3125 81.875 67.3125C81.9167 67.3125 81.7917 67.3958 81.5 67.5625C81.0417 67.8958 80.6458 68.3125 80.3125 68.8125C79.9792 69.3125 79.6875 69.8542 79.4375 70.4375C79.2292 71.0208 79.0208 71.625 78.8125 72.25C78.6458 72.8333 78.4792 73.375 78.3125 73.875C77.7292 73.9583 77.2917 74.0833 77 74.25C76.7083 74.4167 76.5208 74.6042 76.4375 74.8125C76.3958 74.9792 76.4167 75.1875 76.5 75.4375C76.5833 75.6875 76.7083 75.9583 76.875 76.25C77.0417 76.5 77.2083 76.7917 77.375 77.125C77.5833 77.4583 77.75 77.7917 77.875 78.125C78 78.4583 78.0625 78.7917 78.0625 79.125C78.1042 79.4583 78.0208 79.7708 77.8125 80.0625C78.3958 80.5208 78.9583 80.625 79.5 80.375C80.0417 80.0833 80.5417 79.7708 81 79.4375C81.1667 79.3125 81.3333 79.1875 81.5 79.0625C81.7083 78.8958 81.9167 78.7708 82.125 78.6875C83.0833 78.8958 83.9583 78.8333 84.75 78.5C85.5417 78.1667 86.2708 77.7083 86.9375 77.125C87.6042 76.5417 88.25 75.9167 88.875 75.25C89.5 74.5833 90.125 74 90.75 73.5L90.25 73C91 72.7917 91.5208 72.5208 91.8125 72.1875C92.1458 71.8125 92.3542 71.3958 92.4375 70.9375C92.5208 70.4792 92.5208 70 92.4375 69.5C92.3542 68.9583 92.2917 68.3958 92.25 67.8125C92.2083 67.4792 92.1875 67.1667 92.1875 66.875C92.2292 66.5417 92.3125 66.2083 92.4375 65.875C92.1042 64.9167 92.0417 64 92.25 63.125C92.5 62.25 92.8125 61.4167 93.1875 60.625C93.6042 59.7917 94 58.9583 94.375 58.125C94.75 57.2917 94.9375 56.4167 94.9375 55.5L92.875 55.0625ZM142.438 78.5C142.396 79.125 142.312 79.8542 142.188 80.6875C142.062 81.5208 141.833 82.2917 141.5 83C141.167 83.7083 140.729 84.3125 140.188 84.8125C139.646 85.3125 138.938 85.5208 138.062 85.4375C137.562 85.3958 137.167 85.25 136.875 85C136.542 84.75 136.271 84.4375 136.062 84.0625C135.854 83.6875 135.708 83.2917 135.625 82.875C135.5 82.4167 135.438 81.9792 135.438 81.5625V80.25C135.562 79.6667 135.917 79.0208 136.5 78.3125C137.042 77.5625 137.604 77.0208 138.188 76.6875C138.812 76.3542 139.375 76.3542 139.875 76.6875C140.375 77.0208 140.646 77.9375 140.688 79.4375C140.979 79.1875 141.25 78.9375 141.5 78.6875C141.75 78.3958 142.062 78.3333 142.438 78.5Z" fill="white"/>
</svg>
