<svg width="54" height="55" viewBox="0 0 54 55" fill="#1A1A1A" xmlns="http://www.w3.org/2000/svg">
<g clip-path="url(#clip0_18_20)">
<path d="M0.503714 22.2263C0.683046 22.0925 1.05783 22.1272 1.36951 22.2113C1.46763 22.2372 1.45931 22.4575 1.53067 22.4842C1.66488 22.5373 1.76739 22.405 1.9059 22.4721C1.95275 22.4951 1.96433 22.839 2.01235 22.8555C2.2824 22.9415 2.49216 22.7991 2.75025 22.8054C4.03535 22.8322 5.27781 22.6131 6.56288 22.4102C6.99242 22.3412 7.55064 22.5 7.95437 22.2471C8.00165 22.2172 7.90955 21.9369 7.91407 21.9103C7.98405 21.5039 8.05934 22.1012 8.17261 22.1513C8.6252 22.3476 9.06137 22.2522 9.4071 22.0361C9.55457 21.9432 9.27311 21.4142 9.50162 21.6912C9.51738 21.7098 9.5428 22.028 9.59334 22.0484C9.70805 22.094 9.88463 21.9858 9.96435 21.9891C10.1207 21.9962 10.1444 21.9862 10.2849 21.9502C10.4811 21.9027 10.7327 21.9934 10.9243 21.8656C10.9648 21.8375 10.8395 21.5394 10.8981 21.4661C10.9578 21.3926 11.146 21.3678 11.2233 21.4247C11.3008 21.4815 11.3273 21.7361 11.3503 21.7897C11.5418 22.2428 11.6144 21.5202 11.6388 21.4959C12.0769 21.0768 12.585 21.3342 13.0557 21.2014C13.0823 21.1939 13.109 21.1856 13.1356 21.1767C13.485 21.0608 13.8393 20.8605 14.1805 20.8004C14.6201 20.7245 15.0138 20.8262 15.4328 20.7266C15.4773 20.7165 15.3779 20.348 15.4328 20.3349C16.0156 20.1959 16.614 20.1669 17.2149 20.3791C17.2751 20.4008 17.2187 20.74 17.2793 20.7817C17.655 21.0276 18.2049 21.6671 18.3979 20.2094C18.6432 20.2616 18.9415 20.321 19.1535 20.6188C19.2894 20.8106 19.1487 21.1715 19.32 21.0205C19.3588 20.9869 19.3158 20.6666 19.3742 20.6405C19.6211 20.531 19.8831 20.6475 20.1325 20.4993C20.1835 20.4683 20.185 20.1822 20.2018 20.1318C20.3443 19.7239 20.5024 20.4276 20.5401 20.4813C20.8378 20.882 21.0794 20.7611 21.3782 20.8086C21.4472 20.8199 21.4028 20.4277 21.4713 20.425C21.8271 20.4166 22.1883 20.5075 22.5039 20.7386C22.5737 20.7909 22.459 21.1008 22.4898 21.1423C22.624 21.3212 22.7492 20.7193 22.8814 20.8816C22.9092 20.9151 22.8482 21.187 22.8493 21.2185C22.8642 21.7118 23.0489 21.0558 23.0754 21.0462C23.4064 20.9083 23.4694 21.6521 23.7644 21.6236C23.8003 21.6197 23.7914 21.2544 23.8891 21.2648C24.1155 21.2885 24.3418 21.3403 24.563 21.4185C24.9857 21.5674 25.3868 21.8142 25.7327 22.1397C25.8152 22.2169 25.675 22.4439 25.6721 22.4774C25.6261 22.9997 25.8767 22.3724 25.9153 22.3602C26.2113 22.2797 26.2585 22.9125 26.6694 22.2161C27.5907 22.9164 28.731 23.0123 29.3824 24.2039C29.3909 24.2182 29.2385 24.5089 29.2559 24.5361C29.4641 24.8683 29.6132 24.3665 30.0561 23.9042C30.1684 23.7888 30.0026 24.5635 29.9921 24.6214C29.9542 24.8349 29.706 25.2538 29.705 25.299C29.7027 25.6566 30.3494 24.1674 30.5217 24.2701C30.5259 24.2758 30.38 24.5337 30.3821 24.5693C30.3881 24.6808 30.4815 24.5997 30.4825 24.7194C30.4843 24.9961 30.1893 25.7314 30.5319 25.4076C30.5759 25.3654 30.9319 24.5138 31.0661 24.6465C31.1187 24.6996 31.3941 24.8512 31.4429 24.9511C31.4922 25.0512 31.3152 25.2869 31.3151 25.3019C31.349 25.7802 31.2044 25.8799 31.0567 26.4652C30.9093 27.0483 31.4698 25.788 31.5762 25.6748C31.6824 25.5619 31.6915 25.9456 31.6786 26.069C31.6662 26.1927 31.541 26.3343 31.5455 26.4116C31.5779 26.9183 31.9313 25.8536 32.0949 25.7005C32.4823 25.3381 32.1699 26.3381 32.2771 26.5232C32.3058 26.573 32.3731 26.3428 32.4184 26.3459C32.5966 26.3612 32.5466 26.7033 32.8341 26.5426C32.8811 26.5165 33.2777 26.0473 33.1682 26.5066C33.1522 26.5726 33.0084 26.7801 33.0445 26.8698C33.0978 27.0039 33.2391 27.1585 33.3725 27.143C33.4715 27.1318 33.5696 26.7021 33.6041 26.8765C33.6193 26.9544 33.439 27.1281 33.4766 27.256C33.5142 27.3838 33.7112 27.4953 33.7883 27.5338C33.8654 27.5721 33.9616 27.2601 33.9768 27.2445C34.0654 27.1565 34.2714 27.1062 34.2835 27.1142C34.4994 27.2342 34.6812 27.4085 34.8559 27.5962C35.2028 27.9679 35.5076 28.3831 35.9664 28.5232C36.0201 28.5399 36.1274 28.2154 36.137 28.2148C36.3591 28.1855 35.8599 28.9195 35.8513 29.2604C36.1168 28.6307 36.1324 28.7831 36.28 28.7849C36.3517 28.7854 36.4295 28.5267 36.4458 28.5053C36.6945 28.1902 36.5394 28.6962 36.511 28.8017C36.4065 29.1897 36.6554 28.8059 36.5862 29.0655C36.518 29.3235 36.2745 29.6216 36.3888 29.6837C36.5199 29.4797 36.6978 28.8491 36.8246 28.8049C37.2999 28.6356 37.696 29.4416 37.9371 29.6389C38.176 29.8353 38.2764 29.8406 38.3911 30.0065C38.6036 30.3089 38.6891 29.8163 38.9432 29.7117C39.197 29.6067 38.6603 30.6347 38.587 30.8793C38.5135 31.1236 38.6403 30.9006 38.6166 31.0442C38.593 31.1878 38.462 31.3088 38.5122 31.3957C38.5617 31.4821 38.9297 31.1791 39.0559 30.9508C39.3231 30.4674 39.4611 29.8815 39.5681 30.1729C39.5741 30.19 39.4215 30.4543 39.4506 30.5054C39.6821 30.9006 40.0225 31.1013 40.2674 31.4671C40.3012 31.518 40.1334 31.8137 40.1521 31.8472C40.3484 32.1974 40.4639 31.6098 40.8506 31.0937C40.5016 31.8678 40.3927 32.3968 40.5991 32.51C40.7229 32.5781 40.8393 32.2211 41.0165 32.0189C41.07 31.9579 41.0663 32.2423 41.1461 32.0874C41.407 31.5809 41.5568 30.9411 41.6769 31.288C41.6818 31.3041 41.5389 31.5813 41.5644 31.6155C41.7269 31.8372 41.9703 31.2922 42.222 31.338C42.4179 31.373 42.6065 31.8726 42.7897 32.0274C42.4533 32.927 42.7212 32.8138 43.0275 32.2291C43.1524 32.3192 43.3084 32.3523 43.4047 32.4986C43.4379 32.5486 43.3156 32.7973 43.311 32.8283C43.2373 33.3129 43.512 32.7322 43.5495 32.722C43.9454 32.6366 44.0376 33.2144 44.4911 32.895C44.5074 32.8834 44.7378 32.2567 44.6606 32.7546C44.6549 32.7888 44.4608 33.0345 44.5917 33.1181C44.7264 33.2034 44.8814 33.6607 45.1725 33.448C45.244 33.3976 45.529 32.9297 45.4965 33.3748C45.4917 33.4352 45.4201 33.6128 45.4065 33.7226C45.3643 34.0729 45.5988 33.4394 45.4974 34.0178C45.3973 34.5968 45.4276 35.0735 45.7432 34.7726C45.7538 34.7643 45.9535 34.2673 46.0154 34.3005C46.1142 34.3545 46.2275 34.518 46.3333 34.5544C46.3838 34.5716 46.4439 34.2381 46.4544 34.2355C46.8456 34.1837 47.0076 34.5587 47.3408 34.8086C47.404 34.8558 47.71 34.4773 47.7517 34.8688C47.8027 35.2985 47.2723 36.8557 47.7153 36.5811C47.8944 36.471 48.5091 34.4767 48.5297 35.6023C49.053 35.4616 49.4279 36.1128 49.9754 35.7876C50.0009 35.7732 50.1137 35.1944 50.1576 35.2061C50.23 35.2252 50.2581 35.5021 50.3113 35.523C50.4904 35.599 50.6699 35.4552 50.8232 35.3998L50.7995 35.4048C50.8363 35.3845 50.8723 35.3696 50.9123 35.3625C50.9904 35.3473 51.0418 35.6283 51.1463 35.6008C51.2547 35.5679 51.1722 35.2028 51.357 35.2896C51.4905 35.3588 51.9914 35.9011 52.2201 35.7756C51.7715 35.2233 51.8676 35.1451 51.8233 34.8687C51.8127 34.8174 51.6051 34.7014 51.5897 34.671C51.5159 34.554 51.7021 34.6188 51.6108 34.5008C51.5884 34.4732 51.3877 34.358 51.3566 34.3318C51.08 34.1234 51.5822 34.2257 51.6775 34.2142C52.0243 34.222 51.7561 34.0747 51.9001 34.0279C51.9054 34.026 51.9102 34.0244 51.9155 34.0231C52.0551 33.9835 52.1828 34.1471 52.2785 34.0595C52.4844 33.8632 52.4844 33.5425 52.5121 33.3073C52.5222 33.2122 52.2188 33.2484 52.2136 33.234C52.1517 33.0404 52.4783 32.8624 51.8865 32.7284C53.431 32.6681 51.742 32.6077 52.0559 32.3539C52.0814 32.3338 52.8106 32.3223 52.916 32.4104C53.0214 32.4993 52.7904 32.6203 52.9524 32.7473C52.9911 32.7753 53.6663 32.9813 53.7062 33.0107C54.0193 33.2242 52.93 33.1658 52.8699 33.1684C52.2201 33.2157 52.9371 33.4829 52.9814 33.5518C53.1878 33.84 53.006 34.0419 53.1228 34.3175C53.1258 34.3253 53.1302 34.3331 53.1355 34.3409C53.2536 34.5171 53.8805 34.7321 53.8221 34.8797C53.7181 35.1386 53.398 35.231 53.1904 35.3309C52.9748 35.441 52.8945 35.5481 53.0552 36.1203C53.1184 36.3563 53.7971 36.8676 52.9753 36.8101C52.9112 36.8222 52.3115 36.5598 52.3562 37.0005C52.3602 37.0585 52.48 37.2803 52.4616 37.319C52.3286 37.5756 52.1174 37.4636 51.9589 37.649C51.8048 37.827 51.6196 38.0451 51.4097 38.0405C51.3395 38.0518 51.1362 38.1146 51.0651 38.113C51.0558 38.1112 51.0462 38.1089 51.037 38.1061C50.9004 38.0686 50.7231 37.5904 50.6713 37.4726C50.5334 37.1345 50.3749 37.694 50.3077 37.2754C50.248 36.8546 50.4004 36.2274 50.2384 35.9486C50.2006 36.626 50.1506 37.3204 50.1023 38.0009C49.6141 37.9423 49.2321 37.653 48.8217 37.5966C48.7716 37.5903 48.7637 37.9599 48.7075 37.9621C48.463 37.9674 48.3216 37.6668 48.0687 37.7061C47.883 37.7407 47.602 38.0591 47.4014 38.0998C47.4629 37.3161 47.1371 37.4886 46.9681 37.3592C46.9079 37.314 46.9619 37.116 46.9312 37.0355C46.8149 36.7361 46.7293 37.4221 46.6551 37.5096C46.335 37.8813 46.7064 36.3879 46.4588 36.34C46.447 36.3376 46.0795 37.0727 46.0435 37.1136C45.8187 37.3841 46.0971 36.8308 46.029 36.7415C45.9021 36.5772 45.8534 36.3507 45.6089 36.5125C45.5382 36.5611 45.2656 37 45.2765 36.5822C45.2783 36.5276 45.3626 36.2717 45.3569 36.2524C45.244 35.9252 44.9929 36.7349 44.7971 36.9646C44.5991 37.1933 44.6026 36.564 44.6202 36.3894C44.6619 35.9362 44.744 36.2396 44.7616 36.2006C44.9692 35.737 44.823 35.7715 44.7436 35.6918C44.9802 34.8936 44.8375 34.8876 44.6597 35.6122C44.6408 35.6915 44.7361 35.6479 44.7436 35.6918C44.4182 36.4362 44.2334 36.4715 44.3129 35.6805C44.3502 35.3097 44.5482 34.9442 44.2808 34.9936C44.1592 35.0152 44.0187 35.5751 43.8797 35.6835C43.5603 35.9302 43.4714 35.3094 43.2321 35.2921C43.1477 35.287 43.1184 35.6155 43.057 35.622C42.893 35.6399 42.8494 35.3628 42.6707 35.4114C42.6543 35.4161 42.5765 35.7389 42.5316 35.7225C42.1947 35.6069 41.9766 35.2722 41.6481 35.1058C41.4878 35.0249 41.1307 35.0484 40.9787 34.932C40.7079 34.7293 40.5266 34.1077 40.2388 34.0876C40.0511 34.073 39.9658 34.3937 39.8167 34.565C39.5274 34.8971 39.5767 34.0574 39.5898 33.9302C39.5905 33.9261 39.7561 33.927 39.7448 33.7332C39.8313 33.3872 39.592 33.9296 39.5898 33.9302C39.5981 33.848 39.3489 33.6328 39.2738 33.6626C39.2319 33.6786 39.1326 33.9732 39.1129 33.9761C38.6445 34.037 38.247 33.9096 37.9322 33.5722C37.928 33.5628 38.0708 33.2504 38.0594 33.2324C37.9027 32.9718 37.6088 33.2873 37.3338 33.4181C37.0605 33.5496 36.9496 33.3913 37.0818 32.7912C36.9219 32.7855 36.8367 32.438 36.7911 32.2302C36.7456 32.0226 36.4627 32.6273 36.4478 32.6339C35.9811 32.8507 35.9645 32.4007 35.6782 32.1641C35.5452 32.0521 35.2178 31.9704 35.0286 31.9419C34.8786 31.9207 34.8676 31.7326 34.7128 31.7558C34.6919 31.7587 34.5843 32.0389 34.5748 32.0465C34.2997 32.2938 34.6625 31.6687 34.6901 31.5346C34.7907 31.0474 34.8372 30.7837 34.5812 30.8866C34.5226 30.9102 33.9745 31.794 33.8791 31.8071C33.7578 31.8235 33.9487 31.5034 33.8176 31.529C33.8065 31.531 33.711 31.742 33.6577 31.6975C33.4905 31.5604 33.3287 31.3784 33.152 31.2267C33.0666 31.1532 32.9784 31.0875 32.8849 31.0381C32.8463 31.0167 32.738 31.3785 32.6797 31.353C32.4043 31.2322 32.1306 31.0444 31.9584 30.7344C31.9162 30.6568 32.065 30.4492 32.0846 30.3721C32.2022 29.9049 31.7993 30.4374 31.775 30.437C31.1861 30.4432 31.1064 29.6795 30.5306 29.6551C30.4985 29.6547 30.0013 30.1844 30.1822 29.5754C30.1942 29.5348 30.3817 28.9133 30.1236 29.2567C30.1075 29.2782 30.0199 29.6037 29.944 29.5173C29.8674 29.4306 29.6314 29.5369 29.66 29.1373C29.669 29.0115 29.8436 28.3843 29.5149 28.7667C29.4917 28.7932 28.8336 29.711 29.1009 28.9628C29.1448 28.8396 29.5051 28.0951 29.1873 28.3954C29.1263 28.454 29.0966 28.6509 28.9788 28.7133C28.7984 28.8102 28.7502 28.5231 28.4677 28.7815C28.4177 28.8272 28.0908 29.2831 28.1899 28.8481C28.2054 28.7799 28.342 28.5411 28.3141 28.4886C28.1817 28.2381 27.9052 28.2896 27.7867 28.0017C27.7444 27.9002 27.9583 27.5091 27.9331 27.3572C27.9085 27.2055 27.8048 27.0151 27.649 27.1616C27.4933 27.3084 27.2977 28.0134 27.1637 28.0041C26.585 27.9663 26.2702 27.3305 25.8093 27.0437C25.7415 27.0015 25.7132 27.2713 25.6083 27.2275C25.216 27.062 24.5079 27.0291 24.3274 26.383C24.1753 25.8611 24.6041 25.6587 24.4405 25.4104C24.3579 25.2905 24.0386 26.0705 24.0097 26.0889C23.7855 26.2284 23.6919 26.0288 23.555 25.9438C23.5089 25.9157 23.4586 25.8999 23.3992 25.9122C23.3493 25.9228 23.3214 26.2704 23.2801 26.2758C23.1394 26.2978 23.0345 26.1114 22.9047 26.107C22.8466 26.1059 22.8075 26.3661 22.7607 26.3335C22.6479 26.2586 22.5608 26.1246 22.482 25.8547C22.4745 25.8301 22.6054 25.5255 22.5143 25.4924C22.3678 25.44 22.2152 25.1598 22.0034 25.3741C21.9402 25.4388 21.8538 26.0328 21.8022 25.6018C21.7914 25.5119 21.9185 24.8021 21.7048 25.3967C21.6666 25.4948 21.3508 26.2934 21.3116 25.7393C21.3011 25.5933 21.2958 24.9952 21.2219 25.0783C21.2119 25.0918 21.2103 25.4177 21.1555 25.4416C20.9633 25.5205 20.7773 25.4621 20.5834 25.5427C20.5318 25.5649 20.5772 25.9062 20.5022 25.9288C20.2965 25.9916 20.0556 25.8853 19.8644 25.7677C19.7939 25.7237 19.8575 25.45 19.8539 25.4195C19.7909 24.9236 19.7089 25.5826 19.6797 25.6197C19.4954 25.8413 19.3728 25.525 19.2075 25.6028C19.1624 25.6236 19.188 25.9403 19.1786 25.9683C19.0829 26.2414 19.1607 25.6755 19.1034 25.6117C18.9419 25.4312 18.7562 25.4556 18.5902 25.4978C18.5293 25.5139 18.6008 25.8794 18.5468 25.8896C18.2281 25.957 17.8996 25.9362 17.5751 25.7574C17.5139 25.7231 17.5352 25.4387 17.5192 25.3753C17.406 24.9318 17.316 25.5562 17.2924 25.6172C17.1801 25.8957 17.1125 25.652 17.0003 25.7106C16.4583 25.9995 15.7595 25.9473 15.2144 25.9631C14.834 25.9735 14.4885 25.9475 14.1487 25.9641C13.8135 25.9907 13.4999 26.0375 13.1567 26.1669C13.1101 26.1843 13.2354 26.5355 13.1962 26.5551C12.6924 26.7897 12.1364 26.7953 11.6333 27.049C11.5921 27.0691 11.7278 27.3973 11.6643 27.4411C11.5318 27.5343 11.345 27.5672 11.1782 27.4973C11.0969 27.4639 11.1272 27.1408 11.0467 27.1133C10.8621 27.0476 10.6729 27.075 10.517 27.1779C10.4503 27.2226 10.6344 27.5453 10.542 27.5758C9.90899 27.7922 9.29462 28.0309 8.54964 27.7563C8.49793 27.7376 8.30458 27.0305 8.23938 27.195C8.2749 27.3964 8.32552 27.6308 8.36802 27.8447C7.46064 28.223 6.47934 28.2359 5.52428 28.4583C5.48376 28.4678 5.63268 28.8299 5.55466 28.8502C5.10558 28.9678 4.69079 29.1922 4.14637 28.9363C4.09353 28.9112 3.98349 28.2328 3.8656 28.3707C3.84357 28.3961 3.66092 28.538 3.63363 28.6984C3.63051 28.7223 3.73044 29.0264 3.66407 29.0531C3.28554 29.2006 2.85745 29.2323 2.41169 29.1332C2.33829 29.1169 2.35277 28.7643 2.30047 28.7496C1.93973 28.6453 1.60219 28.9818 1.17949 28.731C0.892031 28.5598 0.93203 27.9571 0.753545 27.391C0.72687 27.3119 0.571863 27.3101 0.547238 26.9708C0.505632 26.1189 0.517205 25.1831 0.460847 24.2757C0.439225 24.0808 0.441851 24.2915 0.435159 23.8183C0.429204 23.7869 0.44355 23.629 0.446162 23.4677C0.445086 23.3564 0.412909 23.0132 0.413334 22.8706C0.413696 22.728 0.452067 23.0146 0.472723 22.8439C0.495188 22.6705 0.429215 22.2848 0.503714 22.2263ZM36.5904 31.3019C36.621 30.9503 36.1312 32.0185 36.3526 31.8235C36.3639 31.8128 36.5892 31.3193 36.5904 31.3019ZM49.359 36.7477C49.2809 36.1951 49.0578 36.9445 49.1123 37.3725C49.1729 37.8006 49.3862 36.9156 49.359 36.7477ZM51.2438 36.3532C50.9457 36.0209 51.2859 37.6898 51.4808 37.2595C51.4936 37.2343 51.2631 36.3715 51.2438 36.3532ZM1.28976 27.1458C1.28554 27.1305 1.18921 27.1316 1.1894 27.1475C1.18673 27.5358 1.3847 27.5325 1.28976 27.1458ZM52.3944 34.5293C52.1877 34.5168 52.336 34.8033 52.5977 34.8298C52.8159 34.8348 52.6592 34.5273 52.3944 34.5293ZM32.034 27.0421C32.0402 27.0254 31.991 26.9759 31.9495 27.0657C31.8162 27.3552 31.9323 27.3232 32.034 27.0421ZM52.6223 31.5197C52.5661 31.9523 51.3329 32.1908 51.4742 31.7367C51.4997 31.6535 51.8658 31.9179 51.9774 31.8127C52.1802 31.6178 51.4075 31.4878 51.8215 31.2881C51.8975 31.2519 52.6284 31.4948 52.624 31.5204C52.6236 31.5202 52.6232 31.5199 52.6223 31.5197ZM37.1036 29.975C37.1079 29.9597 37.0351 29.9003 37.027 29.9133C36.8332 30.2301 36.9803 30.3503 37.1036 29.975ZM29.0404 24.3777C29.049 24.3445 28.8748 24.2113 28.8568 24.2363C28.523 24.7464 28.8691 25.0143 29.0404 24.3777ZM42.7841 32.053C43.0028 31.7408 43.1181 31.7473 43.0272 32.2285C42.9471 32.162 42.8637 32.1176 42.7841 32.053Z" fill="#1A1A1A"/>
<path d="M39.1548 15.6591C39.1014 15.9527 38.8474 16.2038 38.6037 16.3579C38.5277 16.4064 38.391 16.2545 38.3315 16.2828C38.2152 16.3384 38.241 16.4877 38.1137 16.5337C38.0707 16.5483 37.844 16.3263 37.8046 16.3458C37.5908 16.4541 37.5561 16.6785 37.3981 16.8308C36.6191 17.5806 36.0163 18.4365 35.3778 19.305C35.1676 19.5914 34.7309 19.8081 34.6508 20.2039C34.6417 20.2502 34.8726 20.3872 34.8867 20.4076C35.1 20.7216 34.6797 20.362 34.5803 20.393C34.1871 20.5168 33.9876 20.8263 33.916 21.1696C33.8862 21.3161 34.3864 21.5133 34.0762 21.4557C34.0551 21.4521 33.84 21.2521 33.7971 21.2668C33.7003 21.3006 33.6636 21.472 33.6133 21.5162C33.5152 21.6005 33.5074 21.6204 33.4465 21.7238C33.3611 21.8635 33.1511 21.95 33.1182 22.1425C33.1119 22.1841 33.3736 22.3147 33.3849 22.3968C33.3962 22.4788 33.2991 22.6028 33.217 22.6088C33.1349 22.6146 32.9593 22.4578 32.9119 22.4347C32.5128 22.2381 32.9238 22.7657 32.9247 22.7954C32.9264 23.3267 32.4614 23.4415 32.2657 23.7952C32.1176 24.0645 32.0514 24.4212 31.8964 24.6665C31.7102 24.9593 31.438 25.1219 31.295 25.4336C31.2796 25.4663 31.5788 25.6355 31.5606 25.6759C31.3667 26.1048 31.1113 26.4842 30.6977 26.7471C30.656 26.7732 30.4406 26.5401 30.3843 26.5554C30.0451 26.6532 29.3434 26.6854 30.3248 27.6217C30.1894 27.7578 30.0319 27.9295 29.7335 27.9191C29.5414 27.9127 29.3281 27.6212 29.3749 27.8238C29.3852 27.8693 29.6377 28.0081 29.6354 28.0632C29.6261 28.2945 29.4459 28.4233 29.4722 28.6794C29.478 28.7319 29.6918 28.8783 29.724 28.916C29.9825 29.2237 29.4039 28.9826 29.3509 28.9844C28.9523 29.0041 28.9671 29.2473 28.843 29.4495C28.8141 29.4964 29.1262 29.6491 29.1084 29.7017C29.0125 29.9716 28.8463 30.2041 28.5888 30.3454C28.5308 30.3764 28.32 30.1495 28.2801 30.1551C28.1073 30.1819 28.5429 30.5448 28.3855 30.5776C28.3528 30.5849 28.1562 30.4191 28.1315 30.4063C27.7439 30.2056 28.2102 30.6355 28.2119 30.6601C28.2439 30.9805 27.6497 30.7199 27.6089 30.9757C27.6045 31.0067 27.893 31.1471 27.865 31.2223C27.6803 31.7236 27.3382 32.1436 26.8786 32.4288C26.8073 32.4736 26.6425 32.2777 26.6162 32.2639C26.2036 32.0517 26.6757 32.4762 26.6816 32.5129C26.7147 32.7927 26.2025 32.6384 26.7262 33.2107C26.0887 33.8015 25.988 34.8018 25.0264 35.1314C25.0148 35.136 24.7805 34.9303 24.7584 34.9404C24.4893 35.0598 24.8941 35.3099 25.2704 35.8185C25.3648 35.9463 24.738 35.6262 24.6909 35.6046C24.5181 35.5241 24.1778 35.2042 24.1413 35.1938C23.8514 35.1174 25.0607 36.0326 24.9799 36.1709C24.9754 36.1736 24.7653 35.9839 24.7366 35.9784C24.6465 35.9608 24.7133 36.0646 24.6166 36.0405C24.3935 35.984 23.7945 35.5589 24.0613 35.9449C24.0961 35.9948 24.7901 36.5004 24.6851 36.5989C24.6426 36.6377 24.5259 36.8639 24.446 36.8901C24.3662 36.9162 24.172 36.7035 24.16 36.7004C23.7742 36.6369 23.691 36.4812 23.2147 36.2271C23.0816 36.1561 23.0669 36.1659 23.1166 36.2196C23.2443 36.3574 23.7967 36.7831 23.8641 36.8713C23.9573 36.9936 23.6476 36.9264 23.5473 36.8906C23.447 36.8548 23.3299 36.7092 23.2675 36.6984C22.8583 36.6302 23.7268 37.1707 23.8541 37.3545C24.1557 37.7896 23.3411 37.2995 23.1934 37.3651C23.1536 37.3827 23.3413 37.4908 23.3396 37.5331C23.3306 37.699 23.0537 37.584 23.1893 37.8871C23.2113 37.9366 23.599 38.402 23.2256 38.2087C23.1718 38.1807 23.0014 38.0041 22.9294 38.021C22.8215 38.0459 22.6999 38.1478 22.7143 38.2775C22.7251 38.3732 23.0741 38.5507 22.9337 38.5488C22.871 38.5478 22.7275 38.3433 22.6249 38.3534C22.5224 38.3632 22.4361 38.5259 22.4056 38.5916C22.3757 38.6568 22.6292 38.8102 22.642 38.8276C22.7145 38.9289 22.7574 39.1341 22.751 39.1441C22.4703 39.6783 21.7895 39.8361 21.6158 40.4369C21.6019 40.4837 21.863 40.6561 21.8634 40.6653C21.8847 40.8816 21.297 40.249 21.0218 40.1657C21.5276 40.5548 21.4037 40.5372 21.4005 40.6755C21.3994 40.7425 21.6071 40.8738 21.6242 40.894C21.8754 41.1983 21.4689 40.9389 21.3843 40.8882C21.0729 40.7021 21.3789 41.0228 21.1705 40.8988C20.9635 40.7759 20.7266 40.4798 20.6751 40.5722C20.8375 40.7419 21.3434 41.0529 21.3768 41.1823C21.5027 41.6727 20.8418 41.8559 20.6753 42.0324C20.5095 42.2081 20.5015 42.3003 20.3624 42.3684C20.1113 42.4907 20.5045 42.6934 20.5776 42.9576C20.6506 43.2221 19.8468 42.4607 19.6532 42.3305C19.4598 42.2 19.6338 42.3746 19.5193 42.316C19.4049 42.2573 19.3132 42.1047 19.2413 42.129C19.1697 42.153 19.3974 42.5714 19.5748 42.7477C19.9507 43.1212 20.4153 43.401 20.1751 43.4258C20.161 43.427 19.9563 43.2162 19.9136 43.23C19.5825 43.345 19.404 43.6039 19.0927 43.7336C19.0496 43.7511 18.823 43.515 18.7952 43.5229C18.5037 43.6046 18.9666 43.8742 19.3539 44.3752C18.757 43.8378 18.3408 43.5899 18.2355 43.7478C18.172 43.8426 18.4503 44.0494 18.5994 44.2696C18.6445 44.3357 18.4171 44.2511 18.5351 44.3687C18.9205 44.7538 19.4221 45.074 19.1329 45.0877C19.1196 45.0877 18.9093 44.8761 18.8796 44.8899C18.6869 44.9785 19.1046 45.3581 19.0447 45.5782C18.9973 45.7515 18.5788 45.7774 18.4364 45.8982C17.7513 45.3162 17.814 45.5972 18.2491 46.0567C18.1646 46.1424 18.1211 46.275 17.9928 46.318C17.9489 46.333 17.7644 46.1429 17.7402 46.129C17.3616 45.9097 17.7935 46.3433 17.7974 46.3805C17.8199 46.7678 17.3476 46.665 17.5418 47.1817C17.5489 47.2001 18.0164 47.6174 17.6299 47.3831C17.6034 47.3666 17.4351 47.1077 17.3497 47.2002C17.2643 47.2927 16.8799 47.2767 17.0046 47.6125C17.0345 47.6935 17.3618 48.1131 17.0135 47.9288C16.9664 47.9035 16.8369 47.7767 16.7521 47.726C16.4813 47.565 16.9457 47.9992 16.5034 47.7042C16.0611 47.4092 15.6844 47.2585 15.8695 47.6477C15.8746 47.6594 16.2321 48.0199 16.1958 48.0616C16.1376 48.1277 15.9896 48.1661 15.9414 48.2463C15.9185 48.2848 16.17 48.4631 16.1701 48.4733C16.1393 48.838 15.8129 48.8363 15.5468 49.0267C15.4975 49.0613 15.7269 49.4789 15.4106 49.3559C15.0643 49.2213 13.9777 48.1181 14.0968 48.5954C14.1439 48.7869 15.5306 50.174 14.6569 49.6932C14.6244 50.1934 14.0316 50.1697 14.0784 50.7403C14.0803 50.766 14.4575 51.1677 14.4284 51.1989C14.3845 51.2444 14.1744 51.1076 14.137 51.1349C13.9753 51.2439 14.0432 51.531 13.9172 51.6622C13.8698 51.7121 13.6858 51.5204 13.6292 51.5804C13.5729 51.64 13.8024 51.9119 13.6152 51.8968C13.4729 51.8847 12.8953 51.4946 12.7716 51.5345C13.293 51.9932 13.2398 52.0482 13.3025 52.2833C13.3148 52.3287 13.5126 52.4634 13.5279 52.4932C13.5939 52.6173 13.4169 52.5255 13.4926 52.6547C13.5107 52.6855 13.6893 52.8414 13.7141 52.8757C13.9326 53.1729 13.4563 52.9357 13.3736 52.8944C13.0589 52.7369 13.2687 52.9736 13.1266 52.9393C12.9846 52.905 12.9095 52.7066 12.8024 52.7172C12.5806 52.7405 12.4935 52.9413 12.3936 53.0735C12.3548 53.1275 12.6183 53.297 12.6183 53.3096C12.6031 53.4772 12.2728 53.3722 12.7061 53.8495C11.4248 52.86 12.7796 54.0226 12.4254 53.9732C12.3969 53.9686 11.8051 53.4792 11.7525 53.355C11.7 53.2314 11.9313 53.3142 11.8436 53.1295C11.8232 53.0861 11.3403 52.5184 11.3156 52.4771C11.1236 52.1531 12.0014 52.8949 12.0525 52.9307C12.6068 53.3187 12.0954 52.694 12.0746 52.6289C11.9795 52.3297 12.1786 52.3191 12.1217 52.0885C12.0856 51.9387 11.5214 51.4366 11.5777 51.3927C11.7644 51.2464 12.6035 51.868 12.0368 51.0844C11.9161 50.9174 11.268 50.4163 11.8507 50.6989C11.8874 50.7171 12.4044 51.0001 12.1614 50.6933C12.1307 50.6545 11.9492 50.4976 11.9406 50.4739C11.8865 50.3208 12.0607 50.4011 12.0399 50.2674C12.0191 50.1336 11.9741 49.9555 12.0909 49.9247C12.161 49.9059 12.5418 50.1339 12.6405 50.1813C12.9239 50.3194 12.5812 49.907 12.8979 50.1148C13.2162 50.3233 13.6019 50.7892 13.8633 50.8392C13.3945 50.4264 12.9168 49.9976 12.4469 49.5801C12.6251 49.3481 12.9362 49.2382 13.0771 48.9728C13.0942 48.9395 12.8199 48.7515 12.8316 48.7102C12.8818 48.537 13.1418 48.5723 13.1636 48.3663C13.1796 48.2059 12.9902 47.8523 12.9983 47.6778C13.5852 48.0726 13.5144 47.7416 13.6454 47.6588C13.6911 47.6295 13.8337 47.7567 13.9012 47.766C14.1523 47.7981 13.6382 47.4422 13.5839 47.3453C13.3529 46.9307 14.4431 47.8488 14.523 47.6617C14.5277 47.6521 14.0191 47.0509 13.9926 47.0055C13.8183 46.7119 14.2035 47.1626 14.2838 47.1412C14.4306 47.102 14.6164 47.1465 14.528 46.8769C14.5015 46.7975 14.1975 46.4027 14.5216 46.5706C14.5641 46.5926 14.7519 46.761 14.7679 46.7632C15.0418 46.7875 14.4438 46.2707 14.2903 46.0199C14.1368 45.769 14.6285 46.0038 14.7637 46.0816C15.1138 46.2819 14.8644 46.2429 14.8925 46.2722C15.2276 46.6207 15.2215 46.4808 15.2949 46.4403C15.8903 46.9332 15.9151 46.8098 15.3687 46.3963C15.3089 46.3513 15.3305 46.4499 15.2949 46.4403C14.7546 45.8889 14.7463 45.7241 15.3596 46.0712C15.647 46.234 15.9102 46.5355 15.9059 46.2824C15.904 46.168 15.4799 45.8508 15.4105 45.6924C15.2523 45.331 15.7545 45.4611 15.792 45.2589C15.8056 45.1856 15.5487 45.0505 15.5503 44.9939C15.5538 44.8431 15.7773 44.8964 15.756 44.7236C15.7538 44.7077 15.5065 44.5327 15.5235 44.499C15.648 44.2394 15.9281 44.1609 16.0904 43.9164C16.1681 43.799 16.1751 43.4773 16.2798 43.3751C16.4596 43.1971 16.9669 43.2184 17.0008 42.9648C17.0234 42.8011 16.7726 42.6318 16.6453 42.4474C16.3982 42.0906 17.0632 42.3775 17.164 42.4252C17.1673 42.4268 17.1575 42.5762 17.3126 42.6213C17.5835 42.798 17.1644 42.4273 17.164 42.4252C17.2295 42.4557 17.4124 42.294 17.3932 42.2159C17.3827 42.1733 17.1526 42.0011 17.1513 41.9824C17.1256 41.5416 17.2417 41.2195 17.5208 41.0255C17.5284 41.0243 17.7729 41.2374 17.7877 41.232C18.0004 41.1603 17.7595 40.8063 17.6616 40.5234C17.5636 40.2409 17.6903 40.1846 18.1683 40.457C18.1768 40.3122 18.4562 40.3228 18.6231 40.3334C18.7901 40.3439 18.3108 39.9341 18.3057 39.9189C18.1403 39.437 18.4993 39.5345 18.6899 39.3309C18.7817 39.2343 18.8482 38.9538 18.8702 38.7877C18.8867 38.6559 19.037 38.69 19.0188 38.5411C19.0165 38.521 18.7915 38.3573 18.7854 38.3469C18.5862 38.0369 19.0885 38.5148 19.196 38.571C19.5868 38.7759 19.7991 38.8783 19.7148 38.6191C19.6956 38.5594 18.982 37.8555 18.9699 37.7657C18.9557 37.6499 19.2143 37.8976 19.1925 37.7706C19.1909 37.76 19.0207 37.6246 19.0555 37.5858C19.2147 37.4038 19.4531 37.2532 19.5681 37.0218C19.5844 36.9908 19.2919 36.8132 19.311 36.7649C19.4006 36.5387 19.5454 36.3234 19.7897 36.2282C19.8507 36.2053 20.0215 36.386 20.084 36.4201C20.4624 36.6258 20.0241 36.1416 20.0238 36.1191C20.0044 35.5684 20.6158 35.6482 20.6236 35.1097C20.6231 35.0798 20.184 34.5083 20.6803 34.7973C20.7134 34.8164 21.22 35.1142 20.9374 34.8034C20.9197 34.784 20.6544 34.6382 20.7231 34.583C20.763 34.5509 20.7496 34.4545 20.7951 34.3997C20.8277 34.3606 20.8908 34.3432 21.0267 34.3871C21.1289 34.42 21.6397 34.7076 21.3259 34.3208C21.3038 34.2941 20.5526 33.4893 21.1633 33.8881C21.2638 33.9539 21.8715 34.4412 21.6256 34.0802C21.5776 34.0107 21.4173 33.944 21.366 33.8195C21.2867 33.6283 21.5204 33.6384 21.3116 33.3162C21.2745 33.2594 20.9056 32.8544 21.2603 33.0348C21.3159 33.063 21.5094 33.2416 21.5526 33.2249C21.7595 33.1457 21.7221 32.8692 21.962 32.8119C22.0465 32.7914 22.3606 33.0783 22.4856 33.0853C22.6107 33.0923 22.7693 33.0333 22.6551 32.8521C22.5409 32.6706 21.9707 32.3325 21.9846 32.2035C22.0458 31.642 22.5983 31.4651 22.8881 31.0783C22.931 31.0212 22.7112 30.9276 22.7607 30.833C22.9431 30.4831 23.1022 29.7622 23.6766 29.7732C24.1362 29.783 24.2119 30.2675 24.4475 30.1869C24.5606 30.1473 23.9964 29.5837 23.9889 29.5479C23.9093 29.192 24.2658 29.2558 24.2875 29.0071C24.292 28.9557 24.0196 28.8035 24.0261 28.7618C24.0462 28.6178 24.2252 28.5853 24.2657 28.4632C24.2832 28.4079 24.0864 28.2721 24.1264 28.2392C24.2197 28.1589 24.3531 28.1273 24.5914 28.1601C24.6131 28.1631 24.8158 28.4059 24.8691 28.3348C24.9546 28.2191 25.2214 28.1957 25.121 27.9123C25.0903 27.8278 24.6525 27.4965 25.0081 27.6317C25.0824 27.6599 25.5953 28.0805 25.2012 27.6307C25.1359 27.5557 24.6245 26.9136 25.0711 27.1216C25.1887 27.1763 25.6542 27.4397 25.6159 27.3368C25.6091 27.3217 25.3572 27.1731 25.3587 27.1128C25.3674 26.9039 25.4824 26.7643 25.4967 26.5532C25.5001 26.4965 25.2208 26.3757 25.2336 26.2971C25.2685 26.0801 25.4507 25.9144 25.6213 25.8048C25.6847 25.7648 25.8632 25.9583 25.8877 25.9703C26.2868 26.1657 25.8271 25.7622 25.8123 25.7173C25.7273 25.4427 26.0186 25.4987 26.0355 25.3173C26.0408 25.2676 25.7949 25.1225 25.7786 25.0997C25.6214 24.8721 26.0031 25.2387 26.0767 25.2233C26.284 25.1814 26.3524 25.013 26.4019 24.8507C26.4197 24.7909 26.1194 24.6498 26.1385 24.5984C26.2456 24.2917 26.4312 24.0259 26.7287 23.8686C26.7851 23.8394 26.9737 24.0238 27.0267 24.0483C27.397 24.2205 27.0065 23.7814 26.9773 23.7253C26.8438 23.4697 27.0504 23.5617 27.0712 23.4386C27.1693 22.8351 27.6203 22.3341 27.9475 21.9367C28.3721 21.4188 28.8236 21.1058 29.0856 20.5048C29.1025 20.4669 28.8072 20.3009 28.8182 20.2656C28.9727 19.8193 29.2982 19.5056 29.4399 19.0482C29.452 19.011 29.1647 18.867 29.1754 18.8009C29.1955 18.6639 29.2855 18.5375 29.4292 18.4896C29.4988 18.4659 29.6834 18.7012 29.7489 18.6739C29.902 18.6107 29.9947 18.4906 30.0238 18.3317C30.0356 18.2637 29.7229 18.1507 29.759 18.0775C29.9998 17.5753 30.216 17.0673 30.8321 16.8314C30.8743 16.8153 31.434 17.1823 31.3691 17.035C31.2213 16.9196 31.0437 16.7905 30.8838 16.6705C31.1855 15.9037 31.7588 15.3434 32.1772 14.6581C32.1948 14.6291 31.8784 14.4709 31.911 14.4138C32.0993 14.0828 32.198 13.7008 32.6727 13.5673C32.7193 13.5538 33.2167 13.94 33.195 13.7843C33.1907 13.7565 33.206 13.5568 33.1174 13.4379C33.1037 13.4206 32.852 13.2759 32.8718 13.2223C32.9911 12.9144 33.2077 12.6583 33.5072 12.482C33.556 12.4539 33.7813 12.6855 33.8183 12.6671C34.0784 12.5348 34.0243 12.1459 34.3738 12.093C34.6087 12.0582 35.0144 12.4293 35.4861 12.6631C35.5527 12.696 35.6123 12.6121 35.8644 12.7888C36.4984 13.2328 37.161 13.7764 37.8397 14.2445C37.9858 14.3454 37.8977 14.1109 38.206 14.436C38.2266 14.458 38.2935 14.6303 38.3996 14.7379C38.4729 14.8124 38.7417 14.9696 38.8292 15.0765C38.9165 15.1832 38.6852 15.0625 38.7798 15.203C38.8759 15.3446 39.1769 15.5319 39.1548 15.6591ZM19.3711 40.377C19.6528 40.4903 18.8032 39.7802 18.9565 40.031C18.9649 40.044 19.3571 40.3717 19.3711 40.377ZM13.5684 49.787C14.0039 50.0074 13.5042 49.4684 13.1722 49.2915C12.8406 49.1148 13.4363 49.7203 13.5684 49.787ZM13.1604 51.0551C13.5286 51.1914 12.3515 50.1418 12.51 50.4749C12.5189 50.494 13.139 51.0471 13.1604 51.0551ZM35.4091 13.1136C35.4214 13.1211 35.4689 13.0641 35.4581 13.054C35.1953 12.8142 35.1006 12.9283 35.4091 13.1136ZM12.7798 52.3358C12.9644 52.4392 12.8478 52.1733 12.6182 52.0446C12.4335 51.9412 12.5501 52.2076 12.7798 52.3358ZM22.7687 37.035C22.7823 37.0439 22.8214 37.0072 22.7478 36.9506C22.511 36.7684 22.5392 36.8845 22.7687 37.035ZM11.6452 54.0907C11.8597 53.8722 12.9434 54.5701 12.6479 54.7543C12.5944 54.7876 12.4073 54.3723 12.2762 54.3602C12.0372 54.338 12.6013 54.9526 12.1916 54.7861C12.1168 54.7553 11.6308 54.1013 11.6442 54.0892C11.6445 54.0897 11.6449 54.0902 11.6452 54.0907ZM20.4275 41.1718C20.4398 41.1796 20.4891 41.1258 20.4788 41.1151C20.2277 40.8595 20.1283 40.9675 20.4275 41.1718ZM24.8883 34.7759C24.9151 34.7911 25.0244 34.6612 25.0045 34.6389C24.5968 34.2125 24.3745 34.474 24.8883 34.7759ZM18.4165 45.8852C18.6439 46.1809 18.6238 46.2892 18.2497 46.0567C18.3107 46.0046 18.3566 45.939 18.4165 45.8852Z" fill="#1A1A1A"/>
<path d="M10.9946 0.317724C11.2522 0.291633 11.5307 0.498285 11.7261 0.721551C11.7875 0.791037 11.7004 0.985223 11.7405 1.04246C11.819 1.15416 11.935 1.08252 12.0085 1.20912C12.0327 1.25209 11.9132 1.56561 11.9403 1.60319C12.0896 1.80681 12.2843 1.77976 12.4542 1.90912C13.2908 2.54684 14.1647 2.95764 15.0595 3.39863C15.3546 3.54376 15.6575 3.95706 16.0052 3.92544C16.0458 3.92145 16.0911 3.62736 16.1037 3.60586C16.2989 3.27755 16.1263 3.84613 16.1804 3.94548C16.3953 4.33823 16.708 4.46261 17.0092 4.43566C17.1375 4.42334 17.1518 3.81635 17.1957 4.17286C17.1989 4.19702 17.0988 4.49337 17.1235 4.53572C17.1795 4.63119 17.3305 4.6186 17.3815 4.65992C17.4794 4.74111 17.4981 4.74347 17.6004 4.77807C17.7396 4.82801 17.8727 5.03032 18.0397 5.0063C18.0756 5.00025 18.1038 4.67405 18.1673 4.63609C18.2309 4.59824 18.3609 4.66537 18.3902 4.75292C18.4195 4.84053 18.3445 5.08116 18.3399 5.14004C18.2997 5.63681 18.606 5.02318 18.6298 5.01277C19.0618 4.84373 19.2949 5.31276 19.6431 5.41232C19.9073 5.48695 20.2164 5.44325 20.4637 5.5314C20.7581 5.63767 20.9758 5.87931 21.273 5.93063C21.3043 5.93643 21.3459 5.55628 21.3842 5.56253C21.5701 5.59316 21.7514 5.64054 21.9269 5.71704C22.1354 5.80797 22.335 5.93992 22.5229 6.13342C22.5576 6.16945 22.4406 6.48144 22.4713 6.53694C22.6603 6.86952 22.9228 7.61509 23.3454 6.23217C23.4992 6.33021 23.6878 6.43855 23.7807 6.76239C23.8407 6.97089 23.6802 7.30331 23.8264 7.18105C23.8594 7.15385 23.8843 6.83364 23.929 6.81643C24.1175 6.74423 24.2801 6.89056 24.4751 6.76981C24.5148 6.74448 24.5573 6.46267 24.5761 6.41463C24.7306 6.0263 24.7388 6.73242 24.7591 6.78843C24.9132 7.20703 25.1011 7.10158 25.3051 7.15854C25.3524 7.17192 25.3625 6.78253 25.4103 6.78182C25.6575 6.78328 25.8972 6.87159 26.1021 7.09078C26.1475 7.14043 26.0457 7.45085 26.0647 7.49102C26.1494 7.66424 26.2751 7.06303 26.3582 7.21713C26.3759 7.24887 26.3179 7.52109 26.3169 7.55222C26.302 8.04026 26.4678 7.38031 26.4864 7.36896C26.7247 7.21062 26.7431 7.9406 26.9591 7.88308C26.985 7.87546 26.9863 7.51574 27.0556 7.51559C27.5163 7.51231 27.9715 7.70128 28.3756 8.06413C28.4383 8.12003 28.3519 8.37344 28.3516 8.40664C28.3511 8.92581 28.4928 8.25648 28.5188 8.23508C28.7222 8.08421 28.8105 8.68305 29.0406 7.8963C29.7563 8.31082 30.5549 7.97507 31.2253 8.80925C31.2339 8.81904 31.1805 9.15222 31.1979 9.17033C31.4075 9.39139 31.4198 8.86344 31.6378 8.24613C31.6928 8.09112 31.7284 8.87752 31.7333 8.93545C31.7496 9.14874 31.6596 9.64323 31.6681 9.68526C31.7409 10.0161 31.8912 8.36098 32.0308 8.37884C32.0349 8.38217 31.9861 8.68406 31.9949 8.71585C32.0221 8.81566 32.0707 8.69955 32.096 8.8089C32.1535 9.06185 32.1053 9.86934 32.2764 9.41758C32.2981 9.35885 32.3636 8.41764 32.4844 8.47759C32.5334 8.50246 32.7534 8.51311 32.8101 8.58128C32.8664 8.6494 32.7967 8.9469 32.7999 8.96053C32.9315 9.38049 32.8535 9.53883 32.8855 10.1411C32.9181 10.7412 33.0182 9.33064 33.0659 9.17745C33.1136 9.02471 33.2077 9.36889 33.2284 9.48711C33.249 9.60539 33.1947 9.7935 33.2163 9.86152C33.3603 10.3063 33.3539 9.17124 33.4314 8.95422C33.6119 8.43994 33.6332 9.49609 33.7532 9.61195C33.7854 9.64318 33.7762 9.40224 33.8086 9.38322C33.9364 9.31081 33.9831 9.64429 34.1438 9.359C34.1702 9.31258 34.3281 8.69496 34.3659 9.16322C34.3712 9.23073 34.3232 9.48853 34.3703 9.55185C34.4405 9.64687 34.5756 9.71695 34.665 9.63748C34.7309 9.57865 34.6904 9.14273 34.7583 9.28321C34.7886 9.34593 34.7074 9.59136 34.7659 9.68824C34.7717 9.69783 34.7785 9.70656 34.7862 9.71443C34.8551 9.78568 34.9942 9.7882 35.051 9.78522C35.1139 9.78174 35.1011 9.4529 35.1076 9.43136C35.1462 9.30824 35.2756 9.16125 35.2862 9.16246C35.8166 9.1671 36.2765 9.75313 36.8058 9.60544C36.847 9.59429 36.8371 9.24844 36.8436 9.2432C36.9892 9.10807 36.8346 10.0158 36.9173 10.3284C36.9372 9.62915 36.9884 9.75934 37.0905 9.68895C37.1397 9.65443 37.1267 9.38241 37.1323 9.35496C37.2218 8.94867 37.2458 9.48217 37.2535 9.59146C37.2815 9.99352 37.3535 9.52486 37.3729 9.7936C37.3926 10.0604 37.3018 10.4487 37.3966 10.4493C37.4342 10.2009 37.3938 9.54332 37.4699 9.44165C37.7569 9.0573 38.238 9.59706 38.4532 9.66094C38.6675 9.72492 38.7404 9.68203 38.8629 9.77831C39.0851 9.95229 39.0184 9.4634 39.1673 9.24769C39.3165 9.03192 39.2083 10.2223 39.2203 10.4798C39.2321 10.7372 39.2628 10.4741 39.2834 10.6162C39.3039 10.7582 39.2441 10.9303 39.3012 10.9858C39.3582 11.0412 39.5335 10.5916 39.5625 10.3241C39.624 9.75752 39.5702 9.15802 39.7185 9.37388C39.7271 9.38665 39.6886 9.69939 39.7218 9.73244C39.9857 9.98489 40.2678 10.0102 40.5329 10.2331C40.5694 10.2643 40.5271 10.6124 40.5482 10.6344C40.7692 10.8654 40.7032 10.2739 40.8431 9.62375C40.7939 10.4934 40.8502 11.0282 41.0219 11.0387C41.1253 11.0452 41.1163 10.6645 41.1892 10.3985C41.211 10.3183 41.2784 10.5816 41.2956 10.4031C41.3522 9.81984 41.2978 9.16357 41.4688 9.42919C41.4763 9.44175 41.4448 9.76105 41.4711 9.78119C41.6412 9.91283 41.6745 9.30198 41.8628 9.23285C42.0111 9.17861 42.2631 9.5578 42.4298 9.62229C42.4092 10.6011 42.5719 10.3805 42.6467 9.70696C42.7545 9.73698 42.8722 9.70126 42.9758 9.79668C43.0114 9.82922 42.9834 10.1122 42.9874 10.1429C43.0502 10.6247 43.1074 9.96899 43.131 9.94366C43.3875 9.69833 43.5893 10.1997 43.8369 9.71731C43.8457 9.69995 43.8679 9.02012 43.9266 9.51769C43.9302 9.552 43.8465 9.8601 43.9605 9.88589C44.0742 9.91167 44.2853 10.2795 44.4469 9.96652C44.486 9.89119 44.5883 9.34048 44.662 9.77281C44.6717 9.83154 44.6585 10.0264 44.6721 10.1352C44.7173 10.4817 44.7507 9.79461 44.8016 10.3793C44.853 10.9639 44.9676 11.4027 45.1313 11.0017C45.1366 10.99 45.1792 10.4456 45.2292 10.4548C45.31 10.4699 45.4224 10.5846 45.5063 10.582C45.5466 10.5805 45.5234 10.2419 45.5304 10.2358C45.8017 10.0489 45.9909 10.3522 46.2798 10.4854C46.3325 10.5105 46.4875 10.0503 46.588 10.4158C46.6982 10.8159 46.5735 12.476 46.8356 12.0821C46.9414 11.9245 47.0832 9.81807 47.2659 10.9109C47.6316 10.6423 47.9665 11.2025 48.3327 10.8174C48.3494 10.8004 48.4025 10.2124 48.4411 10.2205C48.4982 10.2337 48.5294 10.5087 48.5702 10.5269C48.7419 10.6102 48.8986 10.3754 49.0641 10.4124C49.1265 10.4258 49.1041 10.71 49.1791 10.726C49.2538 10.7418 49.3047 10.3676 49.4057 10.5486C49.4816 10.6865 49.5576 11.4516 49.659 11.5409C49.6638 10.7863 49.7336 10.802 49.8579 10.6029C49.882 10.5643 49.8565 10.3016 49.868 10.2698C49.9141 10.1345 49.9562 10.3522 49.9997 10.2049C50.0106 10.1696 50.0111 9.91187 50.0199 9.86838C50.0936 9.48898 50.2148 10.0688 50.2354 10.1697C50.3153 10.5531 50.3526 10.2179 50.4141 10.3689C50.4751 10.5199 50.3834 10.7085 50.4549 10.8001C50.6033 10.9896 50.7934 10.9481 50.944 10.96C51.0042 10.9631 50.9633 10.6192 50.9721 10.6116C51.0964 10.5244 51.2215 10.8903 51.2908 10.2052C51.3765 11.9768 51.3655 10.0334 51.5433 10.388C51.5573 10.4167 51.5749 11.2545 51.5213 11.3775C51.4673 11.5004 51.3861 11.2385 51.3115 11.4302C51.2939 11.4752 51.1925 12.2602 51.1789 12.3078C51.0709 12.6794 51.056 11.4275 51.0498 11.3587C50.9853 10.6166 50.8615 11.4623 50.829 11.5207C50.6802 11.7884 50.5537 11.6123 50.429 11.8033C50.3474 11.9268 50.339 12.7468 50.2749 12.7217C50.062 12.6386 49.9896 11.4945 49.7881 12.4862C49.7446 12.6976 49.7863 13.594 49.6331 12.889C49.6234 12.8446 49.5097 12.1996 49.4434 12.6074C49.4351 12.6587 49.4346 12.92 49.4237 12.9419C49.3504 13.0837 49.3016 12.8755 49.2213 12.9751C49.1414 13.0746 49.0448 13.2229 48.9535 13.1341C48.8986 13.081 48.8292 12.5942 48.8029 12.4749C48.7296 12.1315 48.6484 12.6941 48.6031 12.2783C48.5579 11.8604 48.6497 11.2263 48.5289 10.956C48.5228 11.6346 48.5109 12.3312 48.5022 13.0137C48.2348 12.989 47.9723 12.7685 47.7045 12.7974C47.6711 12.8016 47.704 13.1666 47.668 13.1805C47.5179 13.2378 47.3866 12.9771 47.2303 13.0798C47.1096 13.1607 46.9752 13.5462 46.8479 13.6427C46.7746 12.8657 46.5858 13.1281 46.4502 13.0561C46.4027 13.0312 46.4067 12.8238 46.3733 12.7559C46.2464 12.5046 46.3026 13.1913 46.2666 13.2991C46.113 13.7587 46.1099 12.2054 45.9325 12.2422C45.9233 12.2437 45.8026 13.0706 45.7864 13.122C45.6827 13.4573 45.7714 12.8336 45.7091 12.7719C45.5945 12.659 45.5164 12.4604 45.3794 12.7015C45.3399 12.773 45.2411 13.288 45.1678 12.888C45.1581 12.8356 45.166 12.562 45.1581 12.5459C45.0137 12.2771 45.0023 13.1369 44.9158 13.4271C44.8293 13.7173 44.7055 13.122 44.6809 12.9506C44.6159 12.5071 44.7358 12.7621 44.7397 12.7187C44.7884 12.2024 44.6932 12.2902 44.6216 12.2456C44.6194 11.4024 44.5185 11.4516 44.547 12.2028C44.5505 12.2848 44.6076 12.2069 44.6216 12.2456C44.5501 13.072 44.4372 13.1765 44.3235 12.4017C44.2704 12.0386 44.3288 11.6169 44.1536 11.7689C44.0742 11.8375 44.0979 12.4185 44.0263 12.5756C43.8621 12.9343 43.6627 12.3893 43.4969 12.4717C43.4367 12.5017 43.4907 12.8205 43.4494 12.8519C43.3398 12.9362 43.2477 12.696 43.1374 12.816C43.1274 12.8273 43.1466 13.1604 43.1127 13.164C42.8552 13.1976 42.6353 12.9799 42.3672 12.9679C42.2374 12.9622 42.003 13.14 41.8691 13.0997C41.6365 13.0318 41.3619 12.5402 41.16 12.6518C41.0286 12.7231 41.0495 13.0566 40.9886 13.2815C40.8711 13.7175 40.6991 12.9246 40.6767 12.8018C40.676 12.7978 40.7898 12.723 40.7343 12.5504C40.7084 12.1935 40.678 12.8003 40.6767 12.8018C40.6617 12.7226 40.4407 12.6397 40.395 12.7017C40.37 12.7356 40.3752 13.0512 40.3624 13.0629C40.0556 13.3345 39.7537 13.4034 39.4536 13.2436C39.4484 13.237 39.4674 12.8849 39.4551 12.8739C39.2848 12.71 39.1589 13.1362 39.0045 13.3857C38.8504 13.635 38.7378 13.544 38.6738 12.9351C38.5611 13.0061 38.4136 12.7311 38.3298 12.5643C38.2461 12.3976 38.2072 13.0826 38.1987 13.0958C37.9327 13.5169 37.8043 13.1167 37.5493 13.0411C37.4273 13.0039 37.1804 13.089 37.0436 13.1557C36.9351 13.2096 36.8794 13.0449 36.7776 13.1414C36.7638 13.1543 36.7622 13.4602 36.7576 13.4717C36.6313 13.8298 36.7201 13.0872 36.7043 12.9526C36.6476 12.4628 36.6113 12.2015 36.4613 12.4201C36.427 12.4701 36.2778 13.5376 36.2158 13.5963C36.1355 13.6706 36.1847 13.2877 36.1004 13.3753C36.0931 13.3824 36.0819 13.62 36.0332 13.606C35.8054 13.5439 35.5665 13.3871 35.326 13.3916C35.2933 13.3914 35.3121 13.7711 35.2644 13.7769C35.0417 13.8038 34.7979 13.769 34.5952 13.5737C34.5454 13.5244 34.5965 13.2639 34.5904 13.1847C34.5833 13.0949 34.5724 13.0457 34.5593 13.0252C34.5019 12.936 34.4016 13.3857 34.3873 13.3951C33.9695 13.6888 33.7158 13.037 33.2905 13.2901C33.2674 13.3052 33.0387 14.023 33.0157 13.3834C33.0139 13.3408 32.9942 12.6869 32.8912 13.1209C32.8847 13.1481 32.9027 13.4857 32.8246 13.4427C32.7465 13.3997 32.598 13.6068 32.5186 13.2285C32.4933 13.1093 32.4688 12.4559 32.3178 12.9564C32.3081 12.9914 32.0391 14.1315 32.0553 13.324C32.0582 13.1912 32.1478 12.3458 31.982 12.7642C31.9501 12.8453 31.9755 13.0397 31.9013 13.1496C31.7868 13.319 31.6831 13.0762 31.5258 13.4373C31.4985 13.5014 31.3518 14.0638 31.3249 13.6185C31.3208 13.5488 31.3705 13.2692 31.3364 13.2326C31.1758 13.0573 30.9683 13.2202 30.8102 12.9994C30.7541 12.9218 30.8361 12.4703 30.7833 12.3386C30.7303 12.207 30.6108 12.0701 30.5188 12.2683C30.4265 12.4665 30.4205 13.2043 30.31 13.2469C29.826 13.4314 29.427 12.9341 28.9849 12.7958C28.9194 12.7752 28.9415 13.0439 28.8418 13.032C28.4761 12.99 27.8105 13.1181 27.5755 12.5082C27.3877 12.0201 27.7517 11.7454 27.5867 11.5298C27.5076 11.4268 27.285 12.2473 27.2585 12.2693C26.9992 12.4949 26.9047 12.0931 26.6906 12.1671C26.6465 12.1826 26.6339 12.5305 26.5967 12.5399C26.4693 12.5747 26.3693 12.3975 26.252 12.4016C26.1993 12.4043 26.1675 12.6656 26.124 12.6358C26.0196 12.5674 25.9387 12.4375 25.8696 12.1714C25.8634 12.1471 25.9821 11.8389 25.9021 11.8094C25.7725 11.7624 25.6487 11.4873 25.4552 11.7008C25.3978 11.7652 25.2963 12.3564 25.268 11.9263C25.262 11.8364 25.4085 11.1321 25.1914 11.7204C25.1555 11.8182 24.8225 12.6023 24.8212 12.0478C24.8209 11.9019 24.8592 11.3069 24.7893 11.3857C24.7794 11.3985 24.7535 11.7227 24.7031 11.7433C24.5265 11.8102 24.367 11.7377 24.1865 11.7984C24.1382 11.8152 24.144 12.1586 24.0738 12.1731C23.8807 12.2138 23.6726 12.0764 23.5182 11.9314C23.4612 11.8772 23.5559 11.6168 23.5567 11.5861C23.5711 11.0876 23.4065 11.7249 23.3744 11.7565C23.1776 11.9446 23.1172 11.6109 22.96 11.6557C22.9167 11.6673 22.8857 11.983 22.8727 12.0085C22.7402 12.2571 22.9064 11.7179 22.8669 11.6439C22.7567 11.4347 22.5923 11.4188 22.4402 11.421C22.3842 11.4223 22.3741 11.7952 22.3246 11.7922C22.0296 11.7809 21.7426 11.6696 21.5079 11.3997C21.4639 11.3483 21.5518 11.0821 21.5537 11.0164C21.5685 10.5574 21.3391 11.1275 21.3024 11.1778C21.1359 11.4079 21.1412 11.153 21.0319 11.1713C20.9548 11.1847 20.8769 11.1894 20.7988 11.187C20.3351 11.1725 19.8642 10.9039 19.4897 10.7081C18.9188 10.4113 18.5138 10.0176 17.932 9.91904C17.8951 9.91243 17.8506 10.2868 17.8177 10.2857C17.3964 10.2554 17.0337 9.99604 16.6088 9.9804C16.5741 9.97848 16.5432 10.337 16.4847 10.3455C16.3643 10.3652 16.2311 10.305 16.1467 10.1619C16.1054 10.0928 16.2447 9.81918 16.2018 9.75565C16.1021 9.60705 15.9739 9.54186 15.8329 9.55791C15.7726 9.56542 15.7739 9.9424 15.7019 9.92479C15.21 9.81202 14.7206 9.72588 14.3411 9.11927C14.3151 9.07764 14.4544 8.35462 14.3513 8.46941C14.2992 8.66585 14.2444 8.89902 14.192 9.11003C13.464 9.00523 12.831 8.53904 12.1413 8.27802C12.1122 8.26707 12.072 8.661 12.0151 8.64178C11.6861 8.53082 11.34 8.53274 11.0939 8.04934C11.0694 8.00191 11.2479 7.34327 11.125 7.4121C11.1032 7.42487 10.9333 7.46579 10.8599 7.59759C10.8494 7.61767 10.801 7.93631 10.751 7.92996C10.4617 7.88772 10.188 7.72328 9.9574 7.4447C9.9203 7.39913 10.0484 7.08447 10.0227 7.04915C9.83978 6.8012 9.53317 6.97291 9.39092 6.60375C9.29605 6.35549 9.48878 5.80237 9.54941 5.21619C9.55793 5.13348 9.4717 5.09211 9.54695 4.76395C9.73582 3.93871 9.99884 3.05322 10.195 2.17194C10.2374 1.98215 10.0682 2.14668 10.2504 1.7138C10.2628 1.68489 10.3864 1.56161 10.4455 1.4139C10.4865 1.31181 10.5409 0.970958 10.6046 0.843918C10.6684 0.717004 10.6336 1.00623 10.7231 0.861695C10.8131 0.715158 10.8834 0.3301 10.9946 0.317724ZM37.953 11.8182C37.8834 11.4845 37.8214 12.6898 37.9236 12.4061C37.9286 12.391 37.9566 11.8346 37.953 11.8182ZM47.9766 11.8578C47.8704 11.3249 47.794 12.1075 47.8691 12.5191C47.9437 12.9303 48.0091 12.0194 47.9766 11.8578ZM49.0962 11.4724C48.971 11.0522 48.9482 12.7643 49.0839 12.4185C49.0918 12.3989 49.1036 11.4968 49.0962 11.4724ZM9.9437 5.17098C9.94638 5.15518 9.88588 5.11941 9.88061 5.13424C9.75623 5.49235 9.87732 5.56359 9.9437 5.17098ZM50.206 11.0507C50.1669 10.8191 50.0537 11.0863 50.102 11.3744C50.1415 11.6061 50.2547 11.3388 50.206 11.0507ZM33.71 10.1992C33.7102 10.1811 33.6636 10.16 33.6565 10.2614C33.6337 10.5879 33.7078 10.5028 33.71 10.1992ZM52.0907 11.0316C51.812 10.9672 51.6438 9.55286 51.9467 9.71246C52.0016 9.74137 51.8282 10.1635 51.898 10.291C52.0262 10.5233 52.1109 9.63531 52.2418 10.1111C52.265 10.1982 52.1065 11.0384 52.0903 11.0336C52.0903 11.0329 52.0903 11.0323 52.0907 11.0316ZM37.9644 10.367C37.9634 10.351 37.898 10.3323 37.8958 10.348C37.8441 10.729 37.9762 10.7668 37.9644 10.367ZM31.015 9.1117C31.0151 9.07744 30.8674 9.0237 30.8591 9.05403C30.71 9.66402 31.0106 9.77488 31.015 9.1117ZM42.432 9.64843C42.5109 9.26459 42.5972 9.22109 42.6464 9.70646C42.5755 9.67921 42.5037 9.67381 42.432 9.64843Z" fill="#1A1A1A"/>
</g>
<defs>
<clipPath id="clip0_18_20">
<rect width="54" height="55" fill="#1A1A1A"/>
</clipPath>
</defs>
</svg>
