<svg width="611" height="544" viewBox="0 0 611 544" fill="none" xmlns="http://www.w3.org/2000/svg">
<path d="M19.4141 276.09C17.4587 274.526 16.1879 273.255 14.7214 272.375C1.75083 264.879 -2.64879 253.701 1.52265 238.84C3.28247 232.583 5.13992 226.228 7.48636 220.166C12.8636 206.283 14.819 205.403 28.6043 209.607C31.3418 210.487 33.9815 211.563 38.6744 213.225C41.5097 204.914 44.0516 197.484 46.5936 190.249C43.6606 188.294 42.3896 186.925 40.8253 186.436C18.7297 180.277 20.7828 173.139 26.4534 156.421C31.4396 141.755 36.2302 127.09 41.7052 112.62C48.6467 94.3375 50.6023 93.5553 69.3737 98.5416C71.5246 99.1282 73.6754 99.9103 76.5106 100.692C82.2789 88.3736 87.6564 76.6413 93.2292 64.909C99.9752 50.8303 102.419 48.9727 117.965 50.8303C131.554 52.3946 145.046 54.9366 158.342 57.8697C167.239 59.825 173.692 57.8696 181.025 52.199C200.285 37.3381 220.719 23.9438 240.566 9.76723C254.742 -0.400761 270.385 -2.35614 286.419 2.63009C319.954 12.8958 353.683 22.575 386.338 35.1872C417.917 47.4083 447.834 63.638 479.12 76.7391C506.886 88.3736 517.445 110.274 519.987 138.04C521.258 151.044 522.627 164.047 523.213 177.148C523.506 183.894 525.853 188 531.915 191.129C552.641 201.884 567.991 218.407 578.452 238.938C588.425 258.492 597.81 278.339 606.218 298.577C612.084 312.656 611.302 327.615 607.489 342.476C592.042 402.701 568.187 459.603 539.149 514.451C528.59 534.494 513.241 543.88 490.265 543.098C452.038 541.924 414.397 536.156 377.441 527.259C283.779 504.577 191.388 477.788 102.224 440.636C89.6116 435.356 76.1196 431.739 64.2896 425.188C55.8816 420.495 48.158 413.065 42.6829 405.146C36.0347 395.466 31.9285 384.027 26.8446 373.273C13.9392 345.897 11.3971 317.447 17.8498 288.018C18.7297 284.01 19.0232 280.001 19.6098 276.09H19.4141ZM119.822 62.8558C109.654 62.4647 104.179 66.7666 100.855 76.1524C84.2345 122.593 66.7339 168.642 50.6021 215.278C42.2918 239.329 35.546 264.065 29.3866 288.8C23.325 313.536 26.3558 320.184 50.1134 330.841C69.5693 339.542 90.0026 345.995 110.143 353.035C183.567 378.748 256.795 404.95 330.708 429.49C370.108 442.591 410.487 452.759 450.669 463.416C472.569 469.184 479.12 465.567 487.821 444.155C497.207 421.082 506.3 397.715 513.828 373.957C525.755 336.609 537.585 299.164 547.069 261.132C557.139 220.753 553.521 212.149 515.978 195.235C464.064 171.771 411.562 149.284 357.985 129.828C306.168 110.958 252.884 95.7063 199.894 80.3565C173.692 72.8283 146.61 68.5265 119.92 62.7581L119.822 62.8558ZM462.304 157.008C463.575 136.476 458.98 121.126 438.546 113.598C426.912 109.296 416.255 102.648 404.914 97.3684C370.597 81.1387 335.596 66.5711 298.835 56.6964C279.77 51.6124 252.982 61.7804 240.37 79.281C316.629 98.2482 388.978 127.677 462.304 157.105V157.008ZM497.207 452.955C515.685 446.991 531.133 441.809 546.776 437.018C565.058 431.445 569.555 425.384 569.555 403.581C551.273 408.861 533.088 413.945 515.098 419.518C512.067 420.495 508.744 423.331 507.473 426.166C503.855 433.89 501.313 442.102 497.207 452.955ZM82.7679 357.923C95.4778 382.365 107.112 403.777 117.965 425.482C124.319 438.191 135.27 441.222 148.566 443.178C137.225 420.691 125.59 399.964 116.205 378.259C110.045 363.985 99.6819 359.683 82.8658 358.021L82.7679 357.923ZM121.289 371.904C135.954 398.008 149.152 421.571 162.546 445.133C168.021 454.812 177.016 456.376 187.869 456.376C175.843 434.378 163.231 414.238 153.845 392.729C147.784 378.846 139.767 372.1 121.386 371.806L121.289 371.904ZM227.758 470.651C212.604 444.547 198.427 419.42 183.371 394.88C178.678 387.254 169.879 385.689 157.952 384.614C173.008 409.447 186.891 431.445 199.699 454.03C205.858 464.882 214.266 469.869 227.66 470.651H227.758ZM495.349 487.174C509.721 484.045 522.529 481.797 534.945 478.179C539.443 476.908 543.94 472.9 546.482 468.891C550.295 462.829 552.348 455.692 556.357 446.013C529.764 454.519 506.984 461.754 482.444 469.575C487.235 476.126 490.95 481.21 495.349 487.174ZM258.848 483.85C260.217 482.579 261.488 481.405 262.857 480.134C248.485 455.692 234.406 431.054 219.741 406.808C215.048 399.084 206.64 397.911 197.45 397.031C197.939 399.866 197.841 401.626 198.623 402.897C213.581 426.459 228.247 450.217 243.89 473.291C247.116 477.984 253.764 480.33 258.848 483.752V483.85ZM107.015 427.437C95.2824 402.897 84.6256 379.921 73.3823 357.336C69.4715 349.515 61.9434 347.071 51.971 347.071C60.9657 367.7 69.8627 386.472 77.0975 405.83C82.0837 419.029 90.1983 426.361 106.917 427.437H107.015ZM55.5884 106.754C46.3982 128.654 37.1102 148.111 32.3195 170.597C39.7499 172.748 45.6162 174.508 52.3622 176.464C59.7926 154.368 66.6362 134.032 73.871 112.62C67.3205 110.567 62.4322 109.003 55.5884 106.852V106.754ZM329.339 500.47C316.042 477.592 303.529 456.279 291.307 434.77C285.93 425.286 277.326 423.722 265.203 421.962C278.304 444.546 290.623 464.589 301.475 485.414C307.243 496.462 315.358 500.47 329.339 500.568V500.47ZM291.307 488.934C278.989 465.274 267.256 441.711 254.253 418.735C249.756 410.718 240.272 410.425 229.127 409.545C245.063 435.356 259.533 459.016 274.1 482.579C277.815 488.64 282.899 491.964 291.307 488.934ZM584.807 368.482C565.742 373.859 549.904 378.357 534.163 382.854C519.302 387.156 518.521 388.134 516.859 406.905C536.901 401.919 556.748 396.933 577.083 391.849C579.332 384.907 581.581 378.259 584.807 368.384V368.482ZM365.318 451.39C378.517 472.313 391.226 491.573 402.958 511.225C409.411 521.98 418.015 523.739 429.845 522.175C415.473 500.861 401.981 480.819 388.587 460.678C383.307 452.759 375.486 451.977 365.318 451.39ZM593.02 337C572 342.182 553.13 346.777 534.163 351.47C531.817 359.39 529.666 366.331 526.831 375.619C544.331 370.633 558.312 365.256 572.782 363.007C587.642 360.661 592.14 352.252 593.02 337.098V337ZM301.279 433.987C315.554 457.55 329.046 479.743 342.636 501.937C346.84 508.781 353.097 509.563 361.407 508.292C347.622 485.121 334.618 463.123 321.517 441.32C317.313 434.379 310.763 432.912 301.182 433.89L301.279 433.987ZM394.257 515.918C380.667 493.529 368.055 472.704 355.345 451.977C350.848 444.742 344.395 442.884 334.912 444.938C347.426 465.665 359.647 484.632 370.597 504.283C375.583 513.278 381.938 517.189 394.159 515.918H394.257ZM539.638 339.542C555.868 336.023 570.729 332.699 585.589 329.472C598.592 326.637 598.69 326.344 592.726 310.994C580.407 313.927 567.991 317.447 555.477 319.891C545.309 321.846 539.834 327.028 539.736 339.542H539.638ZM460.446 526.868C445.879 506.825 432.289 488.152 418.797 469.575C414.691 464.003 409.607 461.265 400.71 463.416C414.984 483.361 428.476 502.035 441.87 520.806C446.172 526.868 452.038 528.237 460.446 526.77V526.868ZM28.6043 333.187C34.2749 359.096 43.2697 381.974 54.1219 404.07C55.8818 407.59 59.7924 413.163 66.5384 409.936C47.5714 352.937 42.2918 341.889 28.6043 333.187ZM509.623 526.868C499.064 511.616 488.799 496.56 478.435 481.601C473.84 474.953 467.974 472.9 459.371 477.495C471.396 494.018 482.933 510.345 494.861 526.379C498.674 531.463 503.562 530.974 509.623 526.868ZM432.289 468.598C431.507 469.575 430.823 470.553 430.04 471.629C443.924 489.716 457.709 507.901 472.081 525.597C474.232 528.237 479.315 528.432 483.031 529.801C471.298 508.976 458.002 491.085 444.021 473.682C441.675 470.749 436.395 470.26 432.387 468.598H432.289ZM18.8275 218.7C14.5257 231.214 10.8105 242.067 6.60648 254.19C13.1569 256.048 17.8499 257.319 23.8138 259.078C27.8223 247.053 31.4397 236.201 35.4482 224.273C29.9732 222.415 25.769 221.046 18.8275 218.7ZM587.545 286.649C575.91 290.56 566.525 293.982 557.041 296.915C549.513 299.262 547.655 303.954 549.611 311.874C564.178 308.55 577.67 305.519 592.433 302.292C590.673 296.524 589.402 292.32 587.643 286.552L587.545 286.649ZM520.378 522.077C526.44 509.954 531.23 500.568 537.781 487.467C523.409 491.573 513.143 494.507 500.629 498.026C507.766 506.728 513.143 513.278 520.28 522.077H520.378ZM584.807 279.806C582.069 274.428 580.114 270.517 578.159 266.9C564.015 271.006 556.813 278.046 556.552 288.018C565.743 285.281 574.541 282.739 584.807 279.806ZM576.008 259.47C571.413 252.039 568.577 247.248 563.982 239.818C562.418 249.106 561.343 255.07 560.072 262.794C565.547 261.62 569.262 260.936 576.008 259.567V259.47Z" fill="black"/>
<path d="M119.822 62.8558C146.512 68.6242 173.692 72.8283 199.796 80.4543C252.884 95.8041 306.07 111.056 357.887 129.925C411.366 149.382 463.965 171.868 515.88 195.333C553.423 212.345 557.04 220.851 546.97 261.229C537.487 299.262 525.657 336.707 513.73 374.055C506.201 397.813 497.011 421.082 487.723 444.253C479.022 465.665 472.471 469.282 450.571 463.514C410.388 452.857 370.01 442.689 330.609 429.588C256.795 405.146 183.567 378.846 110.045 353.132C89.9047 346.093 69.471 339.64 50.0152 330.939C26.2575 320.282 23.2267 313.634 29.2884 288.898C35.35 264.162 42.0961 239.427 50.5042 215.376C66.6359 168.838 84.1363 122.691 100.757 76.2502C104.081 66.8644 109.556 62.5625 119.724 62.9536L119.822 62.8558ZM65.0715 222.122C65.3648 264.651 82.8653 291.147 117.866 305.323C147.49 317.349 174.474 309.625 196.863 288.8C220.034 267.291 228.735 238.84 226.095 207.75C221.207 152.119 155.898 127.872 117.28 146.742C83.4519 163.265 68.6891 192.107 65.1694 222.122H65.0715ZM434.439 228.966C390.346 229.846 364.144 249.399 354.074 290.462C346.448 321.26 353.39 348.439 378.81 368.971C401.003 386.96 436.884 388.036 463.086 375.13C489.874 361.932 507.375 311.58 503.366 288.898C497.109 252.919 468.658 228.183 434.439 228.966ZM339.605 261.816C308.612 251.648 279.184 241.969 247.996 231.605C244.183 242.458 240.468 251.061 238.121 259.958C234.699 272.766 235.97 275.21 248.778 279.512C270.091 286.649 291.6 293.298 313.109 299.75C317.411 301.021 322.202 300.728 327.774 301.217C331.587 288.409 335.107 276.579 339.605 261.718V261.816ZM360.918 225.641C363.558 223.784 369.228 221.828 371.183 218.015C375.583 209.705 378.223 200.417 381.351 191.52C383.698 184.774 380.961 179.983 374.508 177.344C371.184 175.975 367.957 174.606 364.633 173.335C340.191 164.34 337.258 165.807 329.436 190.738C322.69 212.345 324.45 215.571 346.253 222.122C350.261 223.295 354.368 224.077 361.016 225.641H360.918ZM315.358 171.868C312.718 167.958 311.056 162.58 307.634 161.016C298.053 156.714 287.983 153.195 277.717 151.044C274.589 150.359 268.038 154.368 267.06 157.496C263.345 169.131 261.292 181.254 258.554 193.084C269.309 197.582 279.966 202.372 290.818 206.674C296.684 208.923 301.671 206.576 304.115 201.101C308.123 192.009 311.349 182.525 315.358 171.868ZM268.723 366.331C275.958 368.971 281.237 371.22 286.81 372.882C309.394 379.726 309.492 379.726 317.998 358.803C331.49 325.757 326.112 325.561 294.924 317.935C294.338 317.838 293.751 317.642 293.165 317.544C287.005 315.98 282.508 318.033 280.65 324.29C276.642 337.783 272.927 351.372 268.723 366.331ZM244.672 353.132C248.68 341.987 253.764 329.57 257.283 316.762C258.163 313.731 254.839 306.985 252.004 305.91C243.009 302.39 233.722 297.795 222.381 300.728C220.621 306.105 218.665 311.58 217.199 317.153C209.475 345.995 210.648 347.853 240.37 354.11C240.859 354.208 241.543 353.915 244.672 353.23V353.132ZM532.207 268.562C544.917 254.483 543.353 234.636 528.297 223.197C528.297 237.569 528.297 251.452 528.493 265.238C528.493 266.313 530.936 267.389 532.207 268.562ZM531.23 286.454C528.59 284.792 526.635 282.934 526.048 283.325C524.386 284.303 523.311 286.258 522.04 287.92C523.311 288.898 524.875 291.049 525.755 290.756C527.515 290.267 528.883 288.409 531.23 286.454Z" fill="white"/>
<path d="M497.207 452.955C501.215 442.102 503.855 433.89 507.472 426.166C508.743 423.331 512.067 420.495 515.098 419.518C533.087 413.945 551.174 408.861 569.555 403.581C569.555 425.286 565.058 431.445 546.775 437.018C531.132 441.809 515.685 446.991 497.207 452.955Z" fill="white"/>
<path d="M82.7676 357.923C99.6815 359.585 109.947 363.985 116.107 378.161C125.492 399.866 137.127 420.593 148.468 443.08C135.171 441.125 124.221 438.094 117.866 425.384C107.014 403.679 95.4774 382.268 82.6697 357.825L82.7676 357.923Z" fill="white"/>
<path d="M121.288 371.904C139.669 372.197 147.686 378.943 153.747 392.827C163.133 414.336 175.843 434.378 187.77 456.474C177.016 456.474 167.924 454.812 162.449 445.231C149.055 421.668 135.856 398.106 121.19 372.002L121.288 371.904Z" fill="white"/>
<path d="M227.758 470.651C214.364 469.869 205.955 464.882 199.796 454.03C186.988 431.445 173.008 409.447 158.049 384.614C169.879 385.689 178.776 387.156 183.469 394.88C198.525 419.42 212.702 444.547 227.856 470.651H227.758Z" fill="white"/>
<path d="M495.349 487.174C490.95 481.21 487.234 476.126 482.444 469.575C506.984 461.754 529.763 454.519 556.356 446.013C552.348 455.692 550.295 462.829 546.482 468.891C543.94 472.9 539.345 476.908 534.945 478.179C522.529 481.797 509.721 484.045 495.349 487.174Z" fill="white"/>
<path d="M258.848 483.85C253.764 480.428 247.018 478.081 243.889 473.388C228.246 450.315 213.483 426.557 198.623 402.995C197.84 401.724 197.938 399.866 197.449 397.128C206.64 398.008 215.048 399.182 219.741 406.905C234.406 431.152 248.582 455.79 262.856 480.232C261.488 481.503 260.217 482.676 258.848 483.947V483.85Z" fill="white"/>
<path d="M107.014 427.437C90.1981 426.264 82.0832 418.931 77.1948 405.83C69.9599 386.472 60.9652 367.7 52.0683 347.071C62.0406 347.071 69.5688 349.515 73.4795 357.336C84.8206 380.019 95.4774 402.995 107.112 427.437H107.014Z" fill="white"/>
<path d="M55.5881 106.754C62.4318 108.905 67.3202 110.469 73.8707 112.523C66.6358 133.836 59.7922 154.27 52.3619 176.366C45.6159 174.41 39.7496 172.651 32.3192 170.5C37.1099 148.111 46.3979 128.557 55.5881 106.656V106.754Z" fill="white"/>
<path d="M329.338 500.47C315.358 500.47 307.243 496.462 301.475 485.316C290.623 464.491 278.206 444.546 265.203 421.864C277.326 423.624 285.93 425.188 291.307 434.672C303.528 456.181 316.14 477.495 329.338 500.373V500.47Z" fill="white"/>
<path d="M291.307 488.934C282.899 491.964 277.913 488.64 274.1 482.579C259.532 459.016 245.062 435.356 229.126 409.545C240.272 410.425 249.755 410.816 254.253 418.735C267.256 441.711 278.988 465.274 291.307 488.934Z" fill="white"/>
<path d="M584.807 368.482C581.58 378.357 579.43 385.005 577.083 391.947C556.747 397.031 536.901 402.017 516.858 407.003C518.52 388.232 519.302 387.156 534.163 382.952C549.903 378.455 565.644 373.957 584.807 368.58V368.482Z" fill="white"/>
<path d="M365.318 451.39C375.486 451.977 383.307 452.759 388.587 460.678C401.981 480.819 415.473 500.764 429.844 522.175C418.015 523.837 409.411 521.98 402.958 511.225C391.226 491.476 378.614 472.313 365.318 451.39Z" fill="white"/>
<path d="M593.02 337C592.237 352.155 587.74 360.563 572.781 362.909C558.312 365.256 544.331 370.535 526.83 375.521C529.666 366.233 531.719 359.292 534.163 351.372C553.13 346.68 571.999 342.084 593.02 336.903V337Z" fill="white"/>
<path d="M301.279 433.987C310.86 433.01 317.411 434.574 321.615 441.418C334.716 463.22 347.719 485.121 361.505 508.39C353.194 509.661 346.937 508.879 342.733 502.035C329.143 479.841 315.651 457.55 301.377 434.085L301.279 433.987Z" fill="white"/>
<path d="M394.257 515.918C382.036 517.189 375.681 513.278 370.695 504.283C359.647 484.632 347.524 465.567 335.009 444.938C344.493 442.884 351.044 444.742 355.443 451.977C368.153 472.704 380.667 493.529 394.355 515.918H394.257Z" fill="white"/>
<path d="M539.638 339.542C539.638 327.028 545.211 321.846 555.379 319.891C567.991 317.447 580.31 314.025 592.629 310.994C598.69 326.344 598.592 326.539 585.491 329.472C570.63 332.699 555.867 335.925 539.54 339.542H539.638Z" fill="white"/>
<path d="M460.446 526.868C452.038 528.237 446.172 526.868 441.87 520.904C428.475 502.133 414.984 483.361 400.71 463.514C409.607 461.363 414.69 464.1 418.797 469.673C432.386 488.249 445.878 506.923 460.446 526.966V526.868Z" fill="white"/>
<path d="M28.604 333.187C42.2915 341.889 47.5711 353.035 66.5381 409.936C59.8898 413.163 55.8815 407.492 54.1216 404.07C43.1716 381.974 34.2746 359.096 28.604 333.187Z" fill="white"/>
<path d="M509.623 526.868C503.659 530.974 498.673 531.561 494.86 526.379C482.933 510.345 471.298 494.018 459.371 477.495C467.876 472.899 473.84 474.953 478.435 481.601C488.798 496.56 499.064 511.518 509.623 526.868Z" fill="white"/>
<path d="M432.289 468.598C436.199 470.26 441.577 470.749 443.923 473.682C457.904 490.987 471.2 508.879 482.932 529.801C479.217 528.432 474.133 528.237 471.982 525.597C457.611 507.901 443.923 489.618 429.942 471.629C430.724 470.651 431.409 469.673 432.191 468.598H432.289Z" fill="white"/>
<path d="M18.8272 218.7C25.7688 221.046 29.9729 222.415 35.4479 224.273C31.5372 236.103 27.822 246.955 23.8135 259.078C17.8496 257.416 13.0589 256.048 6.6062 254.19C10.8102 242.067 14.5254 231.214 18.8272 218.7Z" fill="white"/>
<path d="M587.544 286.649C589.304 292.418 590.575 296.622 592.335 302.39C577.669 305.714 564.177 308.745 549.512 311.972C547.557 304.052 549.512 299.359 556.943 297.013C566.426 293.982 575.812 290.658 587.446 286.747L587.544 286.649Z" fill="white"/>
<path d="M520.378 522.077C513.143 513.278 507.863 506.728 500.726 498.026C513.241 494.506 523.408 491.573 537.878 487.467C531.23 500.568 526.537 509.954 520.476 522.077H520.378Z" fill="white"/>
<path d="M584.807 279.805C574.541 282.739 565.84 285.378 556.552 288.018C556.878 277.98 564.08 270.941 578.158 266.9C580.016 270.517 581.971 274.428 584.807 279.805Z" fill="white"/>
<path d="M576.008 259.47C569.262 260.838 565.547 261.62 560.072 262.696C561.343 255.07 562.418 249.008 563.982 239.72C568.577 247.151 571.413 251.941 576.008 259.372V259.47Z" fill="white"/>
<path d="M65.0716 222.122C68.689 192.107 83.3541 163.167 117.182 146.742C155.8 127.97 221.11 152.217 225.998 207.75C228.736 238.84 219.936 267.291 196.765 288.8C174.376 309.527 147.392 317.251 117.768 305.323C82.8653 291.147 65.3648 264.651 64.9738 222.122H65.0716ZM83.2563 188.685C89.8068 196.017 94.011 200.613 98.9972 206.185C110.925 199.244 121.973 192.889 134.389 185.654C127.252 175.681 121.386 167.469 113.76 156.714C102.615 168.447 93.522 177.93 83.2563 188.782V188.685ZM191.877 249.497C166.555 261.523 164.893 265.14 169.292 295.937C192.659 291.733 198.329 280.392 191.877 249.497ZM183.762 196.8C179.656 185.458 175.94 175.193 172.421 165.513C162.84 174.215 154.432 181.841 146.219 189.271C152.672 196.8 158.44 203.643 164.795 211.074C170.857 206.576 176.821 201.981 183.762 196.8ZM166.359 252.919C185.066 241.578 191.29 226.912 185.033 208.923C177.114 214.398 169.488 219.58 160.982 225.446C162.742 234.441 164.404 242.947 166.359 252.919ZM140.157 193.182C126.079 201.981 115.031 208.825 103.592 215.864C107.894 224.273 111.316 230.823 114.542 237.178C127.936 231.605 135.953 218.211 140.06 193.182H140.157ZM125.101 279.903C134.389 274.624 140.646 271.202 146.708 267.487C159.32 259.567 159.222 259.47 153.161 244.022C144.883 253.538 135.269 253.701 124.319 244.511C115.52 256.243 125.199 266.509 125.199 279.903H125.101ZM110.534 252.626C100.073 256.243 91.6645 259.176 83.0609 262.207C94.9886 285.183 101.246 288.996 117.182 282.25C115.129 273.255 113.076 263.869 110.632 252.723L110.534 252.626ZM163.72 156.812C162.938 155.345 162.058 153.781 161.276 152.315C148.957 151.141 136.442 146.546 123.146 156.128C128.816 163.949 134.096 171.282 140.744 180.374C149.348 171.575 156.582 164.145 163.817 156.812H163.72ZM78.0746 253.017C88.9269 248.91 96.9439 245.782 106.525 242.164C102.126 233.756 98.4104 226.815 94.5975 219.482C86.8738 222.611 81.0079 225.055 73.9686 227.89C75.2395 235.809 76.5104 243.24 78.0746 253.017ZM159.124 274.722C158.147 274.037 157.169 273.451 156.192 272.766C146.904 281.565 130.674 281.468 125.394 300.044H157.756C158.244 290.658 158.734 282.641 159.222 274.624L159.124 274.722ZM208.497 186.632C203.022 191.324 198.721 195.04 194.81 198.364C197.45 207.847 199.502 214.887 201.653 222.611C218.861 209.021 219.35 206.576 208.497 186.632ZM206.64 261.229C215.732 248.715 217.883 240.405 216.123 225.153C202.045 234.93 202.24 233.756 206.64 261.229ZM206.445 178.223C196.472 170.402 190.508 165.611 184.447 160.821C183.469 161.7 182.491 162.483 181.513 163.363C185.033 171.282 188.455 179.201 192.366 188.196C197.548 184.481 200.774 182.232 206.445 178.223ZM75.1417 215.571C81.79 212.443 84.723 210.976 88.6338 209.118C86.0918 205.697 84.1364 203.252 81.0079 199.146C79.0525 204.523 77.7814 207.945 75.0439 215.571H75.1417Z" fill="black"/>
<path d="M434.439 228.966C468.56 228.281 497.109 252.919 503.366 288.898C507.277 311.58 489.874 361.932 463.086 375.13C436.786 388.036 401.003 386.961 378.81 368.971C353.39 348.439 346.546 321.26 354.074 290.462C364.242 249.399 390.444 229.846 434.439 228.966ZM471.005 323.019C434.147 341.205 430.529 346.875 436.102 375.228C463.673 373.077 473.645 364.082 471.005 323.019ZM438.546 331.916C444.803 328.201 450.767 324.877 456.535 321.162C473.253 310.114 473.938 304.737 460.739 288.409C437.47 301.412 432.876 310.016 438.546 332.014V331.916ZM393.084 311.972C416.255 304.443 420.947 294.178 410.682 276.286C402.274 280.001 393.768 283.716 385.067 287.529C388 296.622 390.444 303.857 393.084 312.069V311.972ZM459.371 276.775C455.558 269.735 452.136 263.38 448.127 255.95C438.644 262.794 427.303 263.771 423.196 273.744C430.92 278.339 437.568 282.25 445.292 286.845C448.812 284.303 453.407 280.979 459.273 276.677L459.371 276.775ZM397.581 246.662C386.436 250.768 379.103 257.514 375.388 266.998C374.312 269.833 378.419 274.624 380.57 279.414C390.738 274.722 399.048 270.909 408.531 266.509C404.327 258.883 401.003 252.919 397.483 246.564L397.581 246.662ZM384.578 317.251C381.254 307.279 378.419 299.164 374.899 288.507C369.522 292.32 364.047 294.08 362.874 297.404C359.941 306.203 358.278 315.589 363.949 325.366C370.499 322.824 376.365 320.477 384.578 317.153V317.251ZM427.694 346.484C417.428 350.297 409.998 352.252 403.447 355.87C400.71 357.336 398.461 362.225 398.364 365.549C398.364 367.7 402.274 371.024 405.109 372.002C410.877 373.957 417.037 374.642 424.272 376.01C425.445 365.549 426.423 357.532 427.694 346.484ZM398.266 349.124C407.358 345.702 416.157 342.378 426.912 338.271C417.33 334.361 410.617 327.582 406.771 317.936C397.386 321.194 394.518 331.591 398.168 349.124H398.266ZM417.819 262.403C427.107 257.025 434.44 252.723 442.163 248.324C432.289 236.787 425.347 236.103 405.305 243.729C409.313 249.693 413.029 255.265 417.819 262.403ZM388.587 352.741C387.511 344.04 386.436 335.338 385.262 325.073C376.952 328.299 371.184 330.548 365.611 332.796C372.65 353.523 373.726 354.501 388.587 352.839V352.741ZM484.986 269.54C469.93 280.49 469.832 281.859 481.466 300.533C490.657 293.884 491.83 283.553 484.986 269.54ZM482.15 334.752C483.617 334.947 484.986 335.241 486.452 335.436C489.19 325.855 492.025 316.273 495.251 305.128C476.676 311.483 482.737 324.193 482.15 334.654V334.752ZM467.485 270.029C471.591 265.531 474.623 262.403 478.24 258.492C471.983 252.919 468.659 244.902 456.829 249.595C460.446 256.439 463.574 262.5 467.485 269.931V270.029Z" fill="black"/>
<path d="M339.605 261.816C335.205 276.677 331.685 288.409 327.775 301.315C322.104 300.826 317.411 301.119 313.109 299.848C291.6 293.395 270.091 286.747 248.778 279.61C235.97 275.308 234.699 272.864 238.121 260.056C240.468 251.061 244.183 242.555 247.996 231.703C279.184 241.969 308.612 251.648 339.605 261.914V261.816ZM320.833 291.929C323.473 282.641 325.428 275.993 327.579 268.367C301.964 259.763 277.717 251.648 252.395 243.044C250.146 252.626 248.192 260.447 246.138 268.953C271.46 276.775 295.022 284.01 320.833 291.831V291.929Z" fill="black"/>
<path d="M360.918 225.641C354.27 224.077 350.163 223.295 346.155 222.122C324.255 215.571 322.592 212.247 329.338 190.738C337.16 165.807 340.093 164.34 364.535 173.335C367.859 174.606 371.184 175.975 374.41 177.344C380.96 179.983 383.6 184.774 381.254 191.52C378.223 200.515 375.485 209.705 371.086 218.015C369.033 221.828 363.46 223.784 360.82 225.641H360.918ZM334.423 206.185C344.297 209.412 352.412 212.051 361.407 215.082C364.829 205.794 367.664 198.364 370.988 189.369C360.527 185.947 351.923 183.014 342.538 179.983C339.702 189.076 337.453 196.311 334.325 206.185H334.423Z" fill="black"/>
<path d="M315.358 171.868C311.349 182.427 308.123 192.009 304.115 201.101C301.671 206.576 296.684 209.021 290.818 206.674C279.966 202.372 269.309 197.679 258.554 193.084C261.194 181.156 263.247 169.033 267.06 157.496C268.038 154.368 274.589 150.359 277.717 151.044C287.983 153.195 298.053 156.714 307.634 161.016C311.056 162.58 312.718 167.958 315.358 171.868ZM303.039 171.966C293.165 168.544 285.148 165.807 275.371 162.385C272.047 171.477 269.407 178.81 266.572 186.632C276.739 190.445 284.854 193.573 294.436 197.093C297.173 189.174 299.617 182.134 303.137 171.868L303.039 171.966Z" fill="black"/>
<path d="M268.723 366.331C272.927 351.372 276.739 337.783 280.65 324.29C282.508 318.131 286.908 316.078 293.165 317.544C293.751 317.642 294.338 317.838 294.925 317.935C326.21 325.464 331.49 325.757 317.998 358.803C309.492 379.726 309.394 379.726 286.81 372.882C281.335 371.22 275.958 368.971 268.723 366.331ZM289.645 327.81C285.832 339.542 282.801 348.733 279.477 358.998C288.276 361.638 294.827 363.594 303.039 366.038C307.048 355.968 310.665 347.071 314.967 336.414C305.777 333.285 298.835 330.939 289.645 327.81Z" fill="black"/>
<path d="M244.672 353.132C241.543 353.817 240.859 354.11 240.37 354.012C210.649 347.755 209.475 345.897 217.199 317.056C218.666 311.483 220.621 306.105 222.381 300.63C233.722 297.697 243.01 302.293 252.004 305.812C254.937 306.888 258.164 313.634 257.284 316.665C253.764 329.472 248.68 341.889 244.672 353.035V353.132ZM221.11 337.294C227.465 339.738 232.647 341.693 238.806 344.04C241.935 334.556 244.672 326.344 247.8 316.86C240.761 315.002 234.895 313.34 228.345 311.581C225.901 320.38 223.847 327.615 221.207 337.294H221.11Z" fill="black"/>
<path d="M532.207 268.562C530.936 267.487 528.493 266.411 528.493 265.238C528.199 251.355 528.297 237.471 528.297 223.197C543.353 234.636 544.917 254.483 532.207 268.562Z" fill="black"/>
<path d="M531.23 286.454C528.981 288.409 527.515 290.169 525.755 290.756C524.875 291.049 523.311 288.898 522.04 287.92C523.311 286.356 524.386 284.401 526.048 283.325C526.635 282.934 528.59 284.792 531.23 286.454Z" fill="black"/>
<path d="M83.2563 188.685C93.522 177.832 102.615 168.349 113.76 156.616C121.386 167.371 127.252 175.584 134.389 185.556C121.875 192.791 110.925 199.146 98.9972 206.088C94.011 200.515 89.9046 195.92 83.2563 188.587V188.685Z" fill="white"/>
<path d="M191.877 249.497C198.231 280.392 192.659 291.733 169.292 295.937C164.893 265.14 166.652 261.523 191.877 249.497Z" fill="white"/>
<path d="M183.762 196.8C176.919 201.981 170.857 206.479 164.795 211.074C158.44 203.643 152.672 196.799 146.219 189.271C154.334 181.841 162.742 174.215 172.421 165.513C175.94 175.193 179.656 185.458 183.762 196.8Z" fill="white"/>
<path d="M166.359 252.919C164.404 242.947 162.742 234.441 160.982 225.446C169.488 219.58 177.114 214.398 185.033 208.923C191.29 226.912 185.066 241.578 166.359 252.919Z" fill="white"/>
<path d="M140.157 193.182C136.051 218.211 128.034 231.605 114.64 237.178C111.316 230.823 107.992 224.273 103.69 215.865C115.031 208.825 126.079 201.884 140.255 193.182H140.157Z" fill="white"/>
<path d="M125.101 279.903C125.101 266.509 115.52 256.243 124.221 244.511C135.171 253.701 144.785 253.538 153.063 244.022C159.124 259.47 159.222 259.567 146.61 267.487C140.646 271.3 134.291 274.624 125.003 279.903H125.101Z" fill="white"/>
<path d="M110.534 252.626C112.978 263.771 115.129 273.157 117.084 282.152C101.148 288.898 94.8908 285.183 82.9631 262.109C91.6644 259.078 100.072 256.145 110.436 252.528L110.534 252.626Z" fill="white"/>
<path d="M163.72 156.812C156.485 164.145 149.25 171.575 140.646 180.374C134.096 171.282 128.719 163.949 123.048 156.128C136.344 146.546 148.859 151.141 161.178 152.315C161.96 153.781 162.84 155.345 163.622 156.812H163.72Z" fill="white"/>
<path d="M78.0747 253.017C76.4126 243.24 75.2396 235.809 73.9686 227.89C81.0079 225.055 86.8738 222.611 94.5975 219.482C98.4105 226.815 102.126 233.756 106.525 242.164C97.0417 245.782 88.9269 248.911 78.0747 253.017Z" fill="white"/>
<path d="M159.124 274.722C158.636 282.739 158.244 290.658 157.658 300.142H125.297C130.576 281.468 146.904 281.565 156.094 272.864C157.071 273.548 158.049 274.135 159.027 274.819L159.124 274.722Z" fill="white"/>
<path d="M208.497 186.632C219.35 206.576 218.861 209.021 201.653 222.611C199.503 214.985 197.548 207.847 194.81 198.364C198.721 195.04 203.022 191.324 208.497 186.632Z" fill="white"/>
<path d="M206.639 261.229C202.24 233.756 202.045 234.93 216.123 225.153C217.883 240.502 215.732 248.715 206.639 261.229Z" fill="white"/>
<path d="M206.445 178.223C200.774 182.232 197.548 184.481 192.366 188.196C188.455 179.201 184.935 171.282 181.513 163.363C182.491 162.483 183.469 161.7 184.447 160.82C190.508 165.611 196.472 170.304 206.445 178.223Z" fill="white"/>
<path d="M75.1417 215.571C77.8792 208.043 79.1501 204.523 81.1054 199.146C84.234 203.252 86.0916 205.697 88.7313 209.118C84.8206 210.976 81.8878 212.345 75.2396 215.571H75.1417Z" fill="white"/>
<path d="M471.005 323.019C473.645 363.985 463.672 373.077 436.102 375.228C430.431 346.875 434.147 341.205 471.005 323.019Z" fill="white"/>
<path d="M438.546 331.916C432.973 309.918 437.568 301.315 460.739 288.311C473.84 304.639 473.254 310.016 456.535 321.064C450.767 324.877 444.803 328.103 438.546 331.819V331.916Z" fill="white"/>
<path d="M393.083 311.972C390.346 303.759 387.999 296.524 385.066 287.432C393.768 283.619 402.274 279.903 410.682 276.188C420.947 294.178 416.255 304.346 393.083 311.874V311.972Z" fill="white"/>
<path d="M459.371 276.775C453.505 280.979 448.91 284.401 445.39 286.943C437.568 282.348 430.92 278.437 423.294 273.842C427.4 263.869 438.644 262.794 448.225 256.048C452.233 263.38 455.656 269.833 459.469 276.872L459.371 276.775Z" fill="white"/>
<path d="M397.581 246.662C401.1 253.017 404.425 258.981 408.629 266.607C399.145 271.006 390.834 274.819 380.667 279.512C378.516 274.722 374.41 269.931 375.485 267.096C379.103 257.514 386.435 250.866 397.679 246.76L397.581 246.662Z" fill="white"/>
<path d="M384.578 317.251C376.365 320.478 370.499 322.824 363.949 325.464C358.278 315.687 359.94 306.203 362.873 297.502C363.949 294.178 369.521 292.418 374.899 288.605C378.516 299.164 381.254 307.376 384.578 317.349V317.251Z" fill="white"/>
<path d="M427.694 346.484C426.423 357.532 425.445 365.549 424.272 376.01C417.037 374.544 410.877 373.859 405.109 372.002C402.274 371.024 398.363 367.798 398.363 365.549C398.363 362.225 400.612 357.336 403.447 355.87C409.997 352.252 417.428 350.297 427.694 346.484Z" fill="white"/>
<path d="M398.266 349.124C394.616 331.591 397.483 321.194 406.869 317.935C410.65 327.582 417.363 334.361 427.009 338.271C416.255 342.378 407.456 345.702 398.363 349.124H398.266Z" fill="white"/>
<path d="M417.819 262.403C413.029 255.266 409.313 249.693 405.305 243.729C425.347 236.103 432.289 236.787 442.163 248.324C434.44 252.821 427.107 257.025 417.819 262.403Z" fill="white"/>
<path d="M388.587 352.741C373.726 354.403 372.65 353.426 365.611 332.699C371.184 330.548 376.952 328.299 385.262 324.975C386.533 335.241 387.609 343.942 388.587 352.644V352.741Z" fill="white"/>
<path d="M484.986 269.54C491.83 283.618 490.657 293.949 481.466 300.533C469.832 281.761 469.93 280.49 484.986 269.54Z" fill="white"/>
<path d="M482.15 334.752C482.737 324.29 476.676 311.58 495.252 305.225C492.025 316.371 489.19 325.953 486.452 335.534C484.986 335.338 483.617 335.045 482.15 334.849V334.752Z" fill="white"/>
<path d="M467.485 270.029C463.574 262.5 460.348 256.536 456.828 249.693C468.658 244.902 471.983 252.919 478.24 258.59C474.622 262.403 471.689 265.629 467.485 270.126V270.029Z" fill="white"/>
<path d="M320.833 291.929C295.12 284.01 271.46 276.775 246.138 269.051C248.192 260.545 250.049 252.723 252.395 243.142C277.717 251.648 302.061 259.861 327.579 268.464C325.428 276.09 323.473 282.739 320.833 292.027V291.929Z" fill="white"/>
<path d="M334.423 206.185C337.551 196.311 339.8 189.076 342.635 179.983C352.021 183.112 360.624 185.947 371.086 189.369C367.762 198.364 364.926 205.794 361.505 215.082C352.412 212.052 344.297 209.412 334.52 206.185H334.423Z" fill="white"/>
<path d="M303.039 171.966C299.52 182.134 297.075 189.271 294.338 197.191C284.854 193.573 276.739 190.542 266.474 186.729C269.309 178.908 271.949 171.575 275.273 162.483C285.05 165.905 293.067 168.642 302.942 172.064L303.039 171.966Z" fill="white"/>
<path d="M289.645 327.81C298.835 330.939 305.874 333.383 314.967 336.414C310.665 347.071 307.048 356.065 303.039 366.038C294.925 363.594 288.276 361.638 279.477 358.998C282.801 348.733 285.832 339.542 289.645 327.81Z" fill="white"/>
<path d="M221.11 337.294C223.847 327.517 225.802 320.38 228.247 311.581C234.797 313.34 240.663 314.905 247.702 316.86C244.574 326.344 241.836 334.556 238.708 344.04C232.549 341.693 227.465 339.738 221.012 337.294H221.11Z" fill="white"/>
</svg>
