<svg width="59" height="36" viewBox="0 0 59 36" fill="none" xmlns="http://www.w3.org/2000/svg">
<path d="M5.904 35.712C5.328 35.552 4.864 35.408 4.512 35.28C4.16 35.184 3.984 35.136 3.984 35.136C4.048 34.976 4.016 34.832 3.888 34.704C3.792 34.576 3.568 34.496 3.216 34.464C2.736 34.176 2.288 33.808 1.872 33.36C1.488 32.944 1.168 32.528 0.911998 32.112C0.655998 31.696 0.463998 31.344 0.335999 31.056C0.111999 30.576 -1.43051e-06 30.288 -1.43051e-06 30.192C0.0319982 30.064 0.223998 29.92 0.575998 29.76C0.927999 29.504 1.184 29.424 1.344 29.52C1.536 29.616 1.76 29.936 2.016 30.48C2.432 31.216 3.136 31.776 4.128 32.16C5.152 32.544 6.288 32.72 7.536 32.688C8.816 32.624 10.032 32.336 11.184 31.824C12.368 31.344 13.104 30.848 13.392 30.336C13.712 29.792 13.6 29.104 13.056 28.272C12.96 28.016 12.848 27.808 12.72 27.648C12.592 27.488 12.384 27.28 12.096 27.024C11.84 26.768 11.408 26.352 10.8 25.776C10.32 25.552 9.872 25.344 9.456 25.152C9.072 24.96 8.656 24.752 8.208 24.528C7.696 24.272 7.072 23.904 6.336 23.424C5.632 22.912 4.96 22.352 4.32 21.744C3.68 21.136 3.216 20.576 2.928 20.064C2.416 19.584 2.032 18.928 1.776 18.096C1.52 17.232 1.424 16.32 1.488 15.36C1.552 14.4 1.792 13.536 2.208 12.768C2.4 12.32 2.72 11.776 3.168 11.136C3.648 10.464 4.176 9.792 4.752 9.12C5.328 8.448 5.888 7.84 6.432 7.296C6.976 6.752 7.424 6.368 7.776 6.144C8.032 5.888 8.304 5.632 8.592 5.376C8.88 5.088 9.024 4.944 9.024 4.944C9.056 4.784 9.104 4.704 9.168 4.704C9.264 4.704 9.312 4.704 9.312 4.704C9.472 4.608 9.824 4.448 10.368 4.224C10.912 4 11.504 3.584 12.144 2.976C14.288 1.952 16.032 1.2 17.376 0.719999C18.72 0.24 19.824 0 20.688 0C21.488 0.0319996 22.208 0.223999 22.848 0.575998C23.52 0.895998 24.064 1.328 24.48 1.872C24.928 2.416 25.2 3.072 25.296 3.84C25.52 4.608 25.456 5.504 25.104 6.528C24.752 7.52 24.224 8.464 23.52 9.36C22.848 10.224 22.112 10.88 21.312 11.328C20.416 11.712 19.808 11.888 19.488 11.856C19.2 11.792 19.072 11.456 19.104 10.848C19.104 10.592 19.184 10.288 19.344 9.936C19.536 9.584 20.032 8.96 20.832 8.064C21.856 6.56 22.48 5.36 22.704 4.464C22.928 3.568 22.72 3.072 22.08 2.976C21.888 2.912 21.536 2.912 21.024 2.976C20.544 3.04 20 3.136 19.392 3.264C18.816 3.36 18.32 3.472 17.904 3.6C17.488 3.696 17.28 3.776 17.28 3.84C17.28 3.84 17.28 3.888 17.28 3.984C17.28 4.08 17.216 4.112 17.088 4.08C17.024 4.08 16.752 4.208 16.272 4.464C15.792 4.72 15.216 5.056 14.544 5.472C13.872 5.888 13.2 6.304 12.528 6.72C11.856 7.136 11.28 7.504 10.8 7.824C10.352 8.112 10.112 8.288 10.08 8.352C10.016 8.704 9.648 9.024 8.976 9.312C8.336 9.696 7.744 10.256 7.2 10.992C6.688 11.728 6.112 12.64 5.472 13.728C4.928 14.464 4.544 15.264 4.32 16.128C4.096 16.96 4.096 17.632 4.32 18.144C4.48 18.656 4.976 19.312 5.808 20.112C6.64 20.912 7.68 21.68 8.928 22.416C10.016 23.024 10.992 23.632 11.856 24.24C12.72 24.816 13.424 25.376 13.968 25.92C14.544 26.464 14.928 26.944 15.12 27.36C15.504 27.904 15.776 28.464 15.936 29.04C16.128 29.584 16.224 30.112 16.224 30.624C16.256 31.136 16.208 31.6 16.08 32.016C15.856 32.528 15.456 33.056 14.88 33.6C14.336 34.144 13.872 34.4 13.488 34.368C13.136 34.464 12.864 34.576 12.672 34.704C12.512 34.832 12.32 34.944 12.096 35.04C11.872 35.168 11.392 35.296 10.656 35.424C9.952 35.552 9.168 35.632 8.304 35.664C7.44 35.728 6.64 35.744 5.904 35.712ZM21.723 31.584C21.595 31.328 21.435 31.136 21.243 31.008C21.051 30.848 20.955 30.704 20.955 30.576C20.955 30.448 20.939 30.32 20.907 30.192C20.907 30.032 20.843 29.888 20.715 29.76C20.555 29.568 20.571 29.136 20.763 28.464C20.955 27.76 21.275 26.912 21.723 25.92C22.171 24.896 22.699 23.824 23.307 22.704C23.563 22.448 23.819 22.112 24.075 21.696C24.331 21.28 24.523 21.008 24.651 20.88C24.651 20.752 24.699 20.64 24.795 20.544C24.891 20.416 25.003 20.352 25.131 20.352V20.064C25.131 19.904 25.275 19.632 25.563 19.248C25.883 18.864 26.267 18.448 26.715 18C27.163 17.52 27.627 17.072 28.107 16.656C28.587 16.208 28.987 15.888 29.307 15.696C29.979 15.248 30.667 14.976 31.371 14.88C32.107 14.784 32.731 14.944 33.243 15.36C33.339 15.456 33.499 15.616 33.723 15.84C33.947 16.064 34.203 16.32 34.491 16.608C34.811 16.864 35.131 17.136 35.451 17.424L37.227 19.008L36.363 21.408C35.947 22.688 35.835 23.808 36.027 24.768C36.251 25.728 36.571 26.56 36.987 27.264C37.147 27.616 37.467 27.952 37.947 28.272C38.459 28.592 38.939 28.784 39.387 28.848C39.643 28.88 39.883 28.976 40.107 29.136C40.331 29.296 40.443 29.552 40.443 29.904C40.443 30.224 40.379 30.48 40.251 30.672C40.123 30.864 39.899 30.992 39.579 31.056C38.523 31.184 37.531 30.928 36.603 30.288C35.707 29.648 34.875 28.592 34.107 27.12C33.979 26.928 33.803 26.576 33.579 26.064C33.387 25.52 33.275 25.168 33.243 25.008C33.115 25.168 32.875 25.472 32.523 25.92C32.171 26.336 31.899 26.64 31.707 26.832C29.435 29.136 27.467 30.688 25.803 31.488C24.171 32.256 22.811 32.288 21.723 31.584ZM23.451 28.896C23.451 29.12 23.787 29.12 24.459 28.896C25.163 28.64 25.915 28.192 26.715 27.552C27.803 26.624 28.891 25.6 29.979 24.48C31.099 23.36 31.995 22.32 32.667 21.36L33.723 19.632C33.403 18.896 33.051 18.4 32.667 18.144C32.315 17.856 32.011 17.712 31.755 17.712C31.339 17.712 30.715 18.096 29.883 18.864C29.083 19.632 28.219 20.656 27.291 21.936C26.363 23.216 25.483 24.624 24.651 26.16C24.331 26.8 24.043 27.424 23.787 28.032C23.563 28.608 23.451 28.896 23.451 28.896ZM56.5091 30.816C55.9011 31.04 55.3891 31.152 54.9731 31.152C54.5891 31.12 54.1571 30.928 53.6771 30.576C53.0691 30 52.8611 29.424 53.0531 28.848C53.2771 28.24 53.8051 27.648 54.6371 27.072C55.2131 26.72 55.6291 26.528 55.8851 26.496C56.1731 26.464 56.6051 26.576 57.1811 26.832C58.1411 27.44 58.5571 28.112 58.4291 28.848C58.3331 29.584 57.6931 30.24 56.5091 30.816Z" fill="#1A1A1A"/>
</svg>
