<svg width="51" height="8" viewBox="0 0 51 8" fill="none" xmlns="http://www.w3.org/2000/svg">
<path d="M0.696038 7.89614C0.544038 7.83214 0.400038 7.74814 0.264038 7.64414C0.128038 7.53214 0.0400381 7.44014 3.81768e-05 7.36814C3.81768e-05 7.29614 0.0120382 7.24814 0.0360382 7.22414C0.0600381 7.19214 0.128038 7.18014 0.240038 7.18814C0.360038 7.18814 0.552038 7.20414 0.816038 7.23614C0.912038 7.23614 1.03204 7.22814 1.17604 7.21214C1.32004 7.19614 1.45204 7.17214 1.57204 7.14014C1.70004 7.10814 1.77204 7.06814 1.78804 7.02014C1.82804 7.02014 1.83604 7.00814 1.81204 6.98414C1.78804 6.95214 1.76004 6.92014 1.72804 6.88814C1.69604 6.88814 1.66004 6.87614 1.62004 6.85214C1.58004 6.82014 1.54404 6.80414 1.51204 6.80414C1.51204 6.76414 1.47204 6.72014 1.39204 6.67214C1.32004 6.61614 1.24404 6.57214 1.16404 6.54014C0.988038 6.39614 0.836038 6.26814 0.708038 6.15614C0.580038 6.03614 0.532038 5.95614 0.564038 5.91614C0.564038 5.88414 0.564038 5.86814 0.564038 5.86814C0.564038 5.86014 0.564038 5.85614 0.564038 5.85614C0.508038 5.85614 0.444038 5.77614 0.372038 5.61614C0.308038 5.45614 0.276038 5.31214 0.276038 5.18414C0.276038 5.08814 0.304038 4.96814 0.360038 4.82414C0.416038 4.67214 0.492038 4.51614 0.588038 4.35614C0.684038 4.19614 0.784038 4.06414 0.888038 3.96014C1.03204 3.82414 1.21204 3.68014 1.42804 3.52814C1.64404 3.36814 1.85604 3.22814 2.06404 3.10814C2.28004 2.98014 2.46004 2.89614 2.60404 2.85614C2.74804 2.80014 2.88004 2.77214 3.00004 2.77214C3.12804 2.77214 3.24004 2.80014 3.33604 2.85614C3.41604 2.89614 3.48804 2.95614 3.55204 3.03614C3.62404 3.10814 3.68404 3.18414 3.73204 3.26414C3.78804 3.33614 3.82404 3.40014 3.84004 3.45614C3.84004 3.55214 3.83204 3.66014 3.81604 3.78014C3.80004 3.89214 3.77604 3.99214 3.74404 4.08014C3.72004 4.16814 3.68004 4.21214 3.62404 4.21214C3.62404 4.21214 3.61204 4.21614 3.58804 4.22414C3.57204 4.22414 3.56404 4.24414 3.56404 4.28414C3.56404 4.36414 3.50404 4.45614 3.38404 4.56014C3.23204 4.66414 3.10004 4.72814 2.98804 4.75214C2.87604 4.76814 2.80804 4.72414 2.78404 4.62014C2.76004 4.58814 2.74404 4.56014 2.73604 4.53614C2.72804 4.51214 2.70804 4.50014 2.67604 4.50014C2.67604 4.50014 2.66404 4.48814 2.64004 4.46414C2.61604 4.44014 2.60404 4.40014 2.60404 4.34414C2.60404 4.31214 2.61604 4.28414 2.64004 4.26014C2.66404 4.22814 2.67604 4.21214 2.67604 4.21214C2.71604 4.21214 2.76804 4.16814 2.83204 4.08014C2.89604 3.98414 2.95204 3.88414 3.00004 3.78014C3.05604 3.66814 3.08404 3.59214 3.08404 3.55214C3.08404 3.50414 3.07604 3.47614 3.06004 3.46814C3.05204 3.46014 3.01604 3.45614 2.95204 3.45614C2.84004 3.50414 2.70404 3.56814 2.54404 3.64814C2.38404 3.72814 2.23204 3.80814 2.08804 3.88814C1.95204 3.96014 1.85204 4.02814 1.78804 4.09214C1.75604 4.14814 1.73604 4.18414 1.72804 4.20014C1.72004 4.20814 1.70004 4.21214 1.66804 4.21214C1.66804 4.18014 1.64004 4.19614 1.58404 4.26014C1.53604 4.31614 1.47204 4.39614 1.39204 4.50014C1.32004 4.60414 1.24804 4.70814 1.17604 4.81214C1.11204 4.90814 1.06404 4.98014 1.03204 5.02814C1.01604 5.04414 0.996038 5.09214 0.972038 5.17214C0.956038 5.24414 0.948038 5.31214 0.948038 5.37614C0.916038 5.47214 0.920038 5.54014 0.960038 5.58014C1.00004 5.61214 1.08804 5.68414 1.22404 5.79614C1.50404 6.00414 1.72404 6.17614 1.88404 6.31214C2.04404 6.44814 2.16404 6.56014 2.24404 6.64814C2.32404 6.73614 2.37204 6.81614 2.38804 6.88814C2.53204 7.12814 2.57604 7.31214 2.52004 7.44014C2.46404 7.56814 2.32804 7.68014 2.11204 7.77614C2.03204 7.81614 1.90004 7.84814 1.71604 7.87214C1.53204 7.89614 1.34404 7.90814 1.15204 7.90814C0.960038 7.91614 0.808038 7.91214 0.696038 7.89614ZM5.31388 7.57214C5.13788 7.57214 5.00588 7.56414 4.91788 7.54814C4.82988 7.53214 4.76188 7.50814 4.71388 7.47614C4.66588 7.44414 4.60988 7.40014 4.54588 7.34414C4.51388 7.28014 4.47388 7.21214 4.42588 7.14014C4.37788 7.06814 4.33788 7.01614 4.30588 6.98414C4.27388 6.86414 4.25788 6.70814 4.25788 6.51614C4.26588 6.32414 4.28988 6.11614 4.32988 5.89214C4.37788 5.66814 4.44188 5.46014 4.52188 5.26814C4.55388 5.20414 4.58188 5.14014 4.60588 5.07614C4.62988 5.01214 4.64188 4.98014 4.64188 4.98014C4.64188 4.94014 4.68988 4.84414 4.78588 4.69214C4.88988 4.54014 5.00188 4.38014 5.12188 4.21214C5.24988 4.04414 5.35388 3.92414 5.43388 3.85214C5.48988 3.78814 5.57388 3.72014 5.68588 3.64814C5.80588 3.57614 5.90988 3.52414 5.99788 3.49214C6.08588 3.46014 6.17388 3.43214 6.26188 3.40814C6.35788 3.38414 6.46588 3.37214 6.58588 3.37214C6.69788 3.37214 6.80188 3.39614 6.89788 3.44414C6.99388 3.49214 7.08588 3.57614 7.17388 3.69614C7.31788 3.84014 7.39788 3.98414 7.41388 4.12814C7.43788 4.26414 7.43388 4.40414 7.40188 4.54814C7.36188 4.70814 7.30988 4.83214 7.24588 4.92014C7.18188 5.00014 7.10988 5.03614 7.02988 5.02814C6.94988 5.02014 6.85788 4.96014 6.75388 4.84814C6.72188 4.78414 6.70588 4.73214 6.70588 4.69214C6.70588 4.64414 6.72188 4.57614 6.75388 4.48814C6.78588 4.37614 6.78588 4.26014 6.75388 4.14014C6.72188 4.02014 6.66988 3.96014 6.59788 3.96014C6.49388 3.96014 6.37788 4.00814 6.24988 4.10414C6.12988 4.19214 6.00588 4.30414 5.87788 4.44014C5.82188 4.50414 5.74188 4.60414 5.63788 4.74014C5.54188 4.86814 5.44588 5.01214 5.34988 5.17214C5.25388 5.32414 5.17388 5.47214 5.10988 5.61614C5.02188 5.88014 4.94988 6.09214 4.89388 6.25214C4.84588 6.41214 4.82188 6.49214 4.82188 6.49214C4.82188 6.52414 4.82988 6.55614 4.84588 6.58814C4.86988 6.61214 4.88188 6.64014 4.88188 6.67214C4.88188 6.76814 4.93788 6.84414 5.04988 6.90014C5.13788 6.95614 5.24188 6.98814 5.36188 6.99614C5.48188 6.99614 5.62988 6.95614 5.80588 6.87614C5.93388 6.81214 6.05388 6.72814 6.16588 6.62414C6.28588 6.52014 6.40988 6.42814 6.53788 6.34814C6.62588 6.29214 6.69388 6.24414 6.74188 6.20414C6.79788 6.16414 6.82588 6.16014 6.82588 6.19214C6.82588 6.22414 6.83788 6.24014 6.86188 6.24014C6.88588 6.24014 6.91388 6.22414 6.94588 6.19214C6.99388 6.12814 7.04588 6.08814 7.10188 6.07214C7.15788 6.04814 7.20588 6.04014 7.24588 6.04814C7.29388 6.04814 7.31788 6.06014 7.31788 6.08414C7.30188 6.15614 7.31788 6.21614 7.36588 6.26414C7.36588 6.29614 7.35388 6.34014 7.32988 6.39614C7.31388 6.44414 7.28988 6.48414 7.25788 6.51614C7.21788 6.57214 7.15788 6.63614 7.07788 6.70814C7.00588 6.78014 6.93788 6.84414 6.87388 6.90014C6.80988 6.94814 6.77788 6.97214 6.77788 6.97214C6.74588 6.96414 6.71388 6.97214 6.68188 6.99614C6.65788 7.02014 6.62988 7.04814 6.59788 7.08014C6.53388 7.13614 6.47388 7.18014 6.41788 7.21214C6.36188 7.23614 6.31788 7.24814 6.28588 7.24814C6.22988 7.28014 6.18588 7.30014 6.15388 7.30814C6.12988 7.31614 6.11788 7.33614 6.11788 7.36814C6.03788 7.44814 5.93788 7.50414 5.81788 7.53614C5.70588 7.56014 5.53788 7.57214 5.31388 7.57214ZM8.86091 7.57214C8.82091 7.65214 8.76091 7.67614 8.68091 7.64414C8.60891 7.61214 8.54891 7.58014 8.50091 7.54814C8.44491 7.54814 8.39691 7.53214 8.35691 7.50014C8.31691 7.46814 8.28891 7.42014 8.27291 7.35614C8.25691 7.30814 8.25291 7.25214 8.26091 7.18814C8.26891 7.11614 8.28491 7.03614 8.30891 6.94814C8.34091 6.85214 8.37291 6.74814 8.40491 6.63614C8.46891 6.37214 8.51291 6.18014 8.53691 6.06014C8.56091 5.94014 8.58491 5.83614 8.60891 5.74814C8.63291 5.66014 8.66491 5.53214 8.70491 5.36414C8.76891 5.20414 8.82091 5.04814 8.86091 4.89614C8.90091 4.74414 8.96091 4.59214 9.04091 4.44014C9.09691 4.23214 9.16491 4.03614 9.24491 3.85214C9.33291 3.66014 9.41691 3.50014 9.49691 3.37214C9.51291 3.34814 9.54091 3.31614 9.58091 3.27614C9.62891 3.23614 9.66891 3.21614 9.70091 3.21614C9.76491 3.15214 9.82091 3.12814 9.86891 3.14414C9.92491 3.15214 9.99291 3.18814 10.0729 3.25214C10.1689 3.35614 10.2049 3.47614 10.1809 3.61214C10.1649 3.74814 10.0689 3.94814 9.89291 4.21214C9.79691 4.46014 9.70891 4.67614 9.62891 4.86014C9.54891 5.03614 9.49291 5.20414 9.46091 5.36414C9.54891 5.23614 9.64491 5.12014 9.74891 5.01614C9.86091 4.90414 9.95291 4.81214 10.0249 4.74014C10.2009 4.56414 10.3449 4.43614 10.4569 4.35614C10.5769 4.27614 10.7169 4.18414 10.8769 4.08014C10.9729 4.01614 11.0649 3.96014 11.1529 3.91214C11.2409 3.85614 11.3369 3.81614 11.4409 3.79214C11.5529 3.76814 11.6729 3.76814 11.8009 3.79214C11.8809 3.78414 11.9449 3.80814 11.9929 3.86414C12.0489 3.92014 12.0929 3.99614 12.1249 4.09214C12.1569 4.18814 12.1769 4.30014 12.1849 4.42814C12.0009 4.38814 11.8369 4.39614 11.6929 4.45214C11.5489 4.50014 11.4249 4.56014 11.3209 4.63214C11.2249 4.70414 11.1489 4.76014 11.0929 4.80014C10.9729 4.88014 10.8209 4.98814 10.6369 5.12414C10.4529 5.25214 10.2689 5.40814 10.0849 5.59214C9.94091 5.75214 9.81691 5.88814 9.71291 6.00014C9.61691 6.11214 9.53691 6.21214 9.47291 6.30014C9.41691 6.38814 9.37291 6.48014 9.34091 6.57614C9.26091 6.76014 9.17691 6.96014 9.08891 7.17614C9.00091 7.39214 8.92491 7.52414 8.86091 7.57214ZM13.4131 7.66814C13.3091 7.66814 13.2251 7.64814 13.1611 7.60814C13.1051 7.56814 13.0331 7.51214 12.9451 7.44014C12.7931 7.28014 12.6851 7.12814 12.6211 6.98414C12.5571 6.83214 12.5371 6.68814 12.5611 6.55214C12.5851 6.48814 12.5931 6.42814 12.5851 6.37214C12.5851 6.30814 12.5851 6.27614 12.5851 6.27614C12.5451 6.23614 12.5331 6.21214 12.5491 6.20414C12.5651 6.18814 12.5811 6.16414 12.5971 6.13214C12.6451 6.13214 12.6611 6.08814 12.6451 6.00014C12.6291 5.93614 12.6611 5.79614 12.7411 5.58014C12.8211 5.36414 12.9211 5.16014 13.0411 4.96814C13.0891 4.88814 13.1611 4.78414 13.2571 4.65614C13.3531 4.52014 13.4571 4.38814 13.5691 4.26014C13.6891 4.12414 13.7971 4.01614 13.8931 3.93614C14.0931 3.76814 14.2691 3.64414 14.4211 3.56414C14.5731 3.48414 14.7371 3.42414 14.9131 3.38414C15.0891 3.34414 15.2091 3.32414 15.2731 3.32414C15.3451 3.32414 15.4411 3.38814 15.5611 3.51614C15.7451 3.59614 15.8771 3.69214 15.9571 3.80414C16.0451 3.91614 16.1011 4.08014 16.1251 4.29614C16.1491 4.53614 16.1291 4.81214 16.0651 5.12414C16.0091 5.42814 15.8211 5.80814 15.5011 6.26414C15.3011 6.55214 15.1171 6.76814 14.9491 6.91214C14.7811 7.04814 14.5811 7.18414 14.3491 7.32014C14.1811 7.43214 14.0291 7.51614 13.8931 7.57214C13.7571 7.62014 13.5971 7.65214 13.4131 7.66814ZM14.5651 6.39614C14.7571 6.18014 14.9091 5.97614 15.0211 5.78414C15.1411 5.59214 15.2531 5.34814 15.3571 5.05214C15.3891 4.96414 15.4091 4.85614 15.4171 4.72814C15.4251 4.59214 15.4211 4.46814 15.4051 4.35614C15.3971 4.23614 15.3691 4.16814 15.3211 4.15214C15.2251 4.09614 15.1091 4.08014 14.9731 4.10414C14.8371 4.12014 14.6891 4.19614 14.5291 4.33214C14.2811 4.54014 14.0651 4.80014 13.8811 5.11214C13.6971 5.41614 13.5171 5.76414 13.3411 6.15614C13.2211 6.44414 13.1931 6.67614 13.2571 6.85214C13.3291 7.02014 13.4771 7.08014 13.7011 7.03214C13.9331 6.97614 14.2211 6.76414 14.5651 6.39614ZM17.1756 7.84814C17.0236 7.88814 16.8996 7.85614 16.8036 7.75214C16.7156 7.64814 16.6636 7.48814 16.6476 7.27214C16.6316 7.05614 16.6556 6.80014 16.7196 6.50414C16.7596 6.40814 16.7916 6.31614 16.8156 6.22814C16.8396 6.13214 16.8516 6.05614 16.8516 6.00014C16.8676 5.92014 16.8996 5.80414 16.9476 5.65214C16.9956 5.49214 17.0476 5.32814 17.1036 5.16014C17.1596 4.99214 17.2116 4.84414 17.2596 4.71614C17.3156 4.58014 17.3516 4.49614 17.3676 4.46414C17.3996 4.46414 17.4276 4.43614 17.4516 4.38014C17.4756 4.32414 17.4876 4.26814 17.4876 4.21214C17.4876 4.14814 17.4996 4.07614 17.5236 3.99614C17.5556 3.91614 17.5876 3.86014 17.6196 3.82814C17.6196 3.78814 17.6276 3.74414 17.6436 3.69614C17.6676 3.64014 17.6796 3.59614 17.6796 3.56414C17.6796 3.53214 17.6876 3.50014 17.7036 3.46814C17.7276 3.43614 17.7396 3.40414 17.7396 3.37214C17.7956 3.26814 17.8676 3.10414 17.9556 2.88014C18.0516 2.64814 18.1516 2.39214 18.2556 2.11214C18.3676 1.83214 18.4716 1.55614 18.5676 1.28414C18.6636 1.01214 18.7396 0.784144 18.7956 0.600144C18.8596 0.408144 18.8916 0.292144 18.8916 0.252144C18.8916 0.188144 18.9076 0.140144 18.9396 0.108144C18.9716 0.076144 19.0196 0.0601439 19.0836 0.0601439C19.1076 0.0361443 19.1356 0.0201442 19.1676 0.0121439C19.2076 0.00414395 19.2436 0.000144005 19.2756 0.000144005C19.2756 0.000144005 19.2916 0.016144 19.3236 0.0481441C19.3556 0.0801442 19.4036 0.128144 19.4676 0.192144C19.5316 0.248144 19.5676 0.312144 19.5756 0.384144C19.5916 0.456144 19.5996 0.540144 19.5996 0.636144C19.5996 0.740144 19.5876 0.832144 19.5636 0.912144C19.5396 0.992144 19.4916 1.10814 19.4196 1.26014C19.3476 1.41214 19.2356 1.64814 19.0836 1.96814C19.0196 2.12814 18.9516 2.28014 18.8796 2.42414C18.8076 2.56014 18.7716 2.64414 18.7716 2.67614C18.7716 2.70814 18.7556 2.75614 18.7236 2.82014C18.6996 2.88414 18.6716 2.96414 18.6396 3.06014C18.6076 3.12414 18.5636 3.22014 18.5076 3.34814C18.4516 3.46814 18.3916 3.60014 18.3276 3.74414C18.2716 3.88014 18.2236 4.00014 18.1836 4.10414C18.1436 4.20014 18.1236 4.25614 18.1236 4.27214C18.1236 4.30414 18.1196 4.33614 18.1116 4.36814C18.1116 4.40014 18.0956 4.43214 18.0636 4.46414C18.0316 4.46414 18.0116 4.48814 18.0036 4.53614C18.0036 4.57614 18.0036 4.59614 18.0036 4.59614C18.0036 4.67614 17.9396 4.88814 17.8116 5.23214C17.6836 5.67214 17.5636 6.07614 17.4516 6.44414C17.3476 6.81214 17.2956 7.10814 17.2956 7.33214C17.2956 7.52414 17.2916 7.65214 17.2836 7.71614C17.2756 7.77214 17.2396 7.81614 17.1756 7.84814ZM19.0349 7.28414C18.9549 7.23614 18.8949 7.18814 18.8549 7.14014C18.8149 7.09214 18.7949 7.02414 18.7949 6.93614C18.7949 6.81614 18.8109 6.69214 18.8429 6.56414C18.8749 6.42814 18.9069 6.29614 18.9389 6.16814C18.9549 6.02414 18.9749 5.88014 18.9989 5.73614C19.0309 5.58414 19.0869 5.44414 19.1669 5.31614C19.2549 5.01214 19.3469 4.71214 19.4429 4.41614C19.5389 4.11214 19.6229 3.80014 19.6949 3.48014C19.7989 3.18414 19.8909 2.92414 19.9709 2.70014C20.0589 2.46814 20.1669 2.17614 20.2949 1.82414C20.3669 1.62414 20.4269 1.41214 20.4749 1.18814C20.5309 0.956144 20.6149 0.748144 20.7269 0.564144C20.7749 0.492144 20.8109 0.432144 20.8349 0.384144C20.8669 0.328144 20.8989 0.276144 20.9309 0.228144C20.9389 0.196144 20.9629 0.176144 21.0029 0.168144C21.0509 0.160144 21.1029 0.164144 21.1589 0.180144C21.2149 0.196144 21.2589 0.224144 21.2909 0.264144C21.3149 0.256144 21.3429 0.280144 21.3749 0.336144C21.4149 0.384144 21.4509 0.440144 21.4829 0.504144C21.5149 0.568144 21.5269 0.624144 21.5189 0.672144C21.5189 0.704144 21.5109 0.748144 21.4949 0.804144C21.4869 0.860144 21.4669 0.912144 21.4349 0.960145C21.4029 0.992144 21.3709 1.04014 21.3389 1.10414C21.3149 1.16014 21.2749 1.24014 21.2189 1.34414C21.1869 1.44814 21.1589 1.55614 21.1349 1.66814C21.1109 1.77214 21.0789 1.86814 21.0389 1.95614C21.0069 2.05214 20.9669 2.14414 20.9189 2.23214C20.8789 2.32014 20.8509 2.39214 20.8349 2.44814C20.7789 2.63214 20.7109 2.81214 20.6309 2.98814C20.5589 3.16414 20.4949 3.35214 20.4389 3.55214C20.3829 3.74414 20.3269 3.94414 20.2709 4.15214C20.2149 4.35214 20.1349 4.54414 20.0309 4.72814C19.9749 4.81614 19.9349 4.92814 19.9109 5.06414C19.8869 5.20014 19.8629 5.33614 19.8389 5.47214C19.7909 5.61614 19.7469 5.75214 19.7069 5.88014C19.6749 6.00014 19.6589 6.07614 19.6589 6.10814C19.6109 6.28414 19.5749 6.46014 19.5509 6.63614C19.5349 6.80414 19.4949 6.95214 19.4309 7.08014C19.4229 7.16014 19.4069 7.22414 19.3829 7.27214C19.3589 7.32014 19.3189 7.34814 19.2629 7.35614C19.2069 7.35614 19.1309 7.33214 19.0349 7.28414ZM26.4525 7.81214C26.3645 7.84414 26.3005 7.85614 26.2605 7.84814C26.2285 7.83214 26.1445 7.77214 26.0085 7.66814C25.9525 7.57214 25.9165 7.48814 25.9005 7.41614C25.8925 7.33614 25.8885 7.19614 25.8885 6.99614C25.9045 6.87614 25.9365 6.70414 25.9845 6.48014C26.0405 6.25614 26.1045 6.02014 26.1765 5.77214C26.2485 5.52414 26.3125 5.30014 26.3685 5.10014C26.4325 4.90014 26.4805 4.76414 26.5125 4.69214C26.5685 4.50014 26.5805 4.38414 26.5485 4.34414C26.5165 4.29614 26.4205 4.26414 26.2605 4.24814C25.9405 4.20814 25.6525 4.31214 25.3965 4.56014C25.1405 4.80814 24.8845 5.13214 24.6285 5.53214C24.4365 5.82814 24.3205 6.08414 24.2805 6.30014C24.2485 6.50814 24.2445 6.65214 24.2685 6.73214C24.2925 6.79614 24.3485 6.83214 24.4365 6.84014C24.5245 6.84014 24.6205 6.82014 24.7245 6.78014C24.8365 6.74014 24.9325 6.70014 25.0125 6.66014C25.0685 6.62814 25.1365 6.59614 25.2165 6.56414C25.3045 6.52414 25.3885 6.48814 25.4685 6.45614C25.5165 6.45614 25.5485 6.47214 25.5645 6.50414C25.5885 6.52814 25.6005 6.58014 25.6005 6.66014C25.6005 6.69214 25.6125 6.72014 25.6365 6.74414C25.6605 6.76814 25.6885 6.78814 25.7205 6.80414C25.7525 6.83614 25.7045 6.90814 25.5765 7.02014C25.4565 7.13214 25.2685 7.26014 25.0125 7.40414C24.7725 7.46014 24.5765 7.48814 24.4245 7.48814C24.2805 7.48814 24.1405 7.43614 24.0045 7.33214C23.7805 7.19614 23.6525 6.97614 23.6205 6.67214C23.5965 6.36014 23.6605 5.98014 23.8125 5.53214C23.9645 5.17214 24.1325 4.88014 24.3165 4.65614C24.5005 4.42414 24.6965 4.20014 24.9045 3.98414C24.9365 3.95214 25.0085 3.90414 25.1205 3.84014C25.2405 3.76814 25.3885 3.70414 25.5645 3.64814C25.7645 3.58414 25.9525 3.54414 26.1285 3.52814C26.3045 3.51214 26.4565 3.54814 26.5845 3.63614C26.7285 3.66814 26.8205 3.66414 26.8605 3.62414C26.9005 3.57614 26.9685 3.43214 27.0645 3.19214C27.2245 2.79214 27.3805 2.38814 27.5325 1.98014C27.6845 1.56414 27.8485 1.14414 28.0245 0.720144C28.1045 0.568144 28.1525 0.452144 28.1685 0.372144C28.1925 0.284144 28.2205 0.224144 28.2525 0.192144H28.4805C28.5125 0.192144 28.5685 0.220144 28.6485 0.276144C28.7285 0.332144 28.7845 0.408144 28.8165 0.504144C28.8165 0.576144 28.7845 0.736144 28.7205 0.984144C28.6565 1.22414 28.5525 1.51214 28.4085 1.84814C28.2805 2.14414 28.1525 2.44414 28.0245 2.74814C27.9045 3.04414 27.7885 3.36014 27.6765 3.69614C27.5885 3.94414 27.5085 4.14414 27.4365 4.29614C27.3645 4.44814 27.3165 4.58014 27.2925 4.69214C27.2445 4.90014 27.1845 5.08814 27.1125 5.25614C27.0485 5.41614 27.0045 5.52814 26.9805 5.59214C26.8765 5.89614 26.7925 6.14414 26.7285 6.33614C26.6645 6.52014 26.6165 6.67614 26.5845 6.80414C26.5525 6.92414 26.5325 7.04814 26.5245 7.17614C26.5245 7.29614 26.5365 7.44014 26.5605 7.60814C26.5605 7.64014 26.5565 7.67214 26.5485 7.70414C26.5405 7.73614 26.5085 7.77214 26.4525 7.81214ZM29.7475 7.39214C29.5795 7.42414 29.4715 7.43614 29.4235 7.42814C29.3835 7.41214 29.3195 7.36414 29.2315 7.28414C29.1035 7.22014 28.9955 7.14014 28.9075 7.04414C28.8275 6.94814 28.7675 6.84814 28.7275 6.74414C28.6955 6.63214 28.6835 6.54014 28.6915 6.46814C28.7155 6.18814 28.7835 5.88814 28.8955 5.56814C29.0075 5.24814 29.1435 4.94014 29.3035 4.64414C29.4635 4.34814 29.6355 4.09614 29.8195 3.88814C30.0115 3.67214 30.1955 3.53214 30.3715 3.46814C30.5315 3.40414 30.6835 3.38014 30.8275 3.39614C30.9715 3.41214 31.0755 3.48814 31.1395 3.62414C31.2595 3.85614 31.2315 4.00414 31.0555 4.06814C31.0315 4.06814 31.0035 4.08014 30.9715 4.10414C30.9395 4.12014 30.9235 4.14414 30.9235 4.17614C30.9555 4.19214 31.0435 4.19614 31.1875 4.18814C31.3315 4.17214 31.4755 4.14814 31.6195 4.11614C31.7715 4.07614 31.8715 4.03614 31.9195 3.99614C31.9675 3.97214 32.0035 3.96014 32.0275 3.96014C32.0515 3.96014 32.1115 3.96814 32.2075 3.98414C32.3435 4.02414 32.4115 4.07214 32.4115 4.12814C32.4115 4.16014 32.4235 4.19214 32.4475 4.22414C32.4715 4.24814 32.4995 4.26014 32.5315 4.26014C32.5875 4.26814 32.5795 4.30414 32.5075 4.36814C32.4435 4.43214 32.3315 4.52014 32.1715 4.63214C32.0195 4.72814 31.9235 4.79214 31.8835 4.82414C31.8515 4.84814 31.8475 4.90414 31.8715 4.99214C31.9355 5.14414 31.9395 5.32014 31.8835 5.52014C31.8275 5.72014 31.7275 5.92414 31.5835 6.13214C31.4395 6.34014 31.2635 6.53614 31.0555 6.72014C30.8555 6.89614 30.6395 7.04814 30.4075 7.17614C30.1835 7.29614 29.9635 7.36814 29.7475 7.39214ZM29.5435 6.86414C29.5755 6.86414 29.6315 6.84814 29.7115 6.81614C29.7915 6.77614 29.8555 6.74414 29.9035 6.72014C29.9355 6.68814 29.9755 6.65214 30.0235 6.61214C30.0795 6.56414 30.1235 6.53614 30.1555 6.52814C30.1875 6.52814 30.2275 6.51614 30.2755 6.49214C30.3235 6.46014 30.3915 6.40014 30.4795 6.31214C30.5675 6.21614 30.6835 6.07614 30.8275 5.89214C30.9875 5.71614 31.1115 5.55614 31.1995 5.41214C31.2875 5.26014 31.3115 5.12014 31.2715 4.99214C31.2635 4.96014 31.2395 4.94014 31.1995 4.93214C31.1675 4.92414 31.1235 4.90414 31.0675 4.87214C30.9875 4.87214 30.9115 4.85214 30.8395 4.81214C30.7755 4.76414 30.6995 4.70414 30.6115 4.63214L30.4195 4.39214L30.2155 4.59614C30.0875 4.72414 29.9515 4.91614 29.8075 5.17214C29.6715 5.42014 29.5555 5.67614 29.4595 5.94014C29.3635 6.19614 29.3075 6.40014 29.2915 6.55214C29.2835 6.67214 29.3035 6.75214 29.3515 6.79214C29.3995 6.83214 29.4635 6.85614 29.5435 6.86414ZM33.6419 7.30814C33.5219 7.30814 33.4099 7.23614 33.3059 7.09214C33.2099 6.94014 33.1379 6.74814 33.0899 6.51614C33.0499 6.27614 33.0379 6.02814 33.0539 5.77214C33.0539 5.51614 33.0659 5.31214 33.0899 5.16014C33.1219 5.00014 33.1539 4.84414 33.1859 4.69214C33.2099 4.64414 33.2219 4.60414 33.2219 4.57214C33.2299 4.54014 33.2379 4.48814 33.2459 4.41614C33.2619 4.34414 33.2899 4.22414 33.3299 4.05614C33.3619 3.92014 33.3939 3.80814 33.4259 3.72014C33.4579 3.63214 33.4899 3.57214 33.5219 3.54014C33.5619 3.49214 33.6139 3.46414 33.6779 3.45614C33.7419 3.44014 33.8059 3.44414 33.8699 3.46814C33.9339 3.49214 33.9859 3.53614 34.0259 3.60014C34.0739 3.64014 34.0979 3.73214 34.0979 3.87614C34.1059 4.01214 34.0979 4.15614 34.0739 4.30814C34.0499 4.45214 34.0139 4.55614 33.9659 4.62014C33.9499 4.66014 33.9299 4.76414 33.9059 4.93214C33.8899 5.10014 33.8699 5.27614 33.8459 5.46014C33.8299 5.64414 33.8099 5.79214 33.7859 5.90414C33.7619 6.04814 33.7739 6.16414 33.8219 6.25214C33.8779 6.34014 33.9779 6.34414 34.1219 6.26414C34.2739 6.17614 34.4739 5.95214 34.7219 5.59214C34.8899 5.35214 35.0179 5.15614 35.1059 5.00414C35.1939 4.85214 35.2619 4.71214 35.3099 4.58414C35.3659 4.44814 35.4219 4.30414 35.4779 4.15214C35.5179 4.02414 35.5539 3.92014 35.5859 3.84014C35.6259 3.75214 35.6619 3.69614 35.6939 3.67214C35.7499 3.63214 35.8139 3.61614 35.8859 3.62414C35.9659 3.63214 36.0539 3.66814 36.1499 3.73214C36.2459 3.82814 36.2939 3.94414 36.2939 4.08014C36.2939 4.20814 36.2459 4.36814 36.1499 4.56014C36.0859 4.68814 36.0219 4.85214 35.9579 5.05214C35.9019 5.25214 35.8539 5.45614 35.8139 5.66414C35.7819 5.86414 35.7659 6.02814 35.7659 6.15614C35.7659 6.31614 35.7859 6.41214 35.8259 6.44414C35.8739 6.46814 35.9299 6.48014 35.9939 6.48014C36.0899 6.48014 36.2059 6.44414 36.3419 6.37214C36.4779 6.30014 36.6299 6.17614 36.7979 6.00014C36.8699 5.92814 36.9579 5.82414 37.0619 5.68814C37.1659 5.54414 37.2659 5.39614 37.3619 5.24414C37.4659 5.08414 37.5499 4.94414 37.6139 4.82414C37.6859 4.70414 37.7219 4.62814 37.7219 4.59614C37.7219 4.54814 37.7579 4.48014 37.8299 4.39214C37.8779 4.32814 37.9139 4.28014 37.9379 4.24814C37.9699 4.20814 38.0259 4.16814 38.1059 4.12814C38.1699 4.09614 38.2259 4.09214 38.2739 4.11614C38.3219 4.13214 38.3739 4.17214 38.4299 4.23614C38.4699 4.26814 38.4899 4.31614 38.4899 4.38014C38.4979 4.44414 38.5019 4.52414 38.5019 4.62014C38.4779 4.70814 38.4379 4.82414 38.3819 4.96814C38.3339 5.10414 38.2779 5.23614 38.2139 5.36414C38.1579 5.48414 38.1099 5.56814 38.0699 5.61614C38.0379 5.64814 37.9819 5.70814 37.9019 5.79614C37.8219 5.87614 37.7499 5.96414 37.6859 6.06014C37.4859 6.30014 37.3419 6.45614 37.2539 6.52814C37.1659 6.60014 37.0899 6.66814 37.0259 6.73214C36.8579 6.90014 36.6819 7.02814 36.4979 7.11614C36.3139 7.19614 36.1379 7.23614 35.9699 7.23614C35.8099 7.23614 35.6739 7.19614 35.5619 7.11614C35.3139 6.98814 35.1899 6.77214 35.1899 6.46814C35.1899 6.40414 35.1779 6.34814 35.1539 6.30014C35.1379 6.24414 35.1299 6.21614 35.1299 6.21614C35.0979 6.21614 35.0539 6.22414 34.9979 6.24014C34.9499 6.25614 34.8979 6.31214 34.8419 6.40814C34.7699 6.54414 34.6539 6.68414 34.4939 6.82814C34.3419 6.96414 34.1859 7.08014 34.0259 7.17614C33.8659 7.26414 33.7379 7.30814 33.6419 7.30814ZM42.6372 7.70414C42.5572 7.70414 42.4732 7.66014 42.3852 7.57214C42.3052 7.48414 42.2332 7.37614 42.1692 7.24814C42.1132 7.11214 42.0852 6.98414 42.0852 6.86414C42.0852 6.74414 42.1132 6.52014 42.1692 6.19214C42.2332 5.86414 42.3092 5.53214 42.3972 5.19614C42.4612 4.98814 42.4812 4.86814 42.4572 4.83614C42.4332 4.80414 42.3252 4.84814 42.1332 4.96814C42.0212 5.02414 41.9212 5.08414 41.8332 5.14814C41.7452 5.20414 41.6692 5.26814 41.6052 5.34014C41.5652 5.37214 41.5052 5.42414 41.4252 5.49614C41.3452 5.56814 41.2612 5.63614 41.1732 5.70014C41.0692 5.78014 40.9372 5.89214 40.7772 6.03614C40.6172 6.18014 40.4572 6.32414 40.2972 6.46814C40.1452 6.61214 40.0292 6.72414 39.9492 6.80414C39.9332 6.83614 39.9092 6.86414 39.8772 6.88814C39.8452 6.91214 39.8092 6.92814 39.7692 6.93614C39.7292 6.93614 39.6852 6.92814 39.6372 6.91214C39.5492 6.88814 39.4652 6.83614 39.3852 6.75614C39.3132 6.67614 39.2772 6.58414 39.2772 6.48014C39.2772 6.40014 39.3092 6.26414 39.3732 6.07214C39.4372 5.87214 39.5212 5.63214 39.6252 5.35214C39.7372 5.07214 39.8652 4.77614 40.0092 4.46414C40.0332 4.42414 40.0532 4.37614 40.0692 4.32014C40.0852 4.25614 40.0972 4.18814 40.1052 4.11614C40.1212 4.04414 40.1292 3.97614 40.1292 3.91214C40.1292 3.87214 40.1332 3.83214 40.1412 3.79214C40.1572 3.74414 40.1732 3.70014 40.1892 3.66014C40.2132 3.61214 40.2332 3.58014 40.2492 3.56414C40.2812 3.50014 40.3372 3.48414 40.4172 3.51614C40.4972 3.54014 40.5652 3.59614 40.6212 3.68414C40.7412 3.79614 40.8012 3.93614 40.8012 4.10414C40.8092 4.27214 40.7692 4.48014 40.6812 4.72814C40.6492 4.78414 40.6212 4.84014 40.5972 4.89614C40.5812 4.94414 40.5652 4.98814 40.5492 5.02814C40.5332 5.06014 40.5212 5.08814 40.5132 5.11214C40.5052 5.12814 40.5012 5.13614 40.5012 5.13614C40.5332 5.13614 40.6052 5.10014 40.7172 5.02814C40.8292 4.95614 40.9612 4.87614 41.1132 4.78814C41.2332 4.70014 41.3372 4.62014 41.4252 4.54814C41.5212 4.46814 41.6012 4.40814 41.6652 4.36814C41.7292 4.32014 41.7692 4.29614 41.7852 4.29614C41.8172 4.29614 41.8572 4.28414 41.9052 4.26014C41.9532 4.23614 41.9932 4.20814 42.0252 4.17614C42.0572 4.14414 42.0812 4.12814 42.0972 4.12814C42.1212 4.12014 42.1332 4.11614 42.1332 4.11614C42.1332 4.11614 42.1492 4.11614 42.1812 4.11614C42.2132 4.10814 42.2452 4.08814 42.2772 4.05614C42.3412 4.00814 42.4252 3.99614 42.5292 4.02014C42.6332 4.03614 42.7292 4.07614 42.8172 4.14014C42.9052 4.20414 42.9492 4.27614 42.9492 4.35614C42.9492 4.38814 42.9572 4.41614 42.9732 4.44014C42.9972 4.45614 43.0092 4.46414 43.0092 4.46414C43.0732 4.46414 43.1132 4.56414 43.1292 4.76414C43.1532 4.96414 43.1332 5.15614 43.0692 5.34014C43.0692 5.46014 43.0452 5.60414 42.9972 5.77214C42.9572 5.94014 42.9212 6.10014 42.8892 6.25214C42.8252 6.45214 42.7812 6.62814 42.7572 6.78014C42.7332 6.93214 42.7292 7.06014 42.7452 7.16414C42.7612 7.26814 42.7892 7.35214 42.8292 7.41614C42.8612 7.47214 42.8612 7.53614 42.8292 7.60814C42.7972 7.67214 42.7332 7.70414 42.6372 7.70414ZM44.9555 7.22414C44.8035 7.28014 44.6755 7.30814 44.5715 7.30814C44.4755 7.30014 44.3675 7.25214 44.2475 7.16414C44.0955 7.02014 44.0435 6.87614 44.0915 6.73214C44.1475 6.58014 44.2795 6.43214 44.4875 6.28814C44.6315 6.20014 44.7355 6.15214 44.7995 6.14414C44.8715 6.13614 44.9795 6.16414 45.1235 6.22814C45.3635 6.38014 45.4675 6.54814 45.4355 6.73214C45.4115 6.91614 45.2515 7.08014 44.9555 7.22414ZM47.3344 7.22414C47.1824 7.28014 47.0544 7.30814 46.9504 7.30814C46.8544 7.30014 46.7464 7.25214 46.6264 7.16414C46.4744 7.02014 46.4224 6.87614 46.4704 6.73214C46.5264 6.58014 46.6584 6.43214 46.8664 6.28814C47.0104 6.20014 47.1144 6.15214 47.1784 6.14414C47.2504 6.13614 47.3584 6.16414 47.5024 6.22814C47.7424 6.38014 47.8464 6.54814 47.8144 6.73214C47.7904 6.91614 47.6304 7.08014 47.3344 7.22414ZM49.7133 7.22414C49.5613 7.28014 49.4333 7.30814 49.3293 7.30814C49.2333 7.30014 49.1253 7.25214 49.0053 7.16414C48.8533 7.02014 48.8013 6.87614 48.8493 6.73214C48.9053 6.58014 49.0373 6.43214 49.2453 6.28814C49.3893 6.20014 49.4933 6.15214 49.5573 6.14414C49.6293 6.13614 49.7373 6.16414 49.8813 6.22814C50.1213 6.38014 50.2253 6.54814 50.1933 6.73214C50.1693 6.91614 50.0093 7.08014 49.7133 7.22414Z" fill="black"/>
</svg>
