<svg width="349" height="43" viewBox="0 0 349 43" fill="none" xmlns="http://www.w3.org/2000/svg">
<path d="M23.3656 14.8732L21.4153 25.5606L22.3276 36.2855L14.2696 29.5591L4.65774 25.3413L14.666 21.3803L23.3656 14.8732Z" fill="#FFFDF7"/>
<path d="M292.149 6.31865L290.199 17.0061L291.111 27.7309L283.053 21.0045L273.441 16.7867L283.45 12.8257L292.149 6.31865Z" fill="#FFFDF7"/>
<path d="M348.836 21.9999L338.74 26.0134L330.131 32.4738L331.561 22.0751L330.041 11.6894L338.706 18.0745L348.836 21.9999Z" fill="#FFFDF7"/>
<path d="M230.784 12L234.753 22.1127L241.176 30.75L230.784 29.2746L220.391 30.75L226.814 22.1127L230.784 12Z" fill="#FFFDF7"/>
<path d="M126.948 12.0011L130.784 22.1653L137.093 30.8865L126.721 29.2742L116.31 30.6124L122.846 22.0606L126.948 12.0011Z" fill="#FFFDF7"/>
<path d="M82.1362 13.4946L75.9854 22.4497L72.4315 32.6096L67.8293 23.1758L60.7832 15.3957L71.5362 15.8745L82.1362 13.4946Z" fill="#FFFDF7"/>
<path d="M194.386 10.5773L191.387 21.019L191.232 31.7815L183.88 24.2901L174.733 19.1412L185.084 16.1908L194.386 10.5773Z" fill="#FFFDF7"/>
</svg>
