<svg width="32" height="32" viewBox="0 0 32 32" fill="none" xmlns="http://www.w3.org/2000/svg">
<g clip-path="url(#clip0_5_2)">
<rect width="32" height="32" rx="7" fill="white"/>
<path d="M5.62 26.5C5.26 26.4 4.97 26.31 4.75 26.23C4.53 26.17 4.42 26.14 4.42 26.14C4.46 26.04 4.44 25.95 4.36 25.87C4.3 25.79 4.16 25.74 3.94 25.72C3.64 25.54 3.36 25.31 3.1 25.03C2.86 24.77 2.66 24.51 2.5 24.25C2.34 23.99 2.22 23.77 2.14 23.59C2 23.29 1.93 23.11 1.93 23.05C1.95 22.97 2.07 22.88 2.29 22.78C2.51 22.62 2.67 22.57 2.77 22.63C2.89 22.69 3.03 22.89 3.19 23.23C3.45 23.69 3.89 24.04 4.51 24.28C5.15 24.52 5.86 24.63 6.64 24.61C7.44 24.57 8.2 24.39 8.92 24.07C9.66 23.77 10.12 23.46 10.3 23.14C10.5 22.8 10.43 22.37 10.09 21.85C10.03 21.69 9.96 21.56 9.88 21.46C9.8 21.36 9.67 21.23 9.49 21.07C9.33 20.91 9.06 20.65 8.68 20.29C8.38 20.15 8.1 20.02 7.84 19.9C7.6 19.78 7.34 19.65 7.06 19.51C6.74 19.35 6.35 19.12 5.89 18.82C5.45 18.5 5.03 18.15 4.63 17.77C4.23 17.39 3.94 17.04 3.76 16.72C3.44 16.42 3.2 16.01 3.04 15.49C2.88 14.95 2.82 14.38 2.86 13.78C2.9 13.18 3.05 12.64 3.31 12.16C3.43 11.88 3.63 11.54 3.91 11.14C4.21 10.72 4.54 10.3 4.9 9.88C5.26 9.46 5.61 9.08 5.95 8.74C6.29 8.4 6.57 8.16 6.79 8.02C6.95 7.86 7.12 7.7 7.3 7.54C7.48 7.36 7.57 7.27 7.57 7.27C7.59 7.17 7.62 7.12 7.66 7.12C7.72 7.12 7.75 7.12 7.75 7.12C7.85 7.06 8.07 6.96 8.41 6.82C8.75 6.68 9.12 6.42 9.52 6.04C10.86 5.4 11.95 4.93 12.79 4.63C13.63 4.33 14.32 4.18 14.86 4.18C15.36 4.2 15.81 4.32 16.21 4.54C16.63 4.74 16.97 5.01 17.23 5.35C17.51 5.69 17.68 6.1 17.74 6.58C17.88 7.06 17.84 7.62 17.62 8.26C17.4 8.88 17.07 9.47 16.63 10.03C16.21 10.57 15.75 10.98 15.25 11.26C14.69 11.5 14.31 11.61 14.11 11.59C13.93 11.55 13.85 11.34 13.87 10.96C13.87 10.8 13.92 10.61 14.02 10.39C14.14 10.17 14.45 9.78 14.95 9.22C15.59 8.28 15.98 7.53 16.12 6.97C16.26 6.41 16.13 6.1 15.73 6.04C15.61 6 15.39 6 15.07 6.04C14.77 6.08 14.43 6.14 14.05 6.22C13.69 6.28 13.38 6.35 13.12 6.43C12.86 6.49 12.73 6.54 12.73 6.58C12.73 6.58 12.73 6.61 12.73 6.67C12.73 6.73 12.69 6.75 12.61 6.73C12.57 6.73 12.4 6.81 12.1 6.97C11.8 7.13 11.44 7.34 11.02 7.6C10.6 7.86 10.18 8.12 9.76 8.38C9.34 8.64 8.98 8.87 8.68 9.07C8.4 9.25 8.25 9.36 8.23 9.4C8.19 9.62 7.96 9.82 7.54 10C7.14 10.24 6.77 10.59 6.43 11.05C6.11 11.51 5.75 12.08 5.35 12.76C5.01 13.22 4.77 13.72 4.63 14.26C4.49 14.78 4.49 15.2 4.63 15.52C4.73 15.84 5.04 16.25 5.56 16.75C6.08 17.25 6.73 17.73 7.51 18.19C8.19 18.57 8.8 18.95 9.34 19.33C9.88 19.69 10.32 20.04 10.66 20.38C11.02 20.72 11.26 21.02 11.38 21.28C11.62 21.62 11.79 21.97 11.89 22.33C12.01 22.67 12.07 23 12.07 23.32C12.09 23.64 12.06 23.93 11.98 24.19C11.84 24.51 11.59 24.84 11.23 25.18C10.89 25.52 10.6 25.68 10.36 25.66C10.14 25.72 9.97 25.79 9.85 25.87C9.75 25.95 9.63 26.02 9.49 26.08C9.35 26.16 9.05 26.24 8.59 26.32C8.15 26.4 7.66 26.45 7.12 26.47C6.58 26.51 6.08 26.52 5.62 26.5ZM15.5069 23.92C15.4269 23.76 15.3269 23.64 15.2069 23.56C15.0869 23.46 15.0269 23.37 15.0269 23.29C15.0269 23.21 15.0169 23.13 14.9969 23.05C14.9969 22.95 14.9569 22.86 14.8769 22.78C14.7769 22.66 14.7869 22.39 14.9069 21.97C15.0269 21.53 15.2269 21 15.5069 20.38C15.7869 19.74 16.1169 19.07 16.4969 18.37C16.6569 18.21 16.8169 18 16.9769 17.74C17.1369 17.48 17.2569 17.31 17.3369 17.23C17.3369 17.15 17.3669 17.08 17.4269 17.02C17.4869 16.94 17.5569 16.9 17.6369 16.9V16.72C17.6369 16.62 17.7269 16.45 17.9069 16.21C18.1069 15.97 18.3469 15.71 18.6269 15.43C18.9069 15.13 19.1969 14.85 19.4969 14.59C19.7969 14.31 20.0469 14.11 20.2469 13.99C20.6669 13.71 21.0969 13.54 21.5369 13.48C21.9969 13.42 22.3869 13.52 22.7069 13.78C22.7669 13.84 22.8669 13.94 23.0069 14.08C23.1469 14.22 23.3069 14.38 23.4869 14.56C23.6869 14.72 23.8869 14.89 24.0869 15.07L25.1969 16.06L24.6569 17.56C24.3969 18.36 24.3269 19.06 24.4469 19.66C24.5869 20.26 24.7869 20.78 25.0469 21.22C25.1469 21.44 25.3469 21.65 25.6469 21.85C25.9669 22.05 26.2669 22.17 26.5469 22.21C26.7069 22.23 26.8569 22.29 26.9969 22.39C27.1369 22.49 27.2069 22.65 27.2069 22.87C27.2069 23.07 27.1669 23.23 27.0869 23.35C27.0069 23.47 26.8669 23.55 26.6669 23.59C26.0069 23.67 25.3869 23.51 24.8069 23.11C24.2469 22.71 23.7269 22.05 23.2469 21.13C23.1669 21.01 23.0569 20.79 22.9169 20.47C22.7969 20.13 22.7269 19.91 22.7069 19.81C22.6269 19.91 22.4769 20.1 22.2569 20.38C22.0369 20.64 21.8669 20.83 21.7469 20.95C20.3269 22.39 19.0969 23.36 18.0569 23.86C17.0369 24.34 16.1869 24.36 15.5069 23.92ZM16.5869 22.24C16.5869 22.38 16.7969 22.38 17.2169 22.24C17.6569 22.08 18.1269 21.8 18.6269 21.4C19.3069 20.82 19.9869 20.18 20.6669 19.48C21.3669 18.78 21.9269 18.13 22.3469 17.53L23.0069 16.45C22.8069 15.99 22.5869 15.68 22.3469 15.52C22.1269 15.34 21.9369 15.25 21.7769 15.25C21.5169 15.25 21.1269 15.49 20.6069 15.97C20.1069 16.45 19.5669 17.09 18.9869 17.89C18.4069 18.69 17.8569 19.57 17.3369 20.53C17.1369 20.93 16.9569 21.32 16.7969 21.7C16.6569 22.06 16.5869 22.24 16.5869 22.24ZM29.9826 23.44C29.6026 23.58 29.2826 23.65 29.0226 23.65C28.7826 23.63 28.5126 23.51 28.2126 23.29C27.8326 22.93 27.7026 22.57 27.8226 22.21C27.9626 21.83 28.2926 21.46 28.8126 21.1C29.1726 20.88 29.4326 20.76 29.5926 20.74C29.7726 20.72 30.0426 20.79 30.4026 20.95C31.0026 21.33 31.2626 21.75 31.1826 22.21C31.1226 22.67 30.7226 23.08 29.9826 23.44Z" fill="black"/>
</g>
<defs>
<clipPath id="clip0_5_2">
<rect width="32" height="32" rx="7" fill="white"/>
</clipPath>
</defs>
</svg>
