<svg width="302" height="346" viewBox="0 0 302 346" fill="none" xmlns="http://www.w3.org/2000/svg">
<path d="M1 51.0668C1 49.7468 14.2 40.4868 33.705 23.8568C41.486 17.2227 39.02 8.54677 37.685 4.47677C36.35 0.406772 34.7 -0.253228 33.685 3.36677C32.67 6.98677 32.34 14.9068 35.8 57.4318C39.26 99.9568 46.52 176.847 46.465 230.482C46.41 284.117 38.82 312.167 33.755 327.607C28.69 343.047 26.38 345.027 24.035 343.902C21.69 342.777 19.38 338.487 17 334.067" stroke="white" stroke-width="2" stroke-linecap="round"/>
<path d="M31 112.067C53.44 90.9468 63.68 72.1468 61.68 57.0118C60.7306 49.8273 61 43.5268 68.59 63.8918C76.18 84.2568 91.36 131.447 100.005 166.317C108.65 201.187 110.3 222.307 112 244.067" stroke="white" stroke-width="2" stroke-linecap="round"/>
<path d="M43 126.067C54.22 120.457 65.44 114.847 84.915 100.407C104.39 85.9668 131.78 62.8668 146.385 43.3768C160.99 23.8868 161.98 8.70677 162.985 7.65177C163.99 6.59677 164.98 20.1268 169.945 40.4618C174.91 60.7968 183.82 87.5268 189.73 108.392C195.64 129.257 198.28 143.447 199.145 153.562C200.01 163.677 199.02 169.287 198 177.067" stroke="white" stroke-width="2" stroke-linecap="round"/>
<path d="M66 170.067C111.87 152.247 157.74 134.427 185.33 114.522C212.92 94.6168 220.84 73.1668 225.25 56.6718C229.66 40.1768 230.32 29.2868 230.99 26.9768C231.66 24.6668 232.32 31.2668 234.64 43.9068C236.96 56.5468 240.92 75.0268 246 95.0668" stroke="white" stroke-width="2" stroke-linecap="round"/>
<path d="M75 250.067C142.98 201.557 210.96 153.047 250.6 117.827C290.24 82.6068 299.48 62.1468 300.445 65.9618C301.41 69.7768 293.82 98.4868 288.26 143.472C282.7 188.457 279.4 248.847 276 311.067" stroke="white" stroke-width="2" stroke-linecap="round"/>
</svg>
